G04*
G04 #@! TF.GenerationSoftware,Altium Limited,Altium Designer,21.2.1 (34)*
G04*
G04 Layer_Color=8388736*
%FSTAX24Y24*%
%MOIN*%
G70*
G04*
G04 #@! TF.SameCoordinates,05E74B49-6C64-4D2F-80AE-A4148A6602C0*
G04*
G04*
G04 #@! TF.FilePolarity,Negative*
G04*
G01*
G75*
%ADD34O,0.0780X0.0480*%
%ADD35O,0.0356X0.1261*%
%ADD36R,0.0356X0.1261*%
%ADD37R,0.0630X0.0580*%
%ADD38R,0.0680X0.0680*%
G04:AMPARAMS|DCode=39|XSize=68mil|YSize=68mil|CornerRadius=19mil|HoleSize=0mil|Usage=FLASHONLY|Rotation=0.000|XOffset=0mil|YOffset=0mil|HoleType=Round|Shape=RoundedRectangle|*
%AMROUNDEDRECTD39*
21,1,0.0680,0.0300,0,0,0.0*
21,1,0.0300,0.0680,0,0,0.0*
1,1,0.0380,0.0150,-0.0150*
1,1,0.0380,-0.0150,-0.0150*
1,1,0.0380,-0.0150,0.0150*
1,1,0.0380,0.0150,0.0150*
%
%ADD39ROUNDEDRECTD39*%
%ADD40R,0.0580X0.0630*%
%ADD41R,0.0474X0.0630*%
%ADD42R,0.0552X0.0415*%
%ADD43R,0.0671X0.0434*%
%ADD44R,0.0434X0.0671*%
%ADD45R,0.0434X0.0434*%
%ADD46R,0.1025X0.1379*%
%ADD47R,0.1025X0.0474*%
%ADD48R,0.0630X0.0474*%
%ADD49R,0.0986X0.0980*%
%ADD50C,0.0700*%
%ADD51O,0.0830X0.0980*%
%ADD52R,0.0830X0.0980*%
%ADD53R,0.0671X0.0671*%
%ADD54C,0.0671*%
G04:AMPARAMS|DCode=55|XSize=145.8mil|YSize=86.7mil|CornerRadius=23.7mil|HoleSize=0mil|Usage=FLASHONLY|Rotation=90.000|XOffset=0mil|YOffset=0mil|HoleType=Round|Shape=RoundedRectangle|*
%AMROUNDEDRECTD55*
21,1,0.1458,0.0394,0,0,90.0*
21,1,0.0984,0.0867,0,0,90.0*
1,1,0.0474,0.0197,0.0492*
1,1,0.0474,0.0197,-0.0492*
1,1,0.0474,-0.0197,-0.0492*
1,1,0.0474,-0.0197,0.0492*
%
%ADD55ROUNDEDRECTD55*%
G04:AMPARAMS|DCode=56|XSize=86.7mil|YSize=86.7mil|CornerRadius=23.7mil|HoleSize=0mil|Usage=FLASHONLY|Rotation=90.000|XOffset=0mil|YOffset=0mil|HoleType=Round|Shape=RoundedRectangle|*
%AMROUNDEDRECTD56*
21,1,0.0867,0.0394,0,0,90.0*
21,1,0.0394,0.0867,0,0,90.0*
1,1,0.0474,0.0197,0.0197*
1,1,0.0474,0.0197,-0.0197*
1,1,0.0474,-0.0197,-0.0197*
1,1,0.0474,-0.0197,0.0197*
%
%ADD56ROUNDEDRECTD56*%
%ADD57C,0.2049*%
%ADD58C,0.1064*%
%ADD59O,0.1064X0.0671*%
D34*
X052782Y024606D02*
D03*
Y025512D02*
D03*
D35*
X046797Y030665D02*
D03*
D36*
Y028465D02*
D03*
D37*
X049396Y02892D02*
D03*
Y02982D02*
D03*
X050419D02*
D03*
Y02892D02*
D03*
X059372Y028394D02*
D03*
Y029294D02*
D03*
X059356Y030377D02*
D03*
Y031277D02*
D03*
D38*
X060892Y027835D02*
D03*
D39*
X062152D02*
D03*
D40*
X059373Y027598D02*
D03*
X058473D02*
D03*
X055577Y009843D02*
D03*
X054677D02*
D03*
X048274Y01269D02*
D03*
X047374D02*
D03*
X051132Y009865D02*
D03*
X052031D02*
D03*
X062168Y026811D02*
D03*
X061269D02*
D03*
D41*
X054682Y010765D02*
D03*
X055582D02*
D03*
X052032D02*
D03*
X051132D02*
D03*
X059373Y02685D02*
D03*
X058473D02*
D03*
X045474Y01269D02*
D03*
X046374D02*
D03*
D42*
X034012Y018243D02*
D03*
X03401Y017485D02*
D03*
X033028Y017857D02*
D03*
X033028Y013041D02*
D03*
X03401Y012669D02*
D03*
X034012Y013427D02*
D03*
X033028Y022568D02*
D03*
X03401Y022196D02*
D03*
X034012Y022954D02*
D03*
D43*
X055443Y019179D02*
D03*
Y019679D02*
D03*
Y020179D02*
D03*
Y020679D02*
D03*
Y021179D02*
D03*
Y021679D02*
D03*
Y022179D02*
D03*
Y022679D02*
D03*
Y023179D02*
D03*
Y023679D02*
D03*
Y024179D02*
D03*
Y024679D02*
D03*
D44*
X062435Y018484D02*
D03*
X061935D02*
D03*
X061435D02*
D03*
X060935D02*
D03*
X060435D02*
D03*
X059935D02*
D03*
X059435D02*
D03*
X058935D02*
D03*
X058435D02*
D03*
X057935D02*
D03*
X057435D02*
D03*
X056935D02*
D03*
X056435D02*
D03*
X055935D02*
D03*
Y025374D02*
D03*
X056435D02*
D03*
X056935D02*
D03*
X057435D02*
D03*
X057935D02*
D03*
X058435D02*
D03*
X058935D02*
D03*
X059435D02*
D03*
X059935D02*
D03*
X060435D02*
D03*
X060935D02*
D03*
X061435D02*
D03*
X061935D02*
D03*
X062435D02*
D03*
D45*
X059947Y021969D02*
D03*
Y02252D02*
D03*
Y023071D02*
D03*
X058844Y021969D02*
D03*
Y02252D02*
D03*
Y023071D02*
D03*
X059396Y021969D02*
D03*
Y023071D02*
D03*
Y02252D02*
D03*
D46*
X05573Y029644D02*
D03*
D47*
X058013Y03055D02*
D03*
Y029644D02*
D03*
Y028739D02*
D03*
D48*
X03312Y010989D02*
D03*
Y011889D02*
D03*
X03402Y010989D02*
D03*
Y011889D02*
D03*
X03312Y020516D02*
D03*
Y021416D02*
D03*
X03402Y020516D02*
D03*
Y021416D02*
D03*
Y015805D02*
D03*
Y016705D02*
D03*
X03312Y015805D02*
D03*
Y016705D02*
D03*
D49*
X031679Y012847D02*
D03*
Y011247D02*
D03*
Y022335D02*
D03*
Y020735D02*
D03*
Y017591D02*
D03*
Y015991D02*
D03*
D50*
X02601Y018386D02*
Y021518D01*
Y014094D02*
Y018386D01*
D51*
X054593Y0128D02*
D03*
X051049Y0128D02*
D03*
X051821Y033031D02*
D03*
X052821D02*
D03*
X053821D02*
D03*
X06053Y01248D02*
D03*
X05953D02*
D03*
X05853D02*
D03*
D52*
X055593Y0128D02*
D03*
X052049Y0128D02*
D03*
X050821Y033031D02*
D03*
X06153Y01248D02*
D03*
D53*
X030656Y030118D02*
D03*
D54*
Y027756D02*
D03*
X043884Y03248D02*
D03*
Y025394D02*
D03*
D55*
X024758Y023065D02*
D03*
X023758Y02027D02*
D03*
X024758Y01834D02*
D03*
X023758Y015545D02*
D03*
X024758Y013577D02*
D03*
X023758Y010781D02*
D03*
D56*
X029758Y020171D02*
D03*
Y023163D02*
D03*
Y015447D02*
D03*
Y018439D02*
D03*
Y010683D02*
D03*
Y013675D02*
D03*
D57*
X021404Y02277D02*
D03*
Y018045D02*
D03*
Y013281D02*
D03*
X028096Y030787D02*
D03*
Y026654D02*
D03*
X06412Y010394D02*
D03*
Y033425D02*
D03*
X021325Y033425D02*
D03*
Y010394D02*
D03*
D58*
X045266Y011445D02*
D03*
X047983D02*
D03*
D59*
X04751Y010461D02*
D03*
X045739D02*
D03*
M02*
