M48
;Layer_Color=9474304
;FILE_FORMAT=2:4
INCH,LZ
;TYPE=PLATED
T1F00S00C0.0100
T2F00S00C0.0118
T4F00S00C0.0280
T5F00S00C0.0340
T6F00S00C0.0394
T8F00S00C0.0591
T9F00S00C0.1181
T10F00S00C0.1260
%
T01
X042Y0096
X0432
X0444
X0456
X0468
Y012
X0462Y0132
X045
X0438
X0426
X0432Y0144
X0444
X045Y0156
X0462
X0468Y0144
X0438Y0156
X0426
X042Y0144
Y012
X0432
X0444
X045Y0108
X0438
X0426
X0486
X0498
X0504Y012
X0516
X0528
X054
X0552
X0564
X0576
X0582Y0108
X0594
X0606
X0618
X0624Y012
Y0144
X0618Y0156
X0594
X0582
X057
X0558
X0546
X0534
X0522
X0528Y0144
X0516
X0504
X0492
X048
X0486Y0156
X0498
Y0132
X0486
X0492Y012
Y0096
X048
X0528
X054
X0534Y0108
X057
X0576Y0096
X0588
X06
X0612
X0624
X06Y012
X0594Y0132
X06Y0144
X0588
X0576
X0564
X0552
X057Y0132
X0564Y0096
X063Y0108
X0636Y012
X0648
X0642Y0132
X063
X0636Y0144
X0648
X0642Y0156
X063
X0636Y0168
X0648
Y0264
X0636
X0642Y0276
X063
X0636Y0288
X0648
X0642Y03
X063
X0636Y0312
X0648
X0624
X0612
X06
X0606Y03
X0618
X0624Y0288
Y024
X0612
X06
X0588
X0576
X0564
X057Y0228
X0582
X0576Y0216
X0564
X057Y0204
X0582
X0594
X0606
X0618
X0624Y0216
X0612
X0618Y0228
X0606
X0612Y0192
X0624
Y0168
X06
X0588
X0576
X0564
X0552
X0546Y018
X0534
X0522
X0528Y0192
X0516
X0504
X0492
X048
X0486Y0204
X0498
X051
Y0228
X0522
X0534
X0546
X0528Y024
X0516
X0504
X0492
X048
X0486Y0252
X0498
X0504Y0264
X0516
X0528
X0534Y0252
X0522
Y0276
X051
X0498
X0486
X0474
X048Y0264
X0492
X0474Y0252
Y0228
X0498
X0474Y0204
Y018
X0486
X048Y0168
X0504
X0516
X0528
X0564Y0192
X0576
X0588
X06
X0564Y0264
X0546Y03
X051
X0504Y0312
X0492
X048
X0486Y03
X0474
X0462
X045
X0438
X0426
X0432Y0312
X0444
X0456
Y0288
X0444
X0432
X042
X0426Y0276
X0438
X045
X0462
X0456Y0264
X0444
X0432
X042
Y024
X0432
X0444
X0456
X0468
X0462Y0252
Y0228
X045
X0438
X0426
X0432Y0216
X042
X045Y0204
X0444Y0192
X045Y018
X0462
X0468Y0192
Y0168
X0444
X0432
X042
X0426Y018
X0438
X042Y0312
X0426Y0324
X0432Y0336
X0444
X0456
X0468
X0462Y0324
X045
X042Y0336
X048
X0492
X0498Y0324
X0486
X0474
X0546
X0558
X057
X0582
X0588Y0336
X06
X0612
X0624
X0618Y0324
X0606
X0576Y0336
X0564
X0552
X063Y0324
T02
X02227Y012402
X022663Y012047
X023136Y011575
X025498Y013622
X02597Y014094
X02601Y014921
X058844Y022244
Y022795
X059396
X05912Y023071
Y02252
X059396Y022244
X059947
X059671Y02252
X059947Y022795
X059671Y023071
Y021969
X05912
X025892Y021614
X02597Y020787
X02601Y019803
Y019094
Y018543
X026049Y017283
X02601Y016299
X023215Y01622
X022742Y016614
X022348Y017047
Y021811
X022821Y021417
X023175Y021024
X02538Y022165
Y023858
X025774Y024173
X026128Y024606
X026679Y025118
X027152Y025551
X029435Y026693
X029907
X030301Y02689
X030616Y027205
X03038Y030354
X030065Y030512
X029671Y030551
X029317
T04
X034012Y013888
X03402Y015344
X045459Y013701
X051132Y011335
X054682
X052309Y02063
X050419Y028189
X060734Y029055
X03402Y020055
X034012Y018704
X059356Y031969
T05
X051049Y0128
X052049
X054593Y0128
X055593
X05853Y01248
X05953
X06053
X06153
X053821Y033031
X052821
X051821
X050821
T06
X029758Y010683
Y013675
Y015447
X043884Y025394
X030656Y027756
Y030118
X029758Y023163
Y020171
Y018439
X043884Y03248
T08
X045266Y011445
X047983
T09
X021404Y013281
Y018045
Y02277
X028096Y026654
Y030787
T10
X021325Y010394
X06412
X021325Y033425
X06412Y033425
M30
