G04*
G04 #@! TF.GenerationSoftware,Altium Limited,Altium Designer,21.2.1 (34)*
G04*
G04 Layer_Color=16711935*
%FSTAX24Y24*%
%MOIN*%
G70*
G04*
G04 #@! TF.SameCoordinates,05E74B49-6C64-4D2F-80AE-A4148A6602C0*
G04*
G04*
G04 #@! TF.FilePolarity,Negative*
G04*
G01*
G75*
%ADD50C,0.0700*%
%ADD51O,0.0830X0.0980*%
%ADD52R,0.0830X0.0980*%
%ADD53R,0.0671X0.0671*%
%ADD54C,0.0671*%
G04:AMPARAMS|DCode=55|XSize=145.8mil|YSize=86.7mil|CornerRadius=23.7mil|HoleSize=0mil|Usage=FLASHONLY|Rotation=90.000|XOffset=0mil|YOffset=0mil|HoleType=Round|Shape=RoundedRectangle|*
%AMROUNDEDRECTD55*
21,1,0.1458,0.0394,0,0,90.0*
21,1,0.0984,0.0867,0,0,90.0*
1,1,0.0474,0.0197,0.0492*
1,1,0.0474,0.0197,-0.0492*
1,1,0.0474,-0.0197,-0.0492*
1,1,0.0474,-0.0197,0.0492*
%
%ADD55ROUNDEDRECTD55*%
G04:AMPARAMS|DCode=56|XSize=86.7mil|YSize=86.7mil|CornerRadius=23.7mil|HoleSize=0mil|Usage=FLASHONLY|Rotation=90.000|XOffset=0mil|YOffset=0mil|HoleType=Round|Shape=RoundedRectangle|*
%AMROUNDEDRECTD56*
21,1,0.0867,0.0394,0,0,90.0*
21,1,0.0394,0.0867,0,0,90.0*
1,1,0.0474,0.0197,0.0197*
1,1,0.0474,0.0197,-0.0197*
1,1,0.0474,-0.0197,-0.0197*
1,1,0.0474,-0.0197,0.0197*
%
%ADD56ROUNDEDRECTD56*%
%ADD57C,0.2049*%
%ADD58C,0.1064*%
%ADD59O,0.1064X0.0671*%
%ADD63C,0.1000*%
D50*
X021404Y013281D02*
X023608Y011077D01*
X024802Y013622D02*
X025537D01*
X02601Y014094D01*
X024758Y02277D02*
X02601Y021518D01*
X024758Y01834D02*
X025964D01*
X02601Y014094D02*
Y018386D01*
Y021518D01*
X021404Y02277D02*
X023608Y020565D01*
X021404Y018045D02*
X023608Y01584D01*
D51*
X054593Y0128D02*
D03*
X051049Y0128D02*
D03*
X051821Y033031D02*
D03*
X052821D02*
D03*
X053821D02*
D03*
X06053Y01248D02*
D03*
X05953D02*
D03*
X05853D02*
D03*
D52*
X055593Y0128D02*
D03*
X052049Y0128D02*
D03*
X050821Y033031D02*
D03*
X06153Y01248D02*
D03*
D53*
X030656Y030118D02*
D03*
D54*
Y027756D02*
D03*
X043884Y03248D02*
D03*
Y025394D02*
D03*
D55*
X024758Y023065D02*
D03*
X023758Y02027D02*
D03*
X024758Y01834D02*
D03*
X023758Y015545D02*
D03*
X024758Y013577D02*
D03*
X023758Y010781D02*
D03*
D56*
X029758Y020171D02*
D03*
Y023163D02*
D03*
Y015447D02*
D03*
Y018439D02*
D03*
Y010683D02*
D03*
Y013675D02*
D03*
D57*
X021404Y02277D02*
D03*
Y018045D02*
D03*
Y013281D02*
D03*
X028096Y030787D02*
D03*
Y026654D02*
D03*
X06412Y010394D02*
D03*
Y033425D02*
D03*
X021325Y033425D02*
D03*
Y010394D02*
D03*
D58*
X045266Y011445D02*
D03*
X047983D02*
D03*
D59*
X04751Y010461D02*
D03*
X045739D02*
D03*
D63*
X024758Y023147D02*
X028096Y026486D01*
M02*
