G04*
G04 #@! TF.GenerationSoftware,Altium Limited,Altium Designer,21.2.1 (34)*
G04*
G04 Layer_Color=8421504*
%FSTAX24Y24*%
%MOIN*%
G70*
G04*
G04 #@! TF.SameCoordinates,05E74B49-6C64-4D2F-80AE-A4148A6602C0*
G04*
G04*
G04 #@! TF.FilePolarity,Positive*
G04*
G01*
G75*
%ADD18O,0.0700X0.0400*%
%ADD19O,0.0276X0.1181*%
%ADD20R,0.0276X0.1181*%
%ADD21R,0.0550X0.0500*%
%ADD22R,0.0600X0.0600*%
G04:AMPARAMS|DCode=23|XSize=60mil|YSize=60mil|CornerRadius=15mil|HoleSize=0mil|Usage=FLASHONLY|Rotation=0.000|XOffset=0mil|YOffset=0mil|HoleType=Round|Shape=RoundedRectangle|*
%AMROUNDEDRECTD23*
21,1,0.0600,0.0300,0,0,0.0*
21,1,0.0300,0.0600,0,0,0.0*
1,1,0.0300,0.0150,-0.0150*
1,1,0.0300,-0.0150,-0.0150*
1,1,0.0300,-0.0150,0.0150*
1,1,0.0300,0.0150,0.0150*
%
%ADD23ROUNDEDRECTD23*%
%ADD24R,0.0500X0.0550*%
%ADD25R,0.0394X0.0550*%
%ADD26R,0.0472X0.0335*%
%ADD27R,0.0591X0.0354*%
%ADD28R,0.0354X0.0591*%
%ADD29R,0.0354X0.0354*%
%ADD30R,0.0945X0.1299*%
%ADD31R,0.0945X0.0394*%
%ADD32R,0.0550X0.0394*%
%ADD33R,0.0906X0.0900*%
D18*
X052782Y024606D02*
D03*
Y025512D02*
D03*
D19*
X046797Y030665D02*
D03*
D20*
Y028465D02*
D03*
D21*
X049396Y02892D02*
D03*
Y02982D02*
D03*
X050419D02*
D03*
Y02892D02*
D03*
X059372Y028394D02*
D03*
Y029294D02*
D03*
X059356Y030377D02*
D03*
Y031277D02*
D03*
D22*
X060892Y027835D02*
D03*
D23*
X062152D02*
D03*
D24*
X059373Y027598D02*
D03*
X058473D02*
D03*
X055577Y009843D02*
D03*
X054677D02*
D03*
X048274Y01269D02*
D03*
X047374D02*
D03*
X051132Y009865D02*
D03*
X052031D02*
D03*
X062168Y026811D02*
D03*
X061269D02*
D03*
D25*
X054682Y010765D02*
D03*
X055582D02*
D03*
X052032D02*
D03*
X051132D02*
D03*
X059373Y02685D02*
D03*
X058473D02*
D03*
X045474Y01269D02*
D03*
X046374D02*
D03*
D26*
X034012Y018243D02*
D03*
X03401Y017485D02*
D03*
X033028Y017857D02*
D03*
X033028Y013041D02*
D03*
X03401Y012669D02*
D03*
X034012Y013427D02*
D03*
X033028Y022568D02*
D03*
X03401Y022196D02*
D03*
X034012Y022954D02*
D03*
D27*
X055443Y019179D02*
D03*
Y019679D02*
D03*
Y020179D02*
D03*
Y020679D02*
D03*
Y021179D02*
D03*
Y021679D02*
D03*
Y022179D02*
D03*
Y022679D02*
D03*
Y023179D02*
D03*
Y023679D02*
D03*
Y024179D02*
D03*
Y024679D02*
D03*
D28*
X062435Y018484D02*
D03*
X061935D02*
D03*
X061435D02*
D03*
X060935D02*
D03*
X060435D02*
D03*
X059935D02*
D03*
X059435D02*
D03*
X058935D02*
D03*
X058435D02*
D03*
X057935D02*
D03*
X057435D02*
D03*
X056935D02*
D03*
X056435D02*
D03*
X055935D02*
D03*
Y025374D02*
D03*
X056435D02*
D03*
X056935D02*
D03*
X057435D02*
D03*
X057935D02*
D03*
X058435D02*
D03*
X058935D02*
D03*
X059435D02*
D03*
X059935D02*
D03*
X060435D02*
D03*
X060935D02*
D03*
X061435D02*
D03*
X061935D02*
D03*
X062435D02*
D03*
D29*
X059947Y021969D02*
D03*
Y02252D02*
D03*
Y023071D02*
D03*
X058844Y021969D02*
D03*
Y02252D02*
D03*
Y023071D02*
D03*
X059396Y021969D02*
D03*
Y023071D02*
D03*
Y02252D02*
D03*
D30*
X05573Y029644D02*
D03*
D31*
X058013Y03055D02*
D03*
Y029644D02*
D03*
Y028739D02*
D03*
D32*
X03312Y010989D02*
D03*
Y011889D02*
D03*
X03402Y010989D02*
D03*
Y011889D02*
D03*
X03312Y020516D02*
D03*
Y021416D02*
D03*
X03402Y020516D02*
D03*
Y021416D02*
D03*
Y015805D02*
D03*
Y016705D02*
D03*
X03312Y015805D02*
D03*
Y016705D02*
D03*
D33*
X031679Y012847D02*
D03*
Y011247D02*
D03*
Y022335D02*
D03*
Y020735D02*
D03*
Y017591D02*
D03*
Y015991D02*
D03*
M02*
