G04*
G04 #@! TF.GenerationSoftware,Altium Limited,Altium Designer,21.2.1 (34)*
G04*
G04 Layer_Physical_Order=2*
G04 Layer_Color=16711680*
%FSTAX24Y24*%
%MOIN*%
G70*
G04*
G04 #@! TF.SameCoordinates,05E74B49-6C64-4D2F-80AE-A4148A6602C0*
G04*
G04*
G04 #@! TF.FilePolarity,Positive*
G04*
G01*
G75*
%ADD15C,0.0200*%
%ADD50C,0.0700*%
%ADD61C,0.0500*%
%ADD62C,0.0300*%
%ADD63C,0.1000*%
%ADD64O,0.0750X0.0900*%
%ADD65R,0.0750X0.0900*%
%ADD66R,0.0591X0.0591*%
%ADD67C,0.0591*%
%ADD68C,0.0200*%
G04:AMPARAMS|DCode=69|XSize=137.8mil|YSize=78.7mil|CornerRadius=19.7mil|HoleSize=0mil|Usage=FLASHONLY|Rotation=90.000|XOffset=0mil|YOffset=0mil|HoleType=Round|Shape=RoundedRectangle|*
%AMROUNDEDRECTD69*
21,1,0.1378,0.0394,0,0,90.0*
21,1,0.0984,0.0787,0,0,90.0*
1,1,0.0394,0.0197,0.0492*
1,1,0.0394,0.0197,-0.0492*
1,1,0.0394,-0.0197,-0.0492*
1,1,0.0394,-0.0197,0.0492*
%
%ADD69ROUNDEDRECTD69*%
G04:AMPARAMS|DCode=70|XSize=78.7mil|YSize=78.7mil|CornerRadius=19.7mil|HoleSize=0mil|Usage=FLASHONLY|Rotation=90.000|XOffset=0mil|YOffset=0mil|HoleType=Round|Shape=RoundedRectangle|*
%AMROUNDEDRECTD70*
21,1,0.0787,0.0394,0,0,90.0*
21,1,0.0394,0.0787,0,0,90.0*
1,1,0.0394,0.0197,0.0197*
1,1,0.0394,0.0197,-0.0197*
1,1,0.0394,-0.0197,-0.0197*
1,1,0.0394,-0.0197,0.0197*
%
%ADD70ROUNDEDRECTD70*%
%ADD71C,0.1969*%
%ADD72C,0.0984*%
%ADD73O,0.0984X0.0591*%
%ADD74C,0.0500*%
G36*
X064833Y034787D02*
X064988Y03474D01*
X065131Y034664D01*
X065256Y034561D01*
X065359Y034436D01*
X065435Y034293D01*
X065482Y034138D01*
X065496Y034D01*
X065491Y033976D01*
Y026031D01*
X0629D01*
X062822Y026015D01*
X062755Y025971D01*
X062711Y025905D01*
X062696Y025827D01*
Y01811D01*
X062711Y018032D01*
X062755Y017966D01*
X062822Y017922D01*
X0629Y017906D01*
X065491D01*
Y009843D01*
X065496Y009819D01*
X065482Y009681D01*
X065435Y009526D01*
X065359Y009383D01*
X065256Y009258D01*
X065131Y009155D01*
X064988Y009079D01*
X064833Y009032D01*
X064695Y009018D01*
X064671Y009023D01*
X041049D01*
Y025041D01*
X043705D01*
X043731Y025025D01*
X043832Y024998D01*
X043936D01*
X044036Y025025D01*
X044127Y025077D01*
X0442Y025151D01*
X044252Y025241D01*
X044279Y025342D01*
Y025446D01*
X044252Y025546D01*
X0442Y025636D01*
X044127Y02571D01*
X044036Y025762D01*
X043936Y025789D01*
X043832D01*
X043731Y025762D01*
X043705Y025747D01*
X041049D01*
Y034796D01*
X064671D01*
X064695Y034801D01*
X064833Y034787D01*
D02*
G37*
%LPC*%
G36*
X053821Y033586D02*
X053697Y033569D01*
X053581Y033521D01*
X053482Y033445D01*
X053406Y033346D01*
X053402Y033337D01*
X05324D01*
X053236Y033346D01*
X05316Y033445D01*
X05306Y033521D01*
X052945Y033569D01*
X052821Y033586D01*
X052697Y033569D01*
X052581Y033521D01*
X052482Y033445D01*
X052406Y033346D01*
X052402Y033337D01*
X05224D01*
X052236Y033346D01*
X05216Y033445D01*
X05206Y033521D01*
X051945Y033569D01*
X051821Y033586D01*
X051697Y033569D01*
X051581Y033521D01*
X051482Y033445D01*
X051446Y033398D01*
X051296Y033449D01*
Y033582D01*
X050871D01*
Y033031D01*
Y032482D01*
X051296D01*
Y032614D01*
X051446Y032665D01*
X051482Y032618D01*
X051581Y032542D01*
X051697Y032494D01*
X051821Y032477D01*
X051945Y032494D01*
X05206Y032542D01*
X05216Y032618D01*
X052236Y032717D01*
X05224Y032726D01*
X052402D01*
X052406Y032717D01*
X052482Y032618D01*
X052581Y032542D01*
X052697Y032494D01*
X052821Y032477D01*
X052945Y032494D01*
X05306Y032542D01*
X05316Y032618D01*
X053236Y032717D01*
X05324Y032726D01*
X053402D01*
X053406Y032717D01*
X053482Y032618D01*
X053581Y032542D01*
X053697Y032494D01*
X053821Y032477D01*
X053945Y032494D01*
X05406Y032542D01*
X05416Y032618D01*
X054236Y032717D01*
X054284Y032833D01*
X0543Y032957D01*
Y033107D01*
X054284Y033231D01*
X054236Y033346D01*
X05416Y033445D01*
X05406Y033521D01*
X053945Y033569D01*
X053821Y033586D01*
D02*
G37*
G36*
X050771Y033582D02*
X050346D01*
Y033082D01*
X050771D01*
Y033582D01*
D02*
G37*
G36*
X043936Y032876D02*
X043934D01*
Y03253D01*
X044279D01*
Y032532D01*
X044252Y032633D01*
X0442Y032723D01*
X044127Y032797D01*
X044036Y032849D01*
X043936Y032876D01*
D02*
G37*
G36*
X043834D02*
X043832D01*
X043731Y032849D01*
X043641Y032797D01*
X043568Y032723D01*
X043516Y032633D01*
X043489Y032532D01*
Y03253D01*
X043834D01*
Y032876D01*
D02*
G37*
G36*
X050771Y032982D02*
X050346D01*
Y032482D01*
X050771D01*
Y032982D01*
D02*
G37*
G36*
X064205Y034509D02*
X064035D01*
X063866Y034483D01*
X063704Y03443D01*
X063552Y034353D01*
X063414Y034252D01*
X063293Y034132D01*
X063193Y033993D01*
X063115Y033841D01*
X063063Y033679D01*
X063036Y033511D01*
Y03334D01*
X063063Y033171D01*
X063115Y033009D01*
X063193Y032857D01*
X063293Y032719D01*
X063414Y032598D01*
X063552Y032498D01*
X063704Y03242D01*
X063866Y032368D01*
X064035Y032341D01*
X064205D01*
X064374Y032368D01*
X064536Y03242D01*
X064688Y032498D01*
X064826Y032598D01*
X064947Y032719D01*
X065047Y032857D01*
X065125Y033009D01*
X065178Y033171D01*
X065204Y03334D01*
Y033511D01*
X065178Y033679D01*
X065125Y033841D01*
X065047Y033993D01*
X064947Y034132D01*
X064826Y034252D01*
X064688Y034353D01*
X064536Y03443D01*
X064374Y034483D01*
X064205Y034509D01*
D02*
G37*
G36*
X044279Y03243D02*
X043934D01*
Y032085D01*
X043936D01*
X044036Y032112D01*
X044127Y032164D01*
X0442Y032238D01*
X044252Y032328D01*
X044279Y032428D01*
Y03243D01*
D02*
G37*
G36*
X043834D02*
X043489D01*
Y032428D01*
X043516Y032328D01*
X043568Y032238D01*
X043641Y032164D01*
X043731Y032112D01*
X043832Y032085D01*
X043834D01*
Y03243D01*
D02*
G37*
G36*
X06078Y029405D02*
X060688D01*
X060599Y029381D01*
X060519Y029335D01*
X060494Y02931D01*
X054947D01*
X054849Y029291D01*
X054767Y029235D01*
X053782Y028251D01*
X045278Y019747D01*
X045223Y019664D01*
X045204Y019567D01*
Y013941D01*
X045179Y013916D01*
X045133Y013836D01*
X045109Y013747D01*
Y013655D01*
X045133Y013566D01*
X045179Y013486D01*
X045244Y013421D01*
X045324Y013375D01*
X045413Y013351D01*
X045505D01*
X045594Y013375D01*
X045674Y013421D01*
X045739Y013486D01*
X045785Y013566D01*
X045809Y013655D01*
Y013747D01*
X045785Y013836D01*
X045739Y013916D01*
X045714Y013941D01*
Y019461D01*
X053569Y027317D01*
X053708Y02726D01*
Y014869D01*
X05331Y014472D01*
X053255Y014389D01*
X053235Y014291D01*
Y01159D01*
X051372D01*
X051346Y011615D01*
X051267Y011661D01*
X051178Y011685D01*
X051085D01*
X050996Y011661D01*
X050917Y011615D01*
X050851Y01155D01*
X050805Y01147D01*
X050782Y011381D01*
Y011289D01*
X050805Y0112D01*
X050851Y01112D01*
X050917Y011055D01*
X050996Y011009D01*
X051085Y010985D01*
X051178D01*
X051267Y011009D01*
X051346Y011055D01*
X051372Y01108D01*
X054441D01*
X054467Y011055D01*
X054546Y011009D01*
X054635Y010985D01*
X054728D01*
X054817Y011009D01*
X054896Y011055D01*
X054962Y01112D01*
X055008Y0112D01*
X055032Y011289D01*
Y011381D01*
X055008Y01147D01*
X054962Y01155D01*
X054896Y011615D01*
X054817Y011661D01*
X054728Y011685D01*
X054635D01*
X054546Y011661D01*
X054467Y011615D01*
X054441Y01159D01*
X053745D01*
Y014186D01*
X054068Y014509D01*
X057715D01*
X058275Y01395D01*
Y012958D01*
X058191Y012894D01*
X058115Y012795D01*
X058067Y012679D01*
X05805Y012555D01*
Y012405D01*
X058067Y012281D01*
X058115Y012166D01*
X058191Y012067D01*
X05829Y01199D01*
X058406Y011943D01*
X05853Y011926D01*
X058654Y011943D01*
X058769Y01199D01*
X058868Y012067D01*
X058944Y012166D01*
X058948Y012175D01*
X059111D01*
X059115Y012166D01*
X059191Y012067D01*
X05929Y01199D01*
X059406Y011943D01*
X05948Y011933D01*
Y01248D01*
Y013028D01*
X059406Y013018D01*
X05929Y01297D01*
X059191Y012894D01*
X059115Y012795D01*
X059111Y012785D01*
X058948D01*
X058944Y012795D01*
X058868Y012894D01*
X058784Y012958D01*
Y014055D01*
X058765Y014153D01*
X05871Y014235D01*
X058001Y014944D01*
X057918Y014999D01*
X057821Y015019D01*
X054218D01*
Y027965D01*
X055052Y0288D01*
X060494D01*
X060519Y028775D01*
X060599Y028729D01*
X060688Y028705D01*
X06078D01*
X060869Y028729D01*
X060949Y028775D01*
X061014Y02884D01*
X06106Y02892D01*
X061084Y029009D01*
Y029101D01*
X06106Y02919D01*
X061014Y02927D01*
X060949Y029335D01*
X060869Y029381D01*
X06078Y029405D01*
D02*
G37*
G36*
X059356Y032322D02*
X059333Y032318D01*
X05931D01*
X059288Y032313D01*
X059265Y03231D01*
X059244Y032301D01*
X059221Y032295D01*
X059201Y032283D01*
X05918Y032274D01*
X059161Y03226D01*
X059141Y032249D01*
X059125Y032232D01*
X059107Y032218D01*
X058029Y03114D01*
X053018D01*
X052926Y031128D01*
X052841Y031093D01*
X052768Y031037D01*
X05017Y028439D01*
X050156Y02842D01*
X050139Y028404D01*
X050128Y028384D01*
X050114Y028365D01*
X050105Y028344D01*
X050093Y028324D01*
X050087Y028302D01*
X050078Y02828D01*
X050075Y028257D01*
X050069Y028235D01*
Y028212D01*
X050066Y028189D01*
X050069Y028166D01*
Y028143D01*
X050075Y028121D01*
X050078Y028098D01*
X050087Y028076D01*
X050093Y028054D01*
X050105Y028034D01*
X050114Y028012D01*
X050128Y027994D01*
X050139Y027974D01*
X050156Y027958D01*
X05017Y027939D01*
X050188Y027925D01*
X050204Y027909D01*
X050224Y027897D01*
X050243Y027883D01*
X050264Y027874D01*
X050284Y027863D01*
X050307Y027857D01*
X050328Y027848D01*
X050351Y027845D01*
X050373Y027839D01*
X050396D01*
X050419Y027836D01*
X050442Y027839D01*
X050465D01*
X050488Y027845D01*
X050511Y027848D01*
X050532Y027857D01*
X050554Y027863D01*
X050574Y027874D01*
X050596Y027883D01*
X050614Y027897D01*
X050634Y027909D01*
X050651Y027925D01*
X050669Y027939D01*
X050669Y027939D01*
X053164Y030434D01*
X058175D01*
X058267Y030446D01*
X058352Y030482D01*
X058425Y030538D01*
X059606Y031719D01*
X05962Y031737D01*
X059636Y031754D01*
X059648Y031774D01*
X059662Y031792D01*
X059671Y031813D01*
X059682Y031833D01*
X059688Y031856D01*
X059697Y031877D01*
X0597Y0319D01*
X059706Y031922D01*
Y031946D01*
X059709Y031969D01*
X059706Y031991D01*
Y032015D01*
X0597Y032037D01*
X059697Y03206D01*
X059688Y032081D01*
X059682Y032104D01*
X059671Y032124D01*
X059662Y032145D01*
X059648Y032163D01*
X059636Y032183D01*
X05962Y0322D01*
X059606Y032218D01*
X059588Y032232D01*
X059571Y032249D01*
X059551Y03226D01*
X059533Y032274D01*
X059511Y032283D01*
X059491Y032295D01*
X059469Y032301D01*
X059448Y03231D01*
X059425Y032313D01*
X059402Y032318D01*
X059379D01*
X059356Y032322D01*
D02*
G37*
G36*
X05907Y023244D02*
X059019Y023222D01*
X058969Y023172D01*
X058943Y02311D01*
X058941Y023106D01*
X058899Y023016D01*
X058809Y022974D01*
X058805Y022972D01*
X058743Y022947D01*
X058693Y022897D01*
X058672Y022845D01*
X058844D01*
Y022745D01*
X058672D01*
X058693Y022694D01*
X058743Y022644D01*
X058805Y022618D01*
X058809Y022617D01*
X05882Y022611D01*
X058842Y02257D01*
Y022469D01*
X05882Y022428D01*
X058809Y022423D01*
X058805Y022421D01*
X058743Y022396D01*
X058693Y022345D01*
X058672Y022294D01*
X058844D01*
Y022194D01*
X058672D01*
X058693Y022143D01*
X058743Y022093D01*
X058805Y022067D01*
X058809Y022065D01*
X058899Y022023D01*
X058941Y021933D01*
X058943Y021929D01*
X058969Y021867D01*
X059019Y021817D01*
X05907Y021796D01*
Y021969D01*
X05917D01*
Y021796D01*
X059221Y021817D01*
X059272Y021867D01*
X059297Y021929D01*
X059299Y021933D01*
X059304Y021944D01*
X059345Y021966D01*
X059446D01*
X059487Y021944D01*
X059493Y021933D01*
X059494Y021929D01*
X05952Y021867D01*
X05957Y021817D01*
X059621Y021796D01*
Y021969D01*
X059721D01*
Y021796D01*
X059773Y021817D01*
X059823Y021867D01*
X059848Y021929D01*
X05985Y021933D01*
X059892Y022023D01*
X059982Y022065D01*
X059986Y022067D01*
X060048Y022093D01*
X060098Y022143D01*
X06012Y022194D01*
X059947D01*
Y022294D01*
X06012D01*
X060098Y022345D01*
X060048Y022396D01*
X059986Y022421D01*
X059982Y022423D01*
X059949Y022438D01*
X059949Y022601D01*
X059982Y022617D01*
X059986Y022618D01*
X060048Y022644D01*
X060098Y022694D01*
X06012Y022745D01*
X059947D01*
Y022845D01*
X06012D01*
X060098Y022897D01*
X060048Y022947D01*
X059986Y022972D01*
X059982Y022974D01*
X059892Y023016D01*
X05985Y023106D01*
X059848Y02311D01*
X059823Y023172D01*
X059773Y023222D01*
X059721Y023244D01*
Y023071D01*
X059621D01*
Y023244D01*
X05957Y023222D01*
X05952Y023172D01*
X059494Y02311D01*
X059493Y023106D01*
X059477Y023073D01*
X059314Y023073D01*
X059299Y023106D01*
X059297Y02311D01*
X059272Y023172D01*
X059221Y023222D01*
X05917Y023244D01*
Y023071D01*
X05907D01*
Y023244D01*
D02*
G37*
G36*
X052355Y02098D02*
X052263D01*
X052174Y020956D01*
X052094Y02091D01*
X052029Y020845D01*
X051983Y020765D01*
X051959Y020676D01*
Y020608D01*
X050905Y019554D01*
X050861Y019487D01*
X050845Y019409D01*
Y013305D01*
X05081Y01329D01*
X05071Y013214D01*
X050634Y013115D01*
X050586Y012999D01*
X05057Y012875D01*
Y012725D01*
X050586Y012601D01*
X050634Y012486D01*
X05071Y012387D01*
X05081Y01231D01*
X050925Y012263D01*
X051049Y012246D01*
X051173Y012263D01*
X051289Y01231D01*
X051388Y012387D01*
X051424Y012434D01*
X051574Y012383D01*
Y01225D01*
X052524D01*
Y01335D01*
X051574D01*
Y013218D01*
X051424Y013167D01*
X051388Y013214D01*
X051289Y01329D01*
X051253Y013305D01*
Y019325D01*
X05222Y020292D01*
X052263Y02028D01*
X052355D01*
X052444Y020304D01*
X052524Y02035D01*
X052589Y020415D01*
X052635Y020495D01*
X052659Y020584D01*
Y020676D01*
X052635Y020765D01*
X052589Y020845D01*
X052524Y02091D01*
X052444Y020956D01*
X052355Y02098D01*
D02*
G37*
G36*
X056068Y01335D02*
X055118D01*
Y013218D01*
X054968Y013167D01*
X054931Y013214D01*
X054832Y01329D01*
X054717Y013338D01*
X054643Y013348D01*
Y0128D01*
Y012253D01*
X054717Y012263D01*
X054832Y01231D01*
X054931Y012387D01*
X054968Y012434D01*
X055118Y012383D01*
Y01225D01*
X056068D01*
Y01335D01*
D02*
G37*
G36*
X054543Y013348D02*
X054469Y013338D01*
X054353Y01329D01*
X054254Y013214D01*
X054178Y013115D01*
X05413Y012999D01*
X054113Y012875D01*
Y01285D01*
X054543D01*
Y013348D01*
D02*
G37*
G36*
X06053Y013034D02*
X060406Y013018D01*
X06029Y01297D01*
X060191Y012894D01*
X060115Y012795D01*
X060111Y012785D01*
X059948D01*
X059944Y012795D01*
X059868Y012894D01*
X059769Y01297D01*
X059654Y013018D01*
X05958Y013028D01*
Y01248D01*
Y011933D01*
X059654Y011943D01*
X059769Y01199D01*
X059868Y012067D01*
X059944Y012166D01*
X059948Y012175D01*
X060111D01*
X060115Y012166D01*
X060191Y012067D01*
X06029Y01199D01*
X060406Y011943D01*
X06053Y011926D01*
X060654Y011943D01*
X060769Y01199D01*
X060868Y012067D01*
X060905Y012114D01*
X061055Y012063D01*
Y01193D01*
X062005D01*
Y01303D01*
X061055D01*
Y012898D01*
X060905Y012847D01*
X060868Y012894D01*
X060769Y01297D01*
X060654Y013018D01*
X06053Y013034D01*
D02*
G37*
G36*
X054543Y01275D02*
X054113D01*
Y012725D01*
X05413Y012601D01*
X054178Y012486D01*
X054254Y012387D01*
X054353Y01231D01*
X054469Y012263D01*
X054543Y012253D01*
Y01275D01*
D02*
G37*
G36*
X048041Y012037D02*
X047924D01*
X04781Y012014D01*
X047702Y01197D01*
X047605Y011905D01*
X047523Y011822D01*
X047458Y011725D01*
X047413Y011618D01*
X047391Y011503D01*
Y011387D01*
X047413Y011272D01*
X047458Y011164D01*
X047523Y011067D01*
X047581Y011009D01*
X047559Y010914D01*
X047523Y010859D01*
X047313D01*
X04721Y010846D01*
X047114Y010806D01*
X047031Y010743D01*
X046968Y01066D01*
X046928Y010564D01*
X046921Y010511D01*
X048099D01*
X048092Y010564D01*
X048052Y01066D01*
X04802Y010703D01*
X048029Y010768D01*
X048052Y010824D01*
X048081Y010861D01*
X048155Y010875D01*
X048263Y01092D01*
X04836Y010985D01*
X048443Y011067D01*
X048507Y011164D01*
X048552Y011272D01*
X048575Y011387D01*
Y011503D01*
X048552Y011618D01*
X048507Y011725D01*
X048443Y011822D01*
X04836Y011905D01*
X048263Y01197D01*
X048155Y012014D01*
X048041Y012037D01*
D02*
G37*
G36*
X048099Y010411D02*
X04756D01*
Y010062D01*
X047707D01*
X04781Y010076D01*
X047906Y010115D01*
X047989Y010179D01*
X048052Y010261D01*
X048092Y010357D01*
X048099Y010411D01*
D02*
G37*
G36*
X04746D02*
X046921D01*
X046928Y010357D01*
X046968Y010261D01*
X047031Y010179D01*
X047114Y010115D01*
X04721Y010076D01*
X047313Y010062D01*
X04746D01*
Y010411D01*
D02*
G37*
G36*
X045325Y012037D02*
X045208D01*
X045093Y012014D01*
X044986Y01197D01*
X044889Y011905D01*
X044806Y011822D01*
X044741Y011725D01*
X044697Y011618D01*
X044674Y011503D01*
Y011387D01*
X044697Y011272D01*
X044741Y011164D01*
X044806Y011067D01*
X044889Y010985D01*
X044986Y01092D01*
X045093Y010875D01*
X045168Y010861D01*
X045197Y010824D01*
X04522Y010768D01*
X045229Y010703D01*
X045196Y01066D01*
X045157Y010564D01*
X045143Y010461D01*
X045157Y010357D01*
X045196Y010261D01*
X04526Y010179D01*
X045342Y010115D01*
X045439Y010076D01*
X045542Y010062D01*
X045935D01*
X046039Y010076D01*
X046135Y010115D01*
X046217Y010179D01*
X046281Y010261D01*
X046321Y010357D01*
X046334Y010461D01*
X046321Y010564D01*
X046281Y01066D01*
X046217Y010743D01*
X046135Y010806D01*
X046039Y010846D01*
X045935Y010859D01*
X045726D01*
X04569Y010914D01*
X045668Y011009D01*
X045726Y011067D01*
X045791Y011164D01*
X045836Y011272D01*
X045858Y011387D01*
Y011503D01*
X045836Y011618D01*
X045791Y011725D01*
X045726Y011822D01*
X045644Y011905D01*
X045547Y01197D01*
X045439Y012014D01*
X045325Y012037D01*
D02*
G37*
G36*
X064205Y011478D02*
X064035D01*
X063866Y011451D01*
X063704Y011399D01*
X063552Y011321D01*
X063414Y011221D01*
X063293Y0111D01*
X063193Y010962D01*
X063115Y01081D01*
X063063Y010648D01*
X063036Y010479D01*
Y010308D01*
X063063Y01014D01*
X063115Y009977D01*
X063193Y009825D01*
X063293Y009687D01*
X063414Y009567D01*
X063552Y009466D01*
X063704Y009389D01*
X063866Y009336D01*
X064035Y009309D01*
X064205D01*
X064374Y009336D01*
X064536Y009389D01*
X064688Y009466D01*
X064826Y009567D01*
X064947Y009687D01*
X065047Y009825D01*
X065125Y009977D01*
X065178Y01014D01*
X065204Y010308D01*
Y010479D01*
X065178Y010648D01*
X065125Y01081D01*
X065047Y010962D01*
X064947Y0111D01*
X064826Y011221D01*
X064688Y011321D01*
X064536Y011399D01*
X064374Y011451D01*
X064205Y011478D01*
D02*
G37*
%LPD*%
D15*
X05227Y02063D02*
X052309D01*
X051049Y019409D02*
X05227Y02063D01*
X051049Y0128D02*
Y019409D01*
D50*
X023758Y02027D02*
Y020565D01*
X021404Y013281D02*
X023608Y011077D01*
X024758Y013578D02*
X024802Y013622D01*
X025537D01*
X02601Y014094D01*
X024758Y02277D02*
X02601Y021518D01*
X024758Y01834D02*
X025964D01*
X02601Y018386D01*
Y014094D02*
Y018386D01*
Y021518D01*
X024758Y02277D02*
Y023065D01*
X021404Y02277D02*
X021553D01*
X021404D02*
X023608Y020565D01*
X021404Y018045D02*
X023608Y01584D01*
X024758Y013577D02*
Y013578D01*
D61*
X050419Y028189D02*
X053018Y030787D01*
X058175D02*
X059356Y031969D01*
X053018Y030787D02*
X058175D01*
X050419Y028189D02*
Y028189D01*
X029758Y020171D02*
X029902Y020315D01*
X029907D02*
X034986Y025394D01*
X043884D01*
X029902Y020315D02*
X029907D01*
D62*
X053963Y014764D02*
Y028071D01*
Y014764D02*
Y014764D01*
X045459Y013701D02*
Y019567D01*
X053963Y028071D01*
X039839Y013888D02*
X044317Y009409D01*
X034012Y013888D02*
X039839D01*
X044317Y009409D02*
X046262D01*
X047313Y010461D01*
X04751D01*
X053963Y014764D02*
X057821D01*
X05349Y011335D02*
X054682D01*
X051132D02*
X05349D01*
Y014291D01*
X053963Y014764D01*
X034016Y018707D02*
Y020051D01*
X034012Y018704D02*
X034016Y018707D01*
Y020051D02*
X03402Y020055D01*
X034012Y013888D02*
X034016Y013892D01*
Y01534D02*
X03402Y015344D01*
X034016Y013892D02*
Y01534D01*
X057821Y014764D02*
X05853Y014055D01*
Y01248D02*
Y014055D01*
X053963Y028071D02*
X054947Y029055D01*
X060734D01*
D63*
X024758Y023147D02*
X028096Y026486D01*
Y026654D01*
X03007D01*
X030656Y027239D01*
X028096Y030787D02*
X028282Y030602D01*
X024758Y023065D02*
Y023147D01*
X030656Y027239D02*
Y027756D01*
X028282Y030602D02*
X030172D01*
X030656Y030118D01*
D64*
X054593Y0128D02*
D03*
X051049Y0128D02*
D03*
X051821Y033031D02*
D03*
X052821D02*
D03*
X053821D02*
D03*
X06053Y01248D02*
D03*
X05953D02*
D03*
X05853D02*
D03*
D65*
X055593Y0128D02*
D03*
X052049Y0128D02*
D03*
X050821Y033031D02*
D03*
X06153Y01248D02*
D03*
D66*
X030656Y030118D02*
D03*
D67*
Y027756D02*
D03*
X043884Y03248D02*
D03*
Y025394D02*
D03*
D68*
X023136Y011575D02*
D03*
X022663Y012047D02*
D03*
X02227Y012402D02*
D03*
X023175Y021024D02*
D03*
X022821Y021417D02*
D03*
X022348Y021811D02*
D03*
X023215Y01622D02*
D03*
X022742Y016614D02*
D03*
X022348Y017047D02*
D03*
X025498Y013622D02*
D03*
X02597Y014094D02*
D03*
X02601Y014921D02*
D03*
Y016299D02*
D03*
X026049Y017283D02*
D03*
X02601Y018543D02*
D03*
Y019094D02*
D03*
Y019803D02*
D03*
X02597Y020787D02*
D03*
X025892Y021614D02*
D03*
X02538Y022165D02*
D03*
Y023858D02*
D03*
X025774Y024173D02*
D03*
X026128Y024606D02*
D03*
X026679Y025118D02*
D03*
X027152Y025551D02*
D03*
X029435Y026693D02*
D03*
X029907D02*
D03*
X030301Y02689D02*
D03*
X030616Y027205D02*
D03*
X03038Y030354D02*
D03*
X030065Y030512D02*
D03*
X029671Y030551D02*
D03*
X029317D02*
D03*
X058844Y022244D02*
D03*
Y022795D02*
D03*
X059396Y022244D02*
D03*
Y022795D02*
D03*
X059947Y022244D02*
D03*
Y022795D02*
D03*
X05912Y021969D02*
D03*
Y02252D02*
D03*
Y023071D02*
D03*
X059671Y021969D02*
D03*
Y023071D02*
D03*
Y02252D02*
D03*
X0648Y0312D02*
D03*
Y0288D02*
D03*
Y0264D02*
D03*
Y0168D02*
D03*
Y0144D02*
D03*
Y012D02*
D03*
X0636Y0312D02*
D03*
X0642Y03D02*
D03*
X0636Y0288D02*
D03*
X0642Y0276D02*
D03*
X0636Y0264D02*
D03*
Y0168D02*
D03*
X0642Y0156D02*
D03*
X0636Y0144D02*
D03*
X0642Y0132D02*
D03*
X0636Y012D02*
D03*
X0624Y0336D02*
D03*
X063Y0324D02*
D03*
X0624Y0312D02*
D03*
X063Y03D02*
D03*
X0624Y0288D02*
D03*
X063Y0276D02*
D03*
X0624Y024D02*
D03*
Y0216D02*
D03*
Y0192D02*
D03*
Y0168D02*
D03*
X063Y0156D02*
D03*
X0624Y0144D02*
D03*
X063Y0132D02*
D03*
X0624Y012D02*
D03*
X063Y0108D02*
D03*
X0624Y0096D02*
D03*
X0612Y0336D02*
D03*
X0618Y0324D02*
D03*
X0612Y0312D02*
D03*
X0618Y03D02*
D03*
X0612Y024D02*
D03*
X0618Y0228D02*
D03*
X0612Y0216D02*
D03*
X0618Y0204D02*
D03*
X0612Y0192D02*
D03*
X0618Y0156D02*
D03*
Y0108D02*
D03*
X0612Y0096D02*
D03*
X06Y0336D02*
D03*
X0606Y0324D02*
D03*
X06Y0312D02*
D03*
X0606Y03D02*
D03*
X06Y024D02*
D03*
X0606Y0228D02*
D03*
Y0204D02*
D03*
X06Y0192D02*
D03*
Y0168D02*
D03*
Y0144D02*
D03*
Y012D02*
D03*
X0606Y0108D02*
D03*
X06Y0096D02*
D03*
X0588Y0336D02*
D03*
Y024D02*
D03*
X0594Y0204D02*
D03*
X0588Y0192D02*
D03*
Y0168D02*
D03*
X0594Y0156D02*
D03*
X0588Y0144D02*
D03*
X0594Y0132D02*
D03*
Y0108D02*
D03*
X0588Y0096D02*
D03*
X0576Y0336D02*
D03*
X0582Y0324D02*
D03*
X0576Y024D02*
D03*
X0582Y0228D02*
D03*
X0576Y0216D02*
D03*
X0582Y0204D02*
D03*
X0576Y0192D02*
D03*
Y0168D02*
D03*
X0582Y0156D02*
D03*
X0576Y0144D02*
D03*
Y012D02*
D03*
X0582Y0108D02*
D03*
X0576Y0096D02*
D03*
X0564Y0336D02*
D03*
X057Y0324D02*
D03*
X0564Y0264D02*
D03*
Y024D02*
D03*
X057Y0228D02*
D03*
X0564Y0216D02*
D03*
X057Y0204D02*
D03*
X0564Y0192D02*
D03*
Y0168D02*
D03*
X057Y0156D02*
D03*
X0564Y0144D02*
D03*
X057Y0132D02*
D03*
X0564Y012D02*
D03*
X057Y0108D02*
D03*
X0564Y0096D02*
D03*
X0552Y0336D02*
D03*
X0558Y0324D02*
D03*
X0552Y0168D02*
D03*
X0558Y0156D02*
D03*
X0552Y0144D02*
D03*
Y012D02*
D03*
X0546Y0324D02*
D03*
Y03D02*
D03*
Y0228D02*
D03*
Y018D02*
D03*
Y0156D02*
D03*
X054Y012D02*
D03*
Y0096D02*
D03*
X0528Y0264D02*
D03*
X0534Y0252D02*
D03*
X0528Y024D02*
D03*
X0534Y0228D02*
D03*
X0528Y0192D02*
D03*
X0534Y018D02*
D03*
X0528Y0168D02*
D03*
X0534Y0156D02*
D03*
X0528Y0144D02*
D03*
Y012D02*
D03*
X0534Y0108D02*
D03*
X0528Y0096D02*
D03*
X0522Y0276D02*
D03*
X0516Y0264D02*
D03*
X0522Y0252D02*
D03*
X0516Y024D02*
D03*
X0522Y0228D02*
D03*
X0516Y0192D02*
D03*
X0522Y018D02*
D03*
X0516Y0168D02*
D03*
X0522Y0156D02*
D03*
X0516Y0144D02*
D03*
Y012D02*
D03*
X0504Y0312D02*
D03*
X051Y03D02*
D03*
Y0276D02*
D03*
X0504Y0264D02*
D03*
Y024D02*
D03*
X051Y0228D02*
D03*
Y0204D02*
D03*
X0504Y0192D02*
D03*
Y0168D02*
D03*
Y0144D02*
D03*
Y012D02*
D03*
X0492Y0336D02*
D03*
X0498Y0324D02*
D03*
X0492Y0312D02*
D03*
X0498Y0276D02*
D03*
X0492Y0264D02*
D03*
X0498Y0252D02*
D03*
X0492Y024D02*
D03*
X0498Y0228D02*
D03*
Y0204D02*
D03*
X0492Y0192D02*
D03*
X0498Y0156D02*
D03*
X0492Y0144D02*
D03*
X0498Y0132D02*
D03*
X0492Y012D02*
D03*
X0498Y0108D02*
D03*
X0492Y0096D02*
D03*
X048Y0336D02*
D03*
X0486Y0324D02*
D03*
X048Y0312D02*
D03*
X0486Y03D02*
D03*
Y0276D02*
D03*
X048Y0264D02*
D03*
X0486Y0252D02*
D03*
X048Y024D02*
D03*
X0486Y0204D02*
D03*
X048Y0192D02*
D03*
X0486Y018D02*
D03*
X048Y0168D02*
D03*
X0486Y0156D02*
D03*
X048Y0144D02*
D03*
X0486Y0132D02*
D03*
Y0108D02*
D03*
X048Y0096D02*
D03*
X0468Y0336D02*
D03*
X0474Y0324D02*
D03*
Y03D02*
D03*
Y0276D02*
D03*
Y0252D02*
D03*
X0468Y024D02*
D03*
X0474Y0228D02*
D03*
Y0204D02*
D03*
X0468Y0192D02*
D03*
X0474Y018D02*
D03*
X0468Y0168D02*
D03*
Y0144D02*
D03*
Y012D02*
D03*
Y0096D02*
D03*
X0456Y0336D02*
D03*
X0462Y0324D02*
D03*
X0456Y0312D02*
D03*
X0462Y03D02*
D03*
X0456Y0288D02*
D03*
X0462Y0276D02*
D03*
X0456Y0264D02*
D03*
X0462Y0252D02*
D03*
X0456Y024D02*
D03*
X0462Y0228D02*
D03*
Y018D02*
D03*
Y0156D02*
D03*
Y0132D02*
D03*
X0456Y0096D02*
D03*
X0444Y0336D02*
D03*
X045Y0324D02*
D03*
X0444Y0312D02*
D03*
X045Y03D02*
D03*
X0444Y0288D02*
D03*
X045Y0276D02*
D03*
X0444Y0264D02*
D03*
Y024D02*
D03*
X045Y0228D02*
D03*
Y0204D02*
D03*
X0444Y0192D02*
D03*
X045Y018D02*
D03*
X0444Y0168D02*
D03*
X045Y0156D02*
D03*
X0444Y0144D02*
D03*
X045Y0132D02*
D03*
X0444Y012D02*
D03*
X045Y0108D02*
D03*
X0444Y0096D02*
D03*
X0432Y0336D02*
D03*
Y0312D02*
D03*
X0438Y03D02*
D03*
X0432Y0288D02*
D03*
X0438Y0276D02*
D03*
X0432Y0264D02*
D03*
Y024D02*
D03*
X0438Y0228D02*
D03*
X0432Y0216D02*
D03*
X0438Y018D02*
D03*
X0432Y0168D02*
D03*
X0438Y0156D02*
D03*
X0432Y0144D02*
D03*
X0438Y0132D02*
D03*
X0432Y012D02*
D03*
X0438Y0108D02*
D03*
X0432Y0096D02*
D03*
X042Y0336D02*
D03*
X0426Y0324D02*
D03*
X042Y0312D02*
D03*
X0426Y03D02*
D03*
X042Y0288D02*
D03*
X0426Y0276D02*
D03*
X042Y0264D02*
D03*
Y024D02*
D03*
X0426Y0228D02*
D03*
X042Y0216D02*
D03*
X0426Y018D02*
D03*
X042Y0168D02*
D03*
X0426Y0156D02*
D03*
X042Y0144D02*
D03*
X0426Y0132D02*
D03*
X042Y012D02*
D03*
X0426Y0108D02*
D03*
X042Y0096D02*
D03*
D69*
X024758Y023065D02*
D03*
X023758Y02027D02*
D03*
X024758Y01834D02*
D03*
X023758Y015545D02*
D03*
X024758Y013577D02*
D03*
X023758Y010781D02*
D03*
D70*
X029758Y020171D02*
D03*
Y023163D02*
D03*
Y015447D02*
D03*
Y018439D02*
D03*
Y010683D02*
D03*
Y013675D02*
D03*
D71*
X021404Y02277D02*
D03*
Y018045D02*
D03*
Y013281D02*
D03*
X028096Y030787D02*
D03*
Y026654D02*
D03*
X06412Y010394D02*
D03*
Y033425D02*
D03*
X021325Y033425D02*
D03*
Y010394D02*
D03*
D72*
X045266Y011445D02*
D03*
X047983D02*
D03*
D73*
X04751Y010461D02*
D03*
X045739D02*
D03*
D74*
X045459Y013701D02*
D03*
X03402Y015344D02*
D03*
Y020055D02*
D03*
X034012Y018704D02*
D03*
X034012Y013888D02*
D03*
X060734Y029055D02*
D03*
X059356Y031969D02*
D03*
X050419Y028189D02*
D03*
X052309Y02063D02*
D03*
X054682Y011335D02*
D03*
X051132D02*
D03*
M02*
