G04*
G04 #@! TF.GenerationSoftware,Altium Limited,Altium Designer,21.2.1 (34)*
G04*
G04 Layer_Color=2752767*
%FSTAX24Y24*%
%MOIN*%
G70*
G04*
G04 #@! TF.SameCoordinates,05E74B49-6C64-4D2F-80AE-A4148A6602C0*
G04*
G04*
G04 #@! TF.FilePolarity,Positive*
G04*
G01*
G75*
%ADD75C,0.0020*%
%ADD76C,0.0027*%
%ADD77C,0.0013*%
D75*
X054513Y01272D02*
Y01288D01*
X054673D01*
Y01272D01*
X054513D01*
X055513D02*
Y01288D01*
X055673D01*
Y01272D01*
X055513D01*
X050969Y01272D02*
Y01288D01*
X051129D01*
Y01272D01*
X050969D01*
X051969D02*
Y01288D01*
X052129D01*
Y01272D01*
X051969D01*
X050741Y032952D02*
Y033112D01*
X050901D01*
Y032952D01*
X050741D01*
X051741D02*
Y033112D01*
X051901D01*
Y032952D01*
X051741D01*
X052741D02*
Y033112D01*
X052901D01*
Y032952D01*
X052741D01*
X053741D02*
Y033112D01*
X053901D01*
Y032952D01*
X053741D01*
X06145Y0124D02*
Y01256D01*
X06161D01*
Y0124D01*
X06145D01*
X06045D02*
Y01256D01*
X06061D01*
Y0124D01*
X06045D01*
X05945D02*
Y01256D01*
X05961D01*
Y0124D01*
X05945D01*
X05845D02*
Y01256D01*
X05861D01*
Y0124D01*
X05845D01*
X023136Y011495D02*
X023056Y011655D01*
X023216D01*
X023136Y011495D01*
X022663Y011967D02*
X022583Y012127D01*
X022743D01*
X022663Y011967D01*
X02227Y012322D02*
X02219Y012482D01*
X02235D01*
X02227Y012322D01*
X023175Y020944D02*
X023095Y021104D01*
X023255D01*
X023175Y020944D01*
X022821Y021337D02*
X022741Y021497D01*
X022901D01*
X022821Y021337D01*
X022348Y021731D02*
X022268Y021891D01*
X022428D01*
X022348Y021731D01*
X023215Y01614D02*
X023135Y0163D01*
X023295D01*
X023215Y01614D01*
X022742Y016534D02*
X022662Y016694D01*
X022822D01*
X022742Y016534D01*
X022348Y016967D02*
X022268Y017127D01*
X022428D01*
X022348Y016967D01*
X025498Y013542D02*
X025418Y013702D01*
X025578D01*
X025498Y013542D01*
X02597Y014014D02*
X02589Y014174D01*
X02605D01*
X02597Y014014D01*
X02601Y014841D02*
X02593Y015001D01*
X02609D01*
X02601Y014841D01*
Y016219D02*
X02593Y016379D01*
X02609D01*
X02601Y016219D01*
X026049Y017203D02*
X025969Y017363D01*
X026129D01*
X026049Y017203D01*
X02601Y018463D02*
X02593Y018623D01*
X02609D01*
X02601Y018463D01*
Y019014D02*
X02593Y019174D01*
X02609D01*
X02601Y019014D01*
Y019723D02*
X02593Y019883D01*
X02609D01*
X02601Y019723D01*
X02597Y020707D02*
X02589Y020867D01*
X02605D01*
X02597Y020707D01*
X025892Y021534D02*
X025812Y021694D01*
X025972D01*
X025892Y021534D01*
X02538Y022085D02*
X0253Y022245D01*
X02546D01*
X02538Y022085D01*
Y023778D02*
X0253Y023938D01*
X02546D01*
X02538Y023778D01*
X025774Y024093D02*
X025694Y024253D01*
X025854D01*
X025774Y024093D01*
X026128Y024526D02*
X026048Y024686D01*
X026208D01*
X026128Y024526D01*
X026679Y025038D02*
X026599Y025198D01*
X026759D01*
X026679Y025038D01*
X027152Y025471D02*
X027072Y025631D01*
X027232D01*
X027152Y025471D01*
X029435Y026613D02*
X029355Y026773D01*
X029515D01*
X029435Y026613D01*
X029907D02*
X029827Y026773D01*
X029987D01*
X029907Y026613D01*
X030301Y02681D02*
X030221Y02697D01*
X030381D01*
X030301Y02681D01*
X030616Y027125D02*
X030536Y027285D01*
X030696D01*
X030616Y027125D01*
X03038Y030274D02*
X0303Y030434D01*
X03046D01*
X03038Y030274D01*
X030065Y030432D02*
X029985Y030592D01*
X030145D01*
X030065Y030432D01*
X029671Y030471D02*
X029591Y030631D01*
X029751D01*
X029671Y030471D01*
X029317D02*
X029237Y030631D01*
X029397D01*
X029317Y030471D01*
X024758Y022985D02*
X024798Y023025D01*
X024838D01*
X024798Y023065D01*
X024838Y023105D01*
X024798D01*
X024758Y023145D01*
X024718Y023105D01*
X024678D01*
X024718Y023065D01*
X024678Y023025D01*
X024718D01*
X024758Y022985D01*
X023758Y02019D02*
X023798Y02023D01*
X023838D01*
X023798Y02027D01*
X023838Y02031D01*
X023798D01*
X023758Y02035D01*
X023718Y02031D01*
X023678D01*
X023718Y02027D01*
X023678Y02023D01*
X023718D01*
X023758Y02019D01*
X021324Y02269D02*
X021364Y02277D01*
X021324Y02285D01*
X021404Y02281D01*
X021484Y02285D01*
X021444Y02277D01*
X021484Y02269D01*
X021404Y02273D01*
X021324Y02269D01*
X024758Y01826D02*
X024798Y0183D01*
X024838D01*
X024798Y01834D01*
X024838Y01838D01*
X024798D01*
X024758Y01842D01*
X024718Y01838D01*
X024678D01*
X024718Y01834D01*
X024678Y0183D01*
X024718D01*
X024758Y01826D01*
X023758Y015465D02*
X023798Y015505D01*
X023838D01*
X023798Y015545D01*
X023838Y015585D01*
X023798D01*
X023758Y015625D01*
X023718Y015585D01*
X023678D01*
X023718Y015545D01*
X023678Y015505D01*
X023718D01*
X023758Y015465D01*
X024758Y013497D02*
X024798Y013537D01*
X024838D01*
X024798Y013577D01*
X024838Y013617D01*
X024798D01*
X024758Y013657D01*
X024718Y013617D01*
X024678D01*
X024718Y013577D01*
X024678Y013537D01*
X024718D01*
X024758Y013497D01*
X023758Y010701D02*
X023798Y010741D01*
X023838D01*
X023798Y010781D01*
X023838Y010821D01*
X023798D01*
X023758Y010861D01*
X023718Y010821D01*
X023678D01*
X023718Y010781D01*
X023678Y010741D01*
X023718D01*
X023758Y010701D01*
X058844Y022164D02*
X058764Y022324D01*
X058924D01*
X058844Y022164D01*
Y022715D02*
X058764Y022875D01*
X058924D01*
X058844Y022715D01*
X059396Y022164D02*
X059316Y022324D01*
X059476D01*
X059396Y022164D01*
Y022715D02*
X059316Y022875D01*
X059476D01*
X059396Y022715D01*
X059947Y022164D02*
X059867Y022324D01*
X060027D01*
X059947Y022164D01*
Y022715D02*
X059867Y022875D01*
X060027D01*
X059947Y022715D01*
X05912Y021888D02*
X05904Y022048D01*
X0592D01*
X05912Y021888D01*
Y02244D02*
X05904Y0226D01*
X0592D01*
X05912Y02244D01*
Y022991D02*
X05904Y023151D01*
X0592D01*
X05912Y022991D01*
X059671Y021888D02*
X059591Y022048D01*
X059751D01*
X059671Y021888D01*
Y022991D02*
X059591Y023151D01*
X059751D01*
X059671Y022991D01*
Y02244D02*
X059591Y0226D01*
X059751D01*
X059671Y02244D01*
X021324Y017965D02*
X021364Y018045D01*
X021324Y018125D01*
X021404Y018085D01*
X021484Y018125D01*
X021444Y018045D01*
X021484Y017965D01*
X021404Y018005D01*
X021324Y017965D01*
Y013201D02*
X021364Y013281D01*
X021324Y013361D01*
X021404Y013321D01*
X021484Y013361D01*
X021444Y013281D01*
X021484Y013201D01*
X021404Y013241D01*
X021324Y013201D01*
X028016Y030707D02*
X028056Y030787D01*
X028016Y030867D01*
X028096Y030827D01*
X028176Y030867D01*
X028136Y030787D01*
X028176Y030707D01*
X028096Y030747D01*
X028016Y030707D01*
Y026574D02*
X028056Y026654D01*
X028016Y026734D01*
X028096Y026694D01*
X028176Y026734D01*
X028136Y026654D01*
X028176Y026574D01*
X028096Y026614D01*
X028016Y026574D01*
X045226Y011405D02*
Y011365D01*
X045306D01*
Y011405D01*
X045346D01*
Y011485D01*
X045306D01*
Y011525D01*
X045226D01*
Y011485D01*
X045186D01*
Y011405D01*
X045226D01*
X047943D02*
Y011365D01*
X048023D01*
Y011405D01*
X048063D01*
Y011485D01*
X048023D01*
Y011525D01*
X047943D01*
Y011485D01*
X047903D01*
Y011405D01*
X047943D01*
X04743Y010381D02*
X04747D01*
X04751Y010421D01*
X04755Y010381D01*
X04759D01*
Y010421D01*
X04755Y010461D01*
X04759Y010501D01*
Y010541D01*
X04755D01*
X04751Y010501D01*
X04747Y010541D01*
X04743D01*
Y010501D01*
X04747Y010461D01*
X04743Y010421D01*
Y010381D01*
X045659D02*
X045699D01*
X045739Y010421D01*
X045779Y010381D01*
X045819D01*
Y010421D01*
X045779Y010461D01*
X045819Y010501D01*
Y010541D01*
X045779D01*
X045739Y010501D01*
X045699Y010541D01*
X045659D01*
Y010501D01*
X045699Y010461D01*
X045659Y010421D01*
Y010381D01*
X06404Y010394D02*
X06412Y010474D01*
X0642Y010394D01*
X06412Y010314D01*
X06404Y010394D01*
Y033425D02*
X06412Y033505D01*
X0642Y033425D01*
X06412Y033345D01*
X06404Y033425D01*
X021245Y033425D02*
X021325Y033505D01*
X021405Y033425D01*
X021325Y033345D01*
X021245Y033425D01*
Y010394D02*
X021325Y010474D01*
X021405Y010394D01*
X021325Y010314D01*
X021245Y010394D01*
X06472Y03112D02*
Y03128D01*
X06488D01*
Y03112D01*
X06472D01*
X06476Y03116D02*
Y03124D01*
X06484D01*
Y03116D01*
X06476D01*
X06472Y02872D02*
Y02888D01*
X06488D01*
Y02872D01*
X06472D01*
X06476Y02876D02*
Y02884D01*
X06484D01*
Y02876D01*
X06476D01*
X06472Y02632D02*
Y02648D01*
X06488D01*
Y02632D01*
X06472D01*
X06476Y02636D02*
Y02644D01*
X06484D01*
Y02636D01*
X06476D01*
X06472Y01672D02*
Y01688D01*
X06488D01*
Y01672D01*
X06472D01*
X06476Y01676D02*
Y01684D01*
X06484D01*
Y01676D01*
X06476D01*
X06472Y01432D02*
Y01448D01*
X06488D01*
Y01432D01*
X06472D01*
X06476Y01436D02*
Y01444D01*
X06484D01*
Y01436D01*
X06476D01*
X06472Y01192D02*
Y01208D01*
X06488D01*
Y01192D01*
X06472D01*
X06476Y01196D02*
Y01204D01*
X06484D01*
Y01196D01*
X06476D01*
X06352Y03112D02*
Y03128D01*
X06368D01*
Y03112D01*
X06352D01*
X06356Y03116D02*
Y03124D01*
X06364D01*
Y03116D01*
X06356D01*
X06412Y02992D02*
Y03008D01*
X06428D01*
Y02992D01*
X06412D01*
X06416Y02996D02*
Y03004D01*
X06424D01*
Y02996D01*
X06416D01*
X06352Y02872D02*
Y02888D01*
X06368D01*
Y02872D01*
X06352D01*
X06356Y02876D02*
Y02884D01*
X06364D01*
Y02876D01*
X06356D01*
X06412Y02752D02*
Y02768D01*
X06428D01*
Y02752D01*
X06412D01*
X06416Y02756D02*
Y02764D01*
X06424D01*
Y02756D01*
X06416D01*
X06352Y02632D02*
Y02648D01*
X06368D01*
Y02632D01*
X06352D01*
X06356Y02636D02*
Y02644D01*
X06364D01*
Y02636D01*
X06356D01*
X06352Y01672D02*
Y01688D01*
X06368D01*
Y01672D01*
X06352D01*
X06356Y01676D02*
Y01684D01*
X06364D01*
Y01676D01*
X06356D01*
X06412Y01552D02*
Y01568D01*
X06428D01*
Y01552D01*
X06412D01*
X06416Y01556D02*
Y01564D01*
X06424D01*
Y01556D01*
X06416D01*
X06352Y01432D02*
Y01448D01*
X06368D01*
Y01432D01*
X06352D01*
X06356Y01436D02*
Y01444D01*
X06364D01*
Y01436D01*
X06356D01*
X06412Y01312D02*
Y01328D01*
X06428D01*
Y01312D01*
X06412D01*
X06416Y01316D02*
Y01324D01*
X06424D01*
Y01316D01*
X06416D01*
X06352Y01192D02*
Y01208D01*
X06368D01*
Y01192D01*
X06352D01*
X06356Y01196D02*
Y01204D01*
X06364D01*
Y01196D01*
X06356D01*
X06232Y03352D02*
Y03368D01*
X06248D01*
Y03352D01*
X06232D01*
X06236Y03356D02*
Y03364D01*
X06244D01*
Y03356D01*
X06236D01*
X06292Y03232D02*
Y03248D01*
X06308D01*
Y03232D01*
X06292D01*
X06296Y03236D02*
Y03244D01*
X06304D01*
Y03236D01*
X06296D01*
X06232Y03112D02*
Y03128D01*
X06248D01*
Y03112D01*
X06232D01*
X06236Y03116D02*
Y03124D01*
X06244D01*
Y03116D01*
X06236D01*
X06292Y02992D02*
Y03008D01*
X06308D01*
Y02992D01*
X06292D01*
X06296Y02996D02*
Y03004D01*
X06304D01*
Y02996D01*
X06296D01*
X06232Y02872D02*
Y02888D01*
X06248D01*
Y02872D01*
X06232D01*
X06236Y02876D02*
Y02884D01*
X06244D01*
Y02876D01*
X06236D01*
X06292Y02752D02*
Y02768D01*
X06308D01*
Y02752D01*
X06292D01*
X06296Y02756D02*
Y02764D01*
X06304D01*
Y02756D01*
X06296D01*
X06232Y02392D02*
Y02408D01*
X06248D01*
Y02392D01*
X06232D01*
X06236Y02396D02*
Y02404D01*
X06244D01*
Y02396D01*
X06236D01*
X06232Y02152D02*
Y02168D01*
X06248D01*
Y02152D01*
X06232D01*
X06236Y02156D02*
Y02164D01*
X06244D01*
Y02156D01*
X06236D01*
X06232Y01912D02*
Y01928D01*
X06248D01*
Y01912D01*
X06232D01*
X06236Y01916D02*
Y01924D01*
X06244D01*
Y01916D01*
X06236D01*
X06232Y01672D02*
Y01688D01*
X06248D01*
Y01672D01*
X06232D01*
X06236Y01676D02*
Y01684D01*
X06244D01*
Y01676D01*
X06236D01*
X06292Y01552D02*
Y01568D01*
X06308D01*
Y01552D01*
X06292D01*
X06296Y01556D02*
Y01564D01*
X06304D01*
Y01556D01*
X06296D01*
X06232Y01432D02*
Y01448D01*
X06248D01*
Y01432D01*
X06232D01*
X06236Y01436D02*
Y01444D01*
X06244D01*
Y01436D01*
X06236D01*
X06292Y01312D02*
Y01328D01*
X06308D01*
Y01312D01*
X06292D01*
X06296Y01316D02*
Y01324D01*
X06304D01*
Y01316D01*
X06296D01*
X06232Y01192D02*
Y01208D01*
X06248D01*
Y01192D01*
X06232D01*
X06236Y01196D02*
Y01204D01*
X06244D01*
Y01196D01*
X06236D01*
X06292Y01072D02*
Y01088D01*
X06308D01*
Y01072D01*
X06292D01*
X06296Y01076D02*
Y01084D01*
X06304D01*
Y01076D01*
X06296D01*
X06232Y00952D02*
Y00968D01*
X06248D01*
Y00952D01*
X06232D01*
X06236Y00956D02*
Y00964D01*
X06244D01*
Y00956D01*
X06236D01*
X06112Y03352D02*
Y03368D01*
X06128D01*
Y03352D01*
X06112D01*
X06116Y03356D02*
Y03364D01*
X06124D01*
Y03356D01*
X06116D01*
X06172Y03232D02*
Y03248D01*
X06188D01*
Y03232D01*
X06172D01*
X06176Y03236D02*
Y03244D01*
X06184D01*
Y03236D01*
X06176D01*
X06112Y03112D02*
Y03128D01*
X06128D01*
Y03112D01*
X06112D01*
X06116Y03116D02*
Y03124D01*
X06124D01*
Y03116D01*
X06116D01*
X06172Y02992D02*
Y03008D01*
X06188D01*
Y02992D01*
X06172D01*
X06176Y02996D02*
Y03004D01*
X06184D01*
Y02996D01*
X06176D01*
X06112Y02392D02*
Y02408D01*
X06128D01*
Y02392D01*
X06112D01*
X06116Y02396D02*
Y02404D01*
X06124D01*
Y02396D01*
X06116D01*
X06172Y02272D02*
Y02288D01*
X06188D01*
Y02272D01*
X06172D01*
X06176Y02276D02*
Y02284D01*
X06184D01*
Y02276D01*
X06176D01*
X06112Y02152D02*
Y02168D01*
X06128D01*
Y02152D01*
X06112D01*
X06116Y02156D02*
Y02164D01*
X06124D01*
Y02156D01*
X06116D01*
X06172Y02032D02*
Y02048D01*
X06188D01*
Y02032D01*
X06172D01*
X06176Y02036D02*
Y02044D01*
X06184D01*
Y02036D01*
X06176D01*
X06112Y01912D02*
Y01928D01*
X06128D01*
Y01912D01*
X06112D01*
X06116Y01916D02*
Y01924D01*
X06124D01*
Y01916D01*
X06116D01*
X06172Y01552D02*
Y01568D01*
X06188D01*
Y01552D01*
X06172D01*
X06176Y01556D02*
Y01564D01*
X06184D01*
Y01556D01*
X06176D01*
X06172Y01072D02*
Y01088D01*
X06188D01*
Y01072D01*
X06172D01*
X06176Y01076D02*
Y01084D01*
X06184D01*
Y01076D01*
X06176D01*
X06112Y00952D02*
Y00968D01*
X06128D01*
Y00952D01*
X06112D01*
X06116Y00956D02*
Y00964D01*
X06124D01*
Y00956D01*
X06116D01*
X05992Y03352D02*
Y03368D01*
X06008D01*
Y03352D01*
X05992D01*
X05996Y03356D02*
Y03364D01*
X06004D01*
Y03356D01*
X05996D01*
X06052Y03232D02*
Y03248D01*
X06068D01*
Y03232D01*
X06052D01*
X06056Y03236D02*
Y03244D01*
X06064D01*
Y03236D01*
X06056D01*
X05992Y03112D02*
Y03128D01*
X06008D01*
Y03112D01*
X05992D01*
X05996Y03116D02*
Y03124D01*
X06004D01*
Y03116D01*
X05996D01*
X06052Y02992D02*
Y03008D01*
X06068D01*
Y02992D01*
X06052D01*
X06056Y02996D02*
Y03004D01*
X06064D01*
Y02996D01*
X06056D01*
X05992Y02392D02*
Y02408D01*
X06008D01*
Y02392D01*
X05992D01*
X05996Y02396D02*
Y02404D01*
X06004D01*
Y02396D01*
X05996D01*
X06052Y02272D02*
Y02288D01*
X06068D01*
Y02272D01*
X06052D01*
X06056Y02276D02*
Y02284D01*
X06064D01*
Y02276D01*
X06056D01*
X06052Y02032D02*
Y02048D01*
X06068D01*
Y02032D01*
X06052D01*
X06056Y02036D02*
Y02044D01*
X06064D01*
Y02036D01*
X06056D01*
X05992Y01912D02*
Y01928D01*
X06008D01*
Y01912D01*
X05992D01*
X05996Y01916D02*
Y01924D01*
X06004D01*
Y01916D01*
X05996D01*
X05992Y01672D02*
Y01688D01*
X06008D01*
Y01672D01*
X05992D01*
X05996Y01676D02*
Y01684D01*
X06004D01*
Y01676D01*
X05996D01*
X05992Y01432D02*
Y01448D01*
X06008D01*
Y01432D01*
X05992D01*
X05996Y01436D02*
Y01444D01*
X06004D01*
Y01436D01*
X05996D01*
X05992Y01192D02*
Y01208D01*
X06008D01*
Y01192D01*
X05992D01*
X05996Y01196D02*
Y01204D01*
X06004D01*
Y01196D01*
X05996D01*
X06052Y01072D02*
Y01088D01*
X06068D01*
Y01072D01*
X06052D01*
X06056Y01076D02*
Y01084D01*
X06064D01*
Y01076D01*
X06056D01*
X05992Y00952D02*
Y00968D01*
X06008D01*
Y00952D01*
X05992D01*
X05996Y00956D02*
Y00964D01*
X06004D01*
Y00956D01*
X05996D01*
X05872Y03352D02*
Y03368D01*
X05888D01*
Y03352D01*
X05872D01*
X05876Y03356D02*
Y03364D01*
X05884D01*
Y03356D01*
X05876D01*
X05872Y02392D02*
Y02408D01*
X05888D01*
Y02392D01*
X05872D01*
X05876Y02396D02*
Y02404D01*
X05884D01*
Y02396D01*
X05876D01*
X05932Y02032D02*
Y02048D01*
X05948D01*
Y02032D01*
X05932D01*
X05936Y02036D02*
Y02044D01*
X05944D01*
Y02036D01*
X05936D01*
X05872Y01912D02*
Y01928D01*
X05888D01*
Y01912D01*
X05872D01*
X05876Y01916D02*
Y01924D01*
X05884D01*
Y01916D01*
X05876D01*
X05872Y01672D02*
Y01688D01*
X05888D01*
Y01672D01*
X05872D01*
X05876Y01676D02*
Y01684D01*
X05884D01*
Y01676D01*
X05876D01*
X05932Y01552D02*
Y01568D01*
X05948D01*
Y01552D01*
X05932D01*
X05936Y01556D02*
Y01564D01*
X05944D01*
Y01556D01*
X05936D01*
X05872Y01432D02*
Y01448D01*
X05888D01*
Y01432D01*
X05872D01*
X05876Y01436D02*
Y01444D01*
X05884D01*
Y01436D01*
X05876D01*
X05932Y01312D02*
Y01328D01*
X05948D01*
Y01312D01*
X05932D01*
X05936Y01316D02*
Y01324D01*
X05944D01*
Y01316D01*
X05936D01*
X05932Y01072D02*
Y01088D01*
X05948D01*
Y01072D01*
X05932D01*
X05936Y01076D02*
Y01084D01*
X05944D01*
Y01076D01*
X05936D01*
X05872Y00952D02*
Y00968D01*
X05888D01*
Y00952D01*
X05872D01*
X05876Y00956D02*
Y00964D01*
X05884D01*
Y00956D01*
X05876D01*
X05752Y03352D02*
Y03368D01*
X05768D01*
Y03352D01*
X05752D01*
X05756Y03356D02*
Y03364D01*
X05764D01*
Y03356D01*
X05756D01*
X05812Y03232D02*
Y03248D01*
X05828D01*
Y03232D01*
X05812D01*
X05816Y03236D02*
Y03244D01*
X05824D01*
Y03236D01*
X05816D01*
X05752Y02392D02*
Y02408D01*
X05768D01*
Y02392D01*
X05752D01*
X05756Y02396D02*
Y02404D01*
X05764D01*
Y02396D01*
X05756D01*
X05812Y02272D02*
Y02288D01*
X05828D01*
Y02272D01*
X05812D01*
X05816Y02276D02*
Y02284D01*
X05824D01*
Y02276D01*
X05816D01*
X05752Y02152D02*
Y02168D01*
X05768D01*
Y02152D01*
X05752D01*
X05756Y02156D02*
Y02164D01*
X05764D01*
Y02156D01*
X05756D01*
X05812Y02032D02*
Y02048D01*
X05828D01*
Y02032D01*
X05812D01*
X05816Y02036D02*
Y02044D01*
X05824D01*
Y02036D01*
X05816D01*
X05752Y01912D02*
Y01928D01*
X05768D01*
Y01912D01*
X05752D01*
X05756Y01916D02*
Y01924D01*
X05764D01*
Y01916D01*
X05756D01*
X05752Y01672D02*
Y01688D01*
X05768D01*
Y01672D01*
X05752D01*
X05756Y01676D02*
Y01684D01*
X05764D01*
Y01676D01*
X05756D01*
X05812Y01552D02*
Y01568D01*
X05828D01*
Y01552D01*
X05812D01*
X05816Y01556D02*
Y01564D01*
X05824D01*
Y01556D01*
X05816D01*
X05752Y01432D02*
Y01448D01*
X05768D01*
Y01432D01*
X05752D01*
X05756Y01436D02*
Y01444D01*
X05764D01*
Y01436D01*
X05756D01*
X05752Y01192D02*
Y01208D01*
X05768D01*
Y01192D01*
X05752D01*
X05756Y01196D02*
Y01204D01*
X05764D01*
Y01196D01*
X05756D01*
X05812Y01072D02*
Y01088D01*
X05828D01*
Y01072D01*
X05812D01*
X05816Y01076D02*
Y01084D01*
X05824D01*
Y01076D01*
X05816D01*
X05752Y00952D02*
Y00968D01*
X05768D01*
Y00952D01*
X05752D01*
X05756Y00956D02*
Y00964D01*
X05764D01*
Y00956D01*
X05756D01*
X05632Y03352D02*
Y03368D01*
X05648D01*
Y03352D01*
X05632D01*
X05636Y03356D02*
Y03364D01*
X05644D01*
Y03356D01*
X05636D01*
X05692Y03232D02*
Y03248D01*
X05708D01*
Y03232D01*
X05692D01*
X05696Y03236D02*
Y03244D01*
X05704D01*
Y03236D01*
X05696D01*
X05632Y02632D02*
Y02648D01*
X05648D01*
Y02632D01*
X05632D01*
X05636Y02636D02*
Y02644D01*
X05644D01*
Y02636D01*
X05636D01*
X05632Y02392D02*
Y02408D01*
X05648D01*
Y02392D01*
X05632D01*
X05636Y02396D02*
Y02404D01*
X05644D01*
Y02396D01*
X05636D01*
X05692Y02272D02*
Y02288D01*
X05708D01*
Y02272D01*
X05692D01*
X05696Y02276D02*
Y02284D01*
X05704D01*
Y02276D01*
X05696D01*
X05632Y02152D02*
Y02168D01*
X05648D01*
Y02152D01*
X05632D01*
X05636Y02156D02*
Y02164D01*
X05644D01*
Y02156D01*
X05636D01*
X05692Y02032D02*
Y02048D01*
X05708D01*
Y02032D01*
X05692D01*
X05696Y02036D02*
Y02044D01*
X05704D01*
Y02036D01*
X05696D01*
X05632Y01912D02*
Y01928D01*
X05648D01*
Y01912D01*
X05632D01*
X05636Y01916D02*
Y01924D01*
X05644D01*
Y01916D01*
X05636D01*
X05632Y01672D02*
Y01688D01*
X05648D01*
Y01672D01*
X05632D01*
X05636Y01676D02*
Y01684D01*
X05644D01*
Y01676D01*
X05636D01*
X05692Y01552D02*
Y01568D01*
X05708D01*
Y01552D01*
X05692D01*
X05696Y01556D02*
Y01564D01*
X05704D01*
Y01556D01*
X05696D01*
X05632Y01432D02*
Y01448D01*
X05648D01*
Y01432D01*
X05632D01*
X05636Y01436D02*
Y01444D01*
X05644D01*
Y01436D01*
X05636D01*
X05692Y01312D02*
Y01328D01*
X05708D01*
Y01312D01*
X05692D01*
X05696Y01316D02*
Y01324D01*
X05704D01*
Y01316D01*
X05696D01*
X05632Y01192D02*
Y01208D01*
X05648D01*
Y01192D01*
X05632D01*
X05636Y01196D02*
Y01204D01*
X05644D01*
Y01196D01*
X05636D01*
X05692Y01072D02*
Y01088D01*
X05708D01*
Y01072D01*
X05692D01*
X05696Y01076D02*
Y01084D01*
X05704D01*
Y01076D01*
X05696D01*
X05632Y00952D02*
Y00968D01*
X05648D01*
Y00952D01*
X05632D01*
X05636Y00956D02*
Y00964D01*
X05644D01*
Y00956D01*
X05636D01*
X05512Y03352D02*
Y03368D01*
X05528D01*
Y03352D01*
X05512D01*
X05516Y03356D02*
Y03364D01*
X05524D01*
Y03356D01*
X05516D01*
X05572Y03232D02*
Y03248D01*
X05588D01*
Y03232D01*
X05572D01*
X05576Y03236D02*
Y03244D01*
X05584D01*
Y03236D01*
X05576D01*
X05512Y01672D02*
Y01688D01*
X05528D01*
Y01672D01*
X05512D01*
X05516Y01676D02*
Y01684D01*
X05524D01*
Y01676D01*
X05516D01*
X05572Y01552D02*
Y01568D01*
X05588D01*
Y01552D01*
X05572D01*
X05576Y01556D02*
Y01564D01*
X05584D01*
Y01556D01*
X05576D01*
X05512Y01432D02*
Y01448D01*
X05528D01*
Y01432D01*
X05512D01*
X05516Y01436D02*
Y01444D01*
X05524D01*
Y01436D01*
X05516D01*
X05512Y01192D02*
Y01208D01*
X05528D01*
Y01192D01*
X05512D01*
X05516Y01196D02*
Y01204D01*
X05524D01*
Y01196D01*
X05516D01*
X05452Y03232D02*
Y03248D01*
X05468D01*
Y03232D01*
X05452D01*
X05456Y03236D02*
Y03244D01*
X05464D01*
Y03236D01*
X05456D01*
X05452Y02992D02*
Y03008D01*
X05468D01*
Y02992D01*
X05452D01*
X05456Y02996D02*
Y03004D01*
X05464D01*
Y02996D01*
X05456D01*
X05452Y02272D02*
Y02288D01*
X05468D01*
Y02272D01*
X05452D01*
X05456Y02276D02*
Y02284D01*
X05464D01*
Y02276D01*
X05456D01*
X05452Y01792D02*
Y01808D01*
X05468D01*
Y01792D01*
X05452D01*
X05456Y01796D02*
Y01804D01*
X05464D01*
Y01796D01*
X05456D01*
X05452Y01552D02*
Y01568D01*
X05468D01*
Y01552D01*
X05452D01*
X05456Y01556D02*
Y01564D01*
X05464D01*
Y01556D01*
X05456D01*
X05392Y01192D02*
Y01208D01*
X05408D01*
Y01192D01*
X05392D01*
X05396Y01196D02*
Y01204D01*
X05404D01*
Y01196D01*
X05396D01*
X05392Y00952D02*
Y00968D01*
X05408D01*
Y00952D01*
X05392D01*
X05396Y00956D02*
Y00964D01*
X05404D01*
Y00956D01*
X05396D01*
X05272Y02632D02*
Y02648D01*
X05288D01*
Y02632D01*
X05272D01*
X05276Y02636D02*
Y02644D01*
X05284D01*
Y02636D01*
X05276D01*
X05332Y02512D02*
Y02528D01*
X05348D01*
Y02512D01*
X05332D01*
X05336Y02516D02*
Y02524D01*
X05344D01*
Y02516D01*
X05336D01*
X05272Y02392D02*
Y02408D01*
X05288D01*
Y02392D01*
X05272D01*
X05276Y02396D02*
Y02404D01*
X05284D01*
Y02396D01*
X05276D01*
X05332Y02272D02*
Y02288D01*
X05348D01*
Y02272D01*
X05332D01*
X05336Y02276D02*
Y02284D01*
X05344D01*
Y02276D01*
X05336D01*
X05272Y01912D02*
Y01928D01*
X05288D01*
Y01912D01*
X05272D01*
X05276Y01916D02*
Y01924D01*
X05284D01*
Y01916D01*
X05276D01*
X05332Y01792D02*
Y01808D01*
X05348D01*
Y01792D01*
X05332D01*
X05336Y01796D02*
Y01804D01*
X05344D01*
Y01796D01*
X05336D01*
X05272Y01672D02*
Y01688D01*
X05288D01*
Y01672D01*
X05272D01*
X05276Y01676D02*
Y01684D01*
X05284D01*
Y01676D01*
X05276D01*
X05332Y01552D02*
Y01568D01*
X05348D01*
Y01552D01*
X05332D01*
X05336Y01556D02*
Y01564D01*
X05344D01*
Y01556D01*
X05336D01*
X05272Y01432D02*
Y01448D01*
X05288D01*
Y01432D01*
X05272D01*
X05276Y01436D02*
Y01444D01*
X05284D01*
Y01436D01*
X05276D01*
X05272Y01192D02*
Y01208D01*
X05288D01*
Y01192D01*
X05272D01*
X05276Y01196D02*
Y01204D01*
X05284D01*
Y01196D01*
X05276D01*
X05332Y01072D02*
Y01088D01*
X05348D01*
Y01072D01*
X05332D01*
X05336Y01076D02*
Y01084D01*
X05344D01*
Y01076D01*
X05336D01*
X05272Y00952D02*
Y00968D01*
X05288D01*
Y00952D01*
X05272D01*
X05276Y00956D02*
Y00964D01*
X05284D01*
Y00956D01*
X05276D01*
X05212Y02752D02*
Y02768D01*
X05228D01*
Y02752D01*
X05212D01*
X05216Y02756D02*
Y02764D01*
X05224D01*
Y02756D01*
X05216D01*
X05152Y02632D02*
Y02648D01*
X05168D01*
Y02632D01*
X05152D01*
X05156Y02636D02*
Y02644D01*
X05164D01*
Y02636D01*
X05156D01*
X05212Y02512D02*
Y02528D01*
X05228D01*
Y02512D01*
X05212D01*
X05216Y02516D02*
Y02524D01*
X05224D01*
Y02516D01*
X05216D01*
X05152Y02392D02*
Y02408D01*
X05168D01*
Y02392D01*
X05152D01*
X05156Y02396D02*
Y02404D01*
X05164D01*
Y02396D01*
X05156D01*
X05212Y02272D02*
Y02288D01*
X05228D01*
Y02272D01*
X05212D01*
X05216Y02276D02*
Y02284D01*
X05224D01*
Y02276D01*
X05216D01*
X05152Y01912D02*
Y01928D01*
X05168D01*
Y01912D01*
X05152D01*
X05156Y01916D02*
Y01924D01*
X05164D01*
Y01916D01*
X05156D01*
X05212Y01792D02*
Y01808D01*
X05228D01*
Y01792D01*
X05212D01*
X05216Y01796D02*
Y01804D01*
X05224D01*
Y01796D01*
X05216D01*
X05152Y01672D02*
Y01688D01*
X05168D01*
Y01672D01*
X05152D01*
X05156Y01676D02*
Y01684D01*
X05164D01*
Y01676D01*
X05156D01*
X05212Y01552D02*
Y01568D01*
X05228D01*
Y01552D01*
X05212D01*
X05216Y01556D02*
Y01564D01*
X05224D01*
Y01556D01*
X05216D01*
X05152Y01432D02*
Y01448D01*
X05168D01*
Y01432D01*
X05152D01*
X05156Y01436D02*
Y01444D01*
X05164D01*
Y01436D01*
X05156D01*
X05152Y01192D02*
Y01208D01*
X05168D01*
Y01192D01*
X05152D01*
X05156Y01196D02*
Y01204D01*
X05164D01*
Y01196D01*
X05156D01*
X05032Y03112D02*
Y03128D01*
X05048D01*
Y03112D01*
X05032D01*
X05036Y03116D02*
Y03124D01*
X05044D01*
Y03116D01*
X05036D01*
X05092Y02992D02*
Y03008D01*
X05108D01*
Y02992D01*
X05092D01*
X05096Y02996D02*
Y03004D01*
X05104D01*
Y02996D01*
X05096D01*
X05092Y02752D02*
Y02768D01*
X05108D01*
Y02752D01*
X05092D01*
X05096Y02756D02*
Y02764D01*
X05104D01*
Y02756D01*
X05096D01*
X05032Y02632D02*
Y02648D01*
X05048D01*
Y02632D01*
X05032D01*
X05036Y02636D02*
Y02644D01*
X05044D01*
Y02636D01*
X05036D01*
X05032Y02392D02*
Y02408D01*
X05048D01*
Y02392D01*
X05032D01*
X05036Y02396D02*
Y02404D01*
X05044D01*
Y02396D01*
X05036D01*
X05092Y02272D02*
Y02288D01*
X05108D01*
Y02272D01*
X05092D01*
X05096Y02276D02*
Y02284D01*
X05104D01*
Y02276D01*
X05096D01*
X05092Y02032D02*
Y02048D01*
X05108D01*
Y02032D01*
X05092D01*
X05096Y02036D02*
Y02044D01*
X05104D01*
Y02036D01*
X05096D01*
X05032Y01912D02*
Y01928D01*
X05048D01*
Y01912D01*
X05032D01*
X05036Y01916D02*
Y01924D01*
X05044D01*
Y01916D01*
X05036D01*
X05032Y01672D02*
Y01688D01*
X05048D01*
Y01672D01*
X05032D01*
X05036Y01676D02*
Y01684D01*
X05044D01*
Y01676D01*
X05036D01*
X05032Y01432D02*
Y01448D01*
X05048D01*
Y01432D01*
X05032D01*
X05036Y01436D02*
Y01444D01*
X05044D01*
Y01436D01*
X05036D01*
X05032Y01192D02*
Y01208D01*
X05048D01*
Y01192D01*
X05032D01*
X05036Y01196D02*
Y01204D01*
X05044D01*
Y01196D01*
X05036D01*
X04912Y03352D02*
Y03368D01*
X04928D01*
Y03352D01*
X04912D01*
X04916Y03356D02*
Y03364D01*
X04924D01*
Y03356D01*
X04916D01*
X04972Y03232D02*
Y03248D01*
X04988D01*
Y03232D01*
X04972D01*
X04976Y03236D02*
Y03244D01*
X04984D01*
Y03236D01*
X04976D01*
X04912Y03112D02*
Y03128D01*
X04928D01*
Y03112D01*
X04912D01*
X04916Y03116D02*
Y03124D01*
X04924D01*
Y03116D01*
X04916D01*
X04972Y02752D02*
Y02768D01*
X04988D01*
Y02752D01*
X04972D01*
X04976Y02756D02*
Y02764D01*
X04984D01*
Y02756D01*
X04976D01*
X04912Y02632D02*
Y02648D01*
X04928D01*
Y02632D01*
X04912D01*
X04916Y02636D02*
Y02644D01*
X04924D01*
Y02636D01*
X04916D01*
X04972Y02512D02*
Y02528D01*
X04988D01*
Y02512D01*
X04972D01*
X04976Y02516D02*
Y02524D01*
X04984D01*
Y02516D01*
X04976D01*
X04912Y02392D02*
Y02408D01*
X04928D01*
Y02392D01*
X04912D01*
X04916Y02396D02*
Y02404D01*
X04924D01*
Y02396D01*
X04916D01*
X04972Y02272D02*
Y02288D01*
X04988D01*
Y02272D01*
X04972D01*
X04976Y02276D02*
Y02284D01*
X04984D01*
Y02276D01*
X04976D01*
X04972Y02032D02*
Y02048D01*
X04988D01*
Y02032D01*
X04972D01*
X04976Y02036D02*
Y02044D01*
X04984D01*
Y02036D01*
X04976D01*
X04912Y01912D02*
Y01928D01*
X04928D01*
Y01912D01*
X04912D01*
X04916Y01916D02*
Y01924D01*
X04924D01*
Y01916D01*
X04916D01*
X04972Y01552D02*
Y01568D01*
X04988D01*
Y01552D01*
X04972D01*
X04976Y01556D02*
Y01564D01*
X04984D01*
Y01556D01*
X04976D01*
X04912Y01432D02*
Y01448D01*
X04928D01*
Y01432D01*
X04912D01*
X04916Y01436D02*
Y01444D01*
X04924D01*
Y01436D01*
X04916D01*
X04972Y01312D02*
Y01328D01*
X04988D01*
Y01312D01*
X04972D01*
X04976Y01316D02*
Y01324D01*
X04984D01*
Y01316D01*
X04976D01*
X04912Y01192D02*
Y01208D01*
X04928D01*
Y01192D01*
X04912D01*
X04916Y01196D02*
Y01204D01*
X04924D01*
Y01196D01*
X04916D01*
X04972Y01072D02*
Y01088D01*
X04988D01*
Y01072D01*
X04972D01*
X04976Y01076D02*
Y01084D01*
X04984D01*
Y01076D01*
X04976D01*
X04912Y00952D02*
Y00968D01*
X04928D01*
Y00952D01*
X04912D01*
X04916Y00956D02*
Y00964D01*
X04924D01*
Y00956D01*
X04916D01*
X04792Y03352D02*
Y03368D01*
X04808D01*
Y03352D01*
X04792D01*
X04796Y03356D02*
Y03364D01*
X04804D01*
Y03356D01*
X04796D01*
X04852Y03232D02*
Y03248D01*
X04868D01*
Y03232D01*
X04852D01*
X04856Y03236D02*
Y03244D01*
X04864D01*
Y03236D01*
X04856D01*
X04792Y03112D02*
Y03128D01*
X04808D01*
Y03112D01*
X04792D01*
X04796Y03116D02*
Y03124D01*
X04804D01*
Y03116D01*
X04796D01*
X04852Y02992D02*
Y03008D01*
X04868D01*
Y02992D01*
X04852D01*
X04856Y02996D02*
Y03004D01*
X04864D01*
Y02996D01*
X04856D01*
X04852Y02752D02*
Y02768D01*
X04868D01*
Y02752D01*
X04852D01*
X04856Y02756D02*
Y02764D01*
X04864D01*
Y02756D01*
X04856D01*
X04792Y02632D02*
Y02648D01*
X04808D01*
Y02632D01*
X04792D01*
X04796Y02636D02*
Y02644D01*
X04804D01*
Y02636D01*
X04796D01*
X04852Y02512D02*
Y02528D01*
X04868D01*
Y02512D01*
X04852D01*
X04856Y02516D02*
Y02524D01*
X04864D01*
Y02516D01*
X04856D01*
X04792Y02392D02*
Y02408D01*
X04808D01*
Y02392D01*
X04792D01*
X04796Y02396D02*
Y02404D01*
X04804D01*
Y02396D01*
X04796D01*
X04852Y02032D02*
Y02048D01*
X04868D01*
Y02032D01*
X04852D01*
X04856Y02036D02*
Y02044D01*
X04864D01*
Y02036D01*
X04856D01*
X04792Y01912D02*
Y01928D01*
X04808D01*
Y01912D01*
X04792D01*
X04796Y01916D02*
Y01924D01*
X04804D01*
Y01916D01*
X04796D01*
X04852Y01792D02*
Y01808D01*
X04868D01*
Y01792D01*
X04852D01*
X04856Y01796D02*
Y01804D01*
X04864D01*
Y01796D01*
X04856D01*
X04792Y01672D02*
Y01688D01*
X04808D01*
Y01672D01*
X04792D01*
X04796Y01676D02*
Y01684D01*
X04804D01*
Y01676D01*
X04796D01*
X04852Y01552D02*
Y01568D01*
X04868D01*
Y01552D01*
X04852D01*
X04856Y01556D02*
Y01564D01*
X04864D01*
Y01556D01*
X04856D01*
X04792Y01432D02*
Y01448D01*
X04808D01*
Y01432D01*
X04792D01*
X04796Y01436D02*
Y01444D01*
X04804D01*
Y01436D01*
X04796D01*
X04852Y01312D02*
Y01328D01*
X04868D01*
Y01312D01*
X04852D01*
X04856Y01316D02*
Y01324D01*
X04864D01*
Y01316D01*
X04856D01*
X04852Y01072D02*
Y01088D01*
X04868D01*
Y01072D01*
X04852D01*
X04856Y01076D02*
Y01084D01*
X04864D01*
Y01076D01*
X04856D01*
X04792Y00952D02*
Y00968D01*
X04808D01*
Y00952D01*
X04792D01*
X04796Y00956D02*
Y00964D01*
X04804D01*
Y00956D01*
X04796D01*
X04672Y03352D02*
Y03368D01*
X04688D01*
Y03352D01*
X04672D01*
X04676Y03356D02*
Y03364D01*
X04684D01*
Y03356D01*
X04676D01*
X04732Y03232D02*
Y03248D01*
X04748D01*
Y03232D01*
X04732D01*
X04736Y03236D02*
Y03244D01*
X04744D01*
Y03236D01*
X04736D01*
X04732Y02992D02*
Y03008D01*
X04748D01*
Y02992D01*
X04732D01*
X04736Y02996D02*
Y03004D01*
X04744D01*
Y02996D01*
X04736D01*
X04732Y02752D02*
Y02768D01*
X04748D01*
Y02752D01*
X04732D01*
X04736Y02756D02*
Y02764D01*
X04744D01*
Y02756D01*
X04736D01*
X04732Y02512D02*
Y02528D01*
X04748D01*
Y02512D01*
X04732D01*
X04736Y02516D02*
Y02524D01*
X04744D01*
Y02516D01*
X04736D01*
X04672Y02392D02*
Y02408D01*
X04688D01*
Y02392D01*
X04672D01*
X04676Y02396D02*
Y02404D01*
X04684D01*
Y02396D01*
X04676D01*
X04732Y02272D02*
Y02288D01*
X04748D01*
Y02272D01*
X04732D01*
X04736Y02276D02*
Y02284D01*
X04744D01*
Y02276D01*
X04736D01*
X04732Y02032D02*
Y02048D01*
X04748D01*
Y02032D01*
X04732D01*
X04736Y02036D02*
Y02044D01*
X04744D01*
Y02036D01*
X04736D01*
X04672Y01912D02*
Y01928D01*
X04688D01*
Y01912D01*
X04672D01*
X04676Y01916D02*
Y01924D01*
X04684D01*
Y01916D01*
X04676D01*
X04732Y01792D02*
Y01808D01*
X04748D01*
Y01792D01*
X04732D01*
X04736Y01796D02*
Y01804D01*
X04744D01*
Y01796D01*
X04736D01*
X04672Y01672D02*
Y01688D01*
X04688D01*
Y01672D01*
X04672D01*
X04676Y01676D02*
Y01684D01*
X04684D01*
Y01676D01*
X04676D01*
X04672Y01432D02*
Y01448D01*
X04688D01*
Y01432D01*
X04672D01*
X04676Y01436D02*
Y01444D01*
X04684D01*
Y01436D01*
X04676D01*
X04672Y01192D02*
Y01208D01*
X04688D01*
Y01192D01*
X04672D01*
X04676Y01196D02*
Y01204D01*
X04684D01*
Y01196D01*
X04676D01*
X04672Y00952D02*
Y00968D01*
X04688D01*
Y00952D01*
X04672D01*
X04676Y00956D02*
Y00964D01*
X04684D01*
Y00956D01*
X04676D01*
X04552Y03352D02*
Y03368D01*
X04568D01*
Y03352D01*
X04552D01*
X04556Y03356D02*
Y03364D01*
X04564D01*
Y03356D01*
X04556D01*
X04612Y03232D02*
Y03248D01*
X04628D01*
Y03232D01*
X04612D01*
X04616Y03236D02*
Y03244D01*
X04624D01*
Y03236D01*
X04616D01*
X04552Y03112D02*
Y03128D01*
X04568D01*
Y03112D01*
X04552D01*
X04556Y03116D02*
Y03124D01*
X04564D01*
Y03116D01*
X04556D01*
X04612Y02992D02*
Y03008D01*
X04628D01*
Y02992D01*
X04612D01*
X04616Y02996D02*
Y03004D01*
X04624D01*
Y02996D01*
X04616D01*
X04552Y02872D02*
Y02888D01*
X04568D01*
Y02872D01*
X04552D01*
X04556Y02876D02*
Y02884D01*
X04564D01*
Y02876D01*
X04556D01*
X04612Y02752D02*
Y02768D01*
X04628D01*
Y02752D01*
X04612D01*
X04616Y02756D02*
Y02764D01*
X04624D01*
Y02756D01*
X04616D01*
X04552Y02632D02*
Y02648D01*
X04568D01*
Y02632D01*
X04552D01*
X04556Y02636D02*
Y02644D01*
X04564D01*
Y02636D01*
X04556D01*
X04612Y02512D02*
Y02528D01*
X04628D01*
Y02512D01*
X04612D01*
X04616Y02516D02*
Y02524D01*
X04624D01*
Y02516D01*
X04616D01*
X04552Y02392D02*
Y02408D01*
X04568D01*
Y02392D01*
X04552D01*
X04556Y02396D02*
Y02404D01*
X04564D01*
Y02396D01*
X04556D01*
X04612Y02272D02*
Y02288D01*
X04628D01*
Y02272D01*
X04612D01*
X04616Y02276D02*
Y02284D01*
X04624D01*
Y02276D01*
X04616D01*
X04612Y01792D02*
Y01808D01*
X04628D01*
Y01792D01*
X04612D01*
X04616Y01796D02*
Y01804D01*
X04624D01*
Y01796D01*
X04616D01*
X04612Y01552D02*
Y01568D01*
X04628D01*
Y01552D01*
X04612D01*
X04616Y01556D02*
Y01564D01*
X04624D01*
Y01556D01*
X04616D01*
X04612Y01312D02*
Y01328D01*
X04628D01*
Y01312D01*
X04612D01*
X04616Y01316D02*
Y01324D01*
X04624D01*
Y01316D01*
X04616D01*
X04552Y00952D02*
Y00968D01*
X04568D01*
Y00952D01*
X04552D01*
X04556Y00956D02*
Y00964D01*
X04564D01*
Y00956D01*
X04556D01*
X04432Y03352D02*
Y03368D01*
X04448D01*
Y03352D01*
X04432D01*
X04436Y03356D02*
Y03364D01*
X04444D01*
Y03356D01*
X04436D01*
X04492Y03232D02*
Y03248D01*
X04508D01*
Y03232D01*
X04492D01*
X04496Y03236D02*
Y03244D01*
X04504D01*
Y03236D01*
X04496D01*
X04432Y03112D02*
Y03128D01*
X04448D01*
Y03112D01*
X04432D01*
X04436Y03116D02*
Y03124D01*
X04444D01*
Y03116D01*
X04436D01*
X04492Y02992D02*
Y03008D01*
X04508D01*
Y02992D01*
X04492D01*
X04496Y02996D02*
Y03004D01*
X04504D01*
Y02996D01*
X04496D01*
X04432Y02872D02*
Y02888D01*
X04448D01*
Y02872D01*
X04432D01*
X04436Y02876D02*
Y02884D01*
X04444D01*
Y02876D01*
X04436D01*
X04492Y02752D02*
Y02768D01*
X04508D01*
Y02752D01*
X04492D01*
X04496Y02756D02*
Y02764D01*
X04504D01*
Y02756D01*
X04496D01*
X04432Y02632D02*
Y02648D01*
X04448D01*
Y02632D01*
X04432D01*
X04436Y02636D02*
Y02644D01*
X04444D01*
Y02636D01*
X04436D01*
X04432Y02392D02*
Y02408D01*
X04448D01*
Y02392D01*
X04432D01*
X04436Y02396D02*
Y02404D01*
X04444D01*
Y02396D01*
X04436D01*
X04492Y02272D02*
Y02288D01*
X04508D01*
Y02272D01*
X04492D01*
X04496Y02276D02*
Y02284D01*
X04504D01*
Y02276D01*
X04496D01*
X04492Y02032D02*
Y02048D01*
X04508D01*
Y02032D01*
X04492D01*
X04496Y02036D02*
Y02044D01*
X04504D01*
Y02036D01*
X04496D01*
X04432Y01912D02*
Y01928D01*
X04448D01*
Y01912D01*
X04432D01*
X04436Y01916D02*
Y01924D01*
X04444D01*
Y01916D01*
X04436D01*
X04492Y01792D02*
Y01808D01*
X04508D01*
Y01792D01*
X04492D01*
X04496Y01796D02*
Y01804D01*
X04504D01*
Y01796D01*
X04496D01*
X04432Y01672D02*
Y01688D01*
X04448D01*
Y01672D01*
X04432D01*
X04436Y01676D02*
Y01684D01*
X04444D01*
Y01676D01*
X04436D01*
X04492Y01552D02*
Y01568D01*
X04508D01*
Y01552D01*
X04492D01*
X04496Y01556D02*
Y01564D01*
X04504D01*
Y01556D01*
X04496D01*
X04432Y01432D02*
Y01448D01*
X04448D01*
Y01432D01*
X04432D01*
X04436Y01436D02*
Y01444D01*
X04444D01*
Y01436D01*
X04436D01*
X04492Y01312D02*
Y01328D01*
X04508D01*
Y01312D01*
X04492D01*
X04496Y01316D02*
Y01324D01*
X04504D01*
Y01316D01*
X04496D01*
X04432Y01192D02*
Y01208D01*
X04448D01*
Y01192D01*
X04432D01*
X04436Y01196D02*
Y01204D01*
X04444D01*
Y01196D01*
X04436D01*
X04492Y01072D02*
Y01088D01*
X04508D01*
Y01072D01*
X04492D01*
X04496Y01076D02*
Y01084D01*
X04504D01*
Y01076D01*
X04496D01*
X04432Y00952D02*
Y00968D01*
X04448D01*
Y00952D01*
X04432D01*
X04436Y00956D02*
Y00964D01*
X04444D01*
Y00956D01*
X04436D01*
X04312Y03352D02*
Y03368D01*
X04328D01*
Y03352D01*
X04312D01*
X04316Y03356D02*
Y03364D01*
X04324D01*
Y03356D01*
X04316D01*
X04312Y03112D02*
Y03128D01*
X04328D01*
Y03112D01*
X04312D01*
X04316Y03116D02*
Y03124D01*
X04324D01*
Y03116D01*
X04316D01*
X04372Y02992D02*
Y03008D01*
X04388D01*
Y02992D01*
X04372D01*
X04376Y02996D02*
Y03004D01*
X04384D01*
Y02996D01*
X04376D01*
X04312Y02872D02*
Y02888D01*
X04328D01*
Y02872D01*
X04312D01*
X04316Y02876D02*
Y02884D01*
X04324D01*
Y02876D01*
X04316D01*
X04372Y02752D02*
Y02768D01*
X04388D01*
Y02752D01*
X04372D01*
X04376Y02756D02*
Y02764D01*
X04384D01*
Y02756D01*
X04376D01*
X04312Y02632D02*
Y02648D01*
X04328D01*
Y02632D01*
X04312D01*
X04316Y02636D02*
Y02644D01*
X04324D01*
Y02636D01*
X04316D01*
X04312Y02392D02*
Y02408D01*
X04328D01*
Y02392D01*
X04312D01*
X04316Y02396D02*
Y02404D01*
X04324D01*
Y02396D01*
X04316D01*
X04372Y02272D02*
Y02288D01*
X04388D01*
Y02272D01*
X04372D01*
X04376Y02276D02*
Y02284D01*
X04384D01*
Y02276D01*
X04376D01*
X04312Y02152D02*
Y02168D01*
X04328D01*
Y02152D01*
X04312D01*
X04316Y02156D02*
Y02164D01*
X04324D01*
Y02156D01*
X04316D01*
X04372Y01792D02*
Y01808D01*
X04388D01*
Y01792D01*
X04372D01*
X04376Y01796D02*
Y01804D01*
X04384D01*
Y01796D01*
X04376D01*
X04312Y01672D02*
Y01688D01*
X04328D01*
Y01672D01*
X04312D01*
X04316Y01676D02*
Y01684D01*
X04324D01*
Y01676D01*
X04316D01*
X04372Y01552D02*
Y01568D01*
X04388D01*
Y01552D01*
X04372D01*
X04376Y01556D02*
Y01564D01*
X04384D01*
Y01556D01*
X04376D01*
X04312Y01432D02*
Y01448D01*
X04328D01*
Y01432D01*
X04312D01*
X04316Y01436D02*
Y01444D01*
X04324D01*
Y01436D01*
X04316D01*
X04372Y01312D02*
Y01328D01*
X04388D01*
Y01312D01*
X04372D01*
X04376Y01316D02*
Y01324D01*
X04384D01*
Y01316D01*
X04376D01*
X04312Y01192D02*
Y01208D01*
X04328D01*
Y01192D01*
X04312D01*
X04316Y01196D02*
Y01204D01*
X04324D01*
Y01196D01*
X04316D01*
X04372Y01072D02*
Y01088D01*
X04388D01*
Y01072D01*
X04372D01*
X04376Y01076D02*
Y01084D01*
X04384D01*
Y01076D01*
X04376D01*
X04312Y00952D02*
Y00968D01*
X04328D01*
Y00952D01*
X04312D01*
X04316Y00956D02*
Y00964D01*
X04324D01*
Y00956D01*
X04316D01*
X04192Y03352D02*
Y03368D01*
X04208D01*
Y03352D01*
X04192D01*
X04196Y03356D02*
Y03364D01*
X04204D01*
Y03356D01*
X04196D01*
X04252Y03232D02*
Y03248D01*
X04268D01*
Y03232D01*
X04252D01*
X04256Y03236D02*
Y03244D01*
X04264D01*
Y03236D01*
X04256D01*
X04192Y03112D02*
Y03128D01*
X04208D01*
Y03112D01*
X04192D01*
X04196Y03116D02*
Y03124D01*
X04204D01*
Y03116D01*
X04196D01*
X04252Y02992D02*
Y03008D01*
X04268D01*
Y02992D01*
X04252D01*
X04256Y02996D02*
Y03004D01*
X04264D01*
Y02996D01*
X04256D01*
X04192Y02872D02*
Y02888D01*
X04208D01*
Y02872D01*
X04192D01*
X04196Y02876D02*
Y02884D01*
X04204D01*
Y02876D01*
X04196D01*
X04252Y02752D02*
Y02768D01*
X04268D01*
Y02752D01*
X04252D01*
X04256Y02756D02*
Y02764D01*
X04264D01*
Y02756D01*
X04256D01*
X04192Y02632D02*
Y02648D01*
X04208D01*
Y02632D01*
X04192D01*
X04196Y02636D02*
Y02644D01*
X04204D01*
Y02636D01*
X04196D01*
X04192Y02392D02*
Y02408D01*
X04208D01*
Y02392D01*
X04192D01*
X04196Y02396D02*
Y02404D01*
X04204D01*
Y02396D01*
X04196D01*
X04252Y02272D02*
Y02288D01*
X04268D01*
Y02272D01*
X04252D01*
X04256Y02276D02*
Y02284D01*
X04264D01*
Y02276D01*
X04256D01*
X04192Y02152D02*
Y02168D01*
X04208D01*
Y02152D01*
X04192D01*
X04196Y02156D02*
Y02164D01*
X04204D01*
Y02156D01*
X04196D01*
X04252Y01792D02*
Y01808D01*
X04268D01*
Y01792D01*
X04252D01*
X04256Y01796D02*
Y01804D01*
X04264D01*
Y01796D01*
X04256D01*
X04192Y01672D02*
Y01688D01*
X04208D01*
Y01672D01*
X04192D01*
X04196Y01676D02*
Y01684D01*
X04204D01*
Y01676D01*
X04196D01*
X04252Y01552D02*
Y01568D01*
X04268D01*
Y01552D01*
X04252D01*
X04256Y01556D02*
Y01564D01*
X04264D01*
Y01556D01*
X04256D01*
X04192Y01432D02*
Y01448D01*
X04208D01*
Y01432D01*
X04192D01*
X04196Y01436D02*
Y01444D01*
X04204D01*
Y01436D01*
X04196D01*
X04252Y01312D02*
Y01328D01*
X04268D01*
Y01312D01*
X04252D01*
X04256Y01316D02*
Y01324D01*
X04264D01*
Y01316D01*
X04256D01*
X04192Y01192D02*
Y01208D01*
X04208D01*
Y01192D01*
X04192D01*
X04196Y01196D02*
Y01204D01*
X04204D01*
Y01196D01*
X04196D01*
X04252Y01072D02*
Y01088D01*
X04268D01*
Y01072D01*
X04252D01*
X04256Y01076D02*
Y01084D01*
X04264D01*
Y01076D01*
X04256D01*
X04192Y00952D02*
Y00968D01*
X04208D01*
Y00952D01*
X04192D01*
X04196Y00956D02*
Y00964D01*
X04204D01*
Y00956D01*
X04196D01*
D76*
X030736Y030118D02*
G03*
X030736Y030118I-00008J0D01*
G01*
Y027756D02*
G03*
X030736Y027756I-00008J0D01*
G01*
X043964Y03248D02*
G03*
X043964Y03248I-00008J0D01*
G01*
Y025394D02*
G03*
X043964Y025394I-00008J0D01*
G01*
X029838Y020171D02*
G03*
X029838Y020171I-00008J0D01*
G01*
Y023163D02*
G03*
X029838Y023163I-00008J0D01*
G01*
Y015447D02*
G03*
X029838Y015447I-00008J0D01*
G01*
Y018439D02*
G03*
X029838Y018439I-00008J0D01*
G01*
Y010683D02*
G03*
X029838Y010683I-00008J0D01*
G01*
Y013675D02*
G03*
X029838Y013675I-00008J0D01*
G01*
X045539Y013701D02*
G03*
X045539Y013701I-00008J0D01*
G01*
X0341Y015344D02*
G03*
X0341Y015344I-00008J0D01*
G01*
Y020055D02*
G03*
X0341Y020055I-00008J0D01*
G01*
X034092Y018704D02*
G03*
X034092Y018704I-00008J0D01*
G01*
X034092Y013888D02*
G03*
X034092Y013888I-00008J0D01*
G01*
X060814Y029055D02*
G03*
X060814Y029055I-00008J0D01*
G01*
X059436Y031969D02*
G03*
X059436Y031969I-00008J0D01*
G01*
X050499Y028189D02*
G03*
X050499Y028189I-00008J0D01*
G01*
X052389Y02063D02*
G03*
X052389Y02063I-00008J0D01*
G01*
X054762Y011335D02*
G03*
X054762Y011335I-00008J0D01*
G01*
X051212D02*
G03*
X051212Y011335I-00008J0D01*
G01*
D77*
X045499Y013701D02*
G03*
X045499Y013701I-00004J0D01*
G01*
X03406Y015344D02*
G03*
X03406Y015344I-00004J0D01*
G01*
Y020055D02*
G03*
X03406Y020055I-00004J0D01*
G01*
X034052Y018704D02*
G03*
X034052Y018704I-00004J0D01*
G01*
X034052Y013888D02*
G03*
X034052Y013888I-00004J0D01*
G01*
X060774Y029055D02*
G03*
X060774Y029055I-00004J0D01*
G01*
X059396Y031969D02*
G03*
X059396Y031969I-00004J0D01*
G01*
X050459Y028189D02*
G03*
X050459Y028189I-00004J0D01*
G01*
X052349Y02063D02*
G03*
X052349Y02063I-00004J0D01*
G01*
X054722Y011335D02*
G03*
X054722Y011335I-00004J0D01*
G01*
X051172D02*
G03*
X051172Y011335I-00004J0D01*
G01*
M02*
