G04*
G04 #@! TF.GenerationSoftware,Altium Limited,Altium Designer,21.2.1 (34)*
G04*
G04 Layer_Color=8388736*
%FSTAX24Y24*%
%MOIN*%
G70*
G04*
G04 #@! TF.SameCoordinates,69041C72-035C-4FA9-9E98-1EB6260ED9D6*
G04*
G04*
G04 #@! TF.FilePolarity,Negative*
G04*
G01*
G75*
%ADD39R,0.0434X0.0316*%
%ADD40R,0.0474X0.0474*%
%ADD41R,0.0316X0.0434*%
G04:AMPARAMS|DCode=42|XSize=48mil|YSize=78mil|CornerRadius=0mil|HoleSize=0mil|Usage=FLASHONLY|Rotation=134.000|XOffset=0mil|YOffset=0mil|HoleType=Round|Shape=Rectangle|*
%AMROTATEDRECTD42*
4,1,4,0.0447,0.0098,-0.0114,-0.0444,-0.0447,-0.0098,0.0114,0.0444,0.0447,0.0098,0.0*
%
%ADD42ROTATEDRECTD42*%

%ADD43P,0.0670X4X160.0*%
%ADD44R,0.0434X0.0671*%
%ADD45R,0.0671X0.0434*%
G04:AMPARAMS|DCode=46|XSize=27.3mil|YSize=25.7mil|CornerRadius=6.2mil|HoleSize=0mil|Usage=FLASHONLY|Rotation=25.000|XOffset=0mil|YOffset=0mil|HoleType=Round|Shape=RoundedRectangle|*
%AMROUNDEDRECTD46*
21,1,0.0273,0.0133,0,0,25.0*
21,1,0.0149,0.0257,0,0,25.0*
1,1,0.0124,0.0095,-0.0029*
1,1,0.0124,-0.0039,-0.0092*
1,1,0.0124,-0.0095,0.0029*
1,1,0.0124,0.0039,0.0092*
%
%ADD46ROUNDEDRECTD46*%
%ADD47R,0.0462X0.0442*%
%ADD48R,0.0474X0.0474*%
%ADD49R,0.0694X0.0241*%
G04:AMPARAMS|DCode=50|XSize=44.2mil|YSize=46.2mil|CornerRadius=0mil|HoleSize=0mil|Usage=FLASHONLY|Rotation=43.000|XOffset=0mil|YOffset=0mil|HoleType=Round|Shape=Rectangle|*
%AMROTATEDRECTD50*
4,1,4,-0.0004,-0.0320,-0.0319,0.0018,0.0004,0.0320,0.0319,-0.0018,-0.0004,-0.0320,0.0*
%
%ADD50ROTATEDRECTD50*%

%ADD51R,0.0580X0.0630*%
%ADD52R,0.0671X0.0316*%
%ADD53R,0.0980X0.1380*%
G04:AMPARAMS|DCode=54|XSize=85.6mil|YSize=31.6mil|CornerRadius=7mil|HoleSize=0mil|Usage=FLASHONLY|Rotation=180.000|XOffset=0mil|YOffset=0mil|HoleType=Round|Shape=RoundedRectangle|*
%AMROUNDEDRECTD54*
21,1,0.0856,0.0177,0,0,180.0*
21,1,0.0717,0.0316,0,0,180.0*
1,1,0.0139,-0.0358,0.0089*
1,1,0.0139,0.0358,0.0089*
1,1,0.0139,0.0358,-0.0089*
1,1,0.0139,-0.0358,-0.0089*
%
%ADD54ROUNDEDRECTD54*%
%ADD55R,0.0395X0.0671*%
%ADD56R,0.0379X0.0671*%
%ADD57R,0.0356X0.0671*%
%ADD58R,0.0434X0.0434*%
G04:AMPARAMS|DCode=59|XSize=75.3mil|YSize=56.4mil|CornerRadius=10.1mil|HoleSize=0mil|Usage=FLASHONLY|Rotation=90.000|XOffset=0mil|YOffset=0mil|HoleType=Round|Shape=RoundedRectangle|*
%AMROUNDEDRECTD59*
21,1,0.0753,0.0363,0,0,90.0*
21,1,0.0552,0.0564,0,0,90.0*
1,1,0.0201,0.0182,0.0276*
1,1,0.0201,0.0182,-0.0276*
1,1,0.0201,-0.0182,-0.0276*
1,1,0.0201,-0.0182,0.0276*
%
%ADD59ROUNDEDRECTD59*%
%ADD60R,0.0749X0.0474*%
%ADD61C,0.1064*%
G04:AMPARAMS|DCode=62|XSize=106.4mil|YSize=67.1mil|CornerRadius=0mil|HoleSize=0mil|Usage=FLASHONLY|Rotation=327.000|XOffset=0mil|YOffset=0mil|HoleType=Round|Shape=Round|*
%AMOVALD62*
21,1,0.0394,0.0671,0.0000,0.0000,327.0*
1,1,0.0671,-0.0165,0.0107*
1,1,0.0671,0.0165,-0.0107*
%
%ADD62OVALD62*%

G04:AMPARAMS|DCode=63|XSize=83mil|YSize=98mil|CornerRadius=0mil|HoleSize=0mil|Usage=FLASHONLY|Rotation=30.000|XOffset=0mil|YOffset=0mil|HoleType=Round|Shape=Round|*
%AMOVALD63*
21,1,0.0150,0.0830,0.0000,0.0000,120.0*
1,1,0.0830,0.0038,-0.0065*
1,1,0.0830,-0.0038,0.0065*
%
%ADD63OVALD63*%

G04:AMPARAMS|DCode=64|XSize=83mil|YSize=98mil|CornerRadius=0mil|HoleSize=0mil|Usage=FLASHONLY|Rotation=30.000|XOffset=0mil|YOffset=0mil|HoleType=Round|Shape=Rectangle|*
%AMROTATEDRECTD64*
4,1,4,-0.0114,-0.0632,-0.0604,0.0217,0.0114,0.0632,0.0604,-0.0217,-0.0114,-0.0632,0.0*
%
%ADD64ROTATEDRECTD64*%

%ADD65C,0.0434*%
%ADD66C,0.0780*%
%ADD67R,0.0780X0.0780*%
G04:AMPARAMS|DCode=68|XSize=83mil|YSize=98mil|CornerRadius=0mil|HoleSize=0mil|Usage=FLASHONLY|Rotation=51.000|XOffset=0mil|YOffset=0mil|HoleType=Round|Shape=Rectangle|*
%AMROTATEDRECTD68*
4,1,4,0.0120,-0.0631,-0.0642,-0.0014,-0.0120,0.0631,0.0642,0.0014,0.0120,-0.0631,0.0*
%
%ADD68ROTATEDRECTD68*%

G04:AMPARAMS|DCode=69|XSize=83mil|YSize=98mil|CornerRadius=0mil|HoleSize=0mil|Usage=FLASHONLY|Rotation=51.000|XOffset=0mil|YOffset=0mil|HoleType=Round|Shape=Round|*
%AMOVALD69*
21,1,0.0150,0.0830,0.0000,0.0000,141.0*
1,1,0.0830,0.0058,-0.0047*
1,1,0.0830,-0.0058,0.0047*
%
%ADD69OVALD69*%

%ADD70O,0.0513X0.0749*%
G04:AMPARAMS|DCode=71|XSize=106.4mil|YSize=67.1mil|CornerRadius=0mil|HoleSize=0mil|Usage=FLASHONLY|Rotation=233.000|XOffset=0mil|YOffset=0mil|HoleType=Round|Shape=Round|*
%AMOVALD71*
21,1,0.0394,0.0671,0.0000,0.0000,233.0*
1,1,0.0671,0.0118,0.0157*
1,1,0.0671,-0.0118,-0.0157*
%
%ADD71OVALD71*%

%ADD72R,0.0434X0.0434*%
%ADD73C,0.0280*%
D39*
X009134Y00649D02*
D03*
X009134Y007205D02*
D03*
X001693Y011579D02*
D03*
X001693Y012294D02*
D03*
X008465Y005304D02*
D03*
X008465Y006019D02*
D03*
X009134Y005304D02*
D03*
X009134Y006019D02*
D03*
X013425Y00568D02*
D03*
X013425Y004965D02*
D03*
X016772Y014248D02*
D03*
X016772Y013533D02*
D03*
D40*
X008475Y006549D02*
D03*
Y007339D02*
D03*
X013415Y006322D02*
D03*
Y007112D02*
D03*
X005719Y018321D02*
D03*
Y019111D02*
D03*
X016782Y014896D02*
D03*
Y015686D02*
D03*
D41*
X004556Y006772D02*
D03*
X005271Y006772D02*
D03*
X004556Y00811D02*
D03*
Y007441D02*
D03*
X005271Y00878D02*
D03*
X004556Y008779D02*
D03*
X005271Y00811D02*
D03*
Y007441D02*
D03*
X016507Y010354D02*
D03*
X015792Y010354D02*
D03*
X012176Y008425D02*
D03*
X011461Y008425D02*
D03*
X008257Y008425D02*
D03*
X008972Y008425D02*
D03*
X002642Y014626D02*
D03*
X003357Y014626D02*
D03*
D42*
X017997Y01659D02*
D03*
X017441Y017165D02*
D03*
X016885Y017741D02*
D03*
X016329Y018316D02*
D03*
D43*
X002139Y008392D02*
D03*
X002855Y008726D02*
D03*
X003135Y008122D02*
D03*
X002419Y007789D02*
D03*
D44*
X012894Y012913D02*
D03*
X008894D02*
D03*
X009394D02*
D03*
X009894D02*
D03*
X010394D02*
D03*
X010894D02*
D03*
X013394D02*
D03*
X012394D02*
D03*
X011894D02*
D03*
X011394D02*
D03*
D45*
X007699Y013906D02*
D03*
X014589Y017406D02*
D03*
Y018906D02*
D03*
Y019906D02*
D03*
Y019406D02*
D03*
Y018406D02*
D03*
Y017906D02*
D03*
Y016906D02*
D03*
Y016406D02*
D03*
Y015906D02*
D03*
Y015406D02*
D03*
Y014906D02*
D03*
Y014406D02*
D03*
Y013906D02*
D03*
Y013406D02*
D03*
X007699Y019906D02*
D03*
Y019406D02*
D03*
Y018906D02*
D03*
Y018406D02*
D03*
Y017906D02*
D03*
Y017406D02*
D03*
Y016906D02*
D03*
Y016406D02*
D03*
Y015906D02*
D03*
Y015406D02*
D03*
Y014906D02*
D03*
Y014406D02*
D03*
Y013406D02*
D03*
D46*
X003589Y007014D02*
D03*
X003697Y006782D02*
D03*
X003005Y006459D02*
D03*
X002681Y007155D02*
D03*
X002789Y006923D02*
D03*
X002897Y006691D02*
D03*
X003373Y007478D02*
D03*
X003481Y007246D02*
D03*
D47*
X001693Y010207D02*
D03*
Y010817D02*
D03*
D48*
X016552Y011053D02*
D03*
X015762D02*
D03*
X009833Y008435D02*
D03*
X010623D02*
D03*
D49*
X013299Y00999D02*
D03*
Y009734D02*
D03*
Y009478D02*
D03*
Y009222D02*
D03*
X011032D02*
D03*
Y009478D02*
D03*
Y009734D02*
D03*
Y00999D02*
D03*
D50*
X003635Y005422D02*
D03*
X004081Y005838D02*
D03*
X004108Y004871D02*
D03*
X004554Y005287D02*
D03*
D51*
X011434Y007598D02*
D03*
X010534D02*
D03*
D52*
X007835Y009528D02*
D03*
X009016Y009154D02*
D03*
Y009528D02*
D03*
Y009902D02*
D03*
X007835D02*
D03*
Y009154D02*
D03*
D53*
X010984Y006024D02*
D03*
D54*
X01001Y005274D02*
D03*
Y005774D02*
D03*
Y006274D02*
D03*
Y006774D02*
D03*
X011959D02*
D03*
Y006274D02*
D03*
Y005774D02*
D03*
Y005274D02*
D03*
D55*
X011949Y003765D02*
D03*
X009783D02*
D03*
D56*
X011465D02*
D03*
X010268D02*
D03*
D57*
X010669D02*
D03*
X011063D02*
D03*
D58*
X011104Y016315D02*
D03*
X010002D02*
D03*
X010553D02*
D03*
X011104Y017417D02*
D03*
X010002D02*
D03*
X010553D02*
D03*
X011104Y016866D02*
D03*
X010002D02*
D03*
X010553D02*
D03*
D59*
X006654Y019468D02*
D03*
Y018406D02*
D03*
D60*
X015827Y015236D02*
D03*
Y013898D02*
D03*
D61*
X005995Y005832D02*
D03*
X008273Y004352D02*
D03*
X006186Y016809D02*
D03*
X004551Y01464D02*
D03*
D62*
X007341Y003784D02*
D03*
X005855Y004749D02*
D03*
D63*
X015669Y003898D02*
D03*
D64*
X014803Y003398D02*
D03*
D65*
X005118Y011732D02*
D03*
Y01124D02*
D03*
Y013209D02*
D03*
Y012717D02*
D03*
Y010748D02*
D03*
Y012224D02*
D03*
D66*
X002756Y010283D02*
D03*
Y011283D02*
D03*
Y012283D02*
D03*
D67*
Y013283D02*
D03*
D68*
X017441Y005433D02*
D03*
D69*
X01807Y00621D02*
D03*
D70*
X012567Y003706D02*
D03*
X009165D02*
D03*
X012567Y00221D02*
D03*
X009165Y00221D02*
D03*
D71*
X00405Y01561D02*
D03*
X005116Y017024D02*
D03*
D72*
X005118Y010256D02*
D03*
D73*
X015787Y010118D02*
D03*
M02*
