M48
;Layer_Color=9474304
;FILE_FORMAT=2:4
INCH,LZ
;TYPE=PLATED
T1F00S00C0.0100
T2F00S00C0.0118
T3F00S00C0.0150
T4F00S00C0.0197
T7F00S00C0.0340
T8F00S00C0.0591
;TYPE=NON_PLATED
T9F00S00C0.0394
%
T01
X003469Y005546
X004252Y005984
X004685Y005157
X004935Y004362
X009764Y004055
X009671Y005774
X009659Y006274
X00937Y008661
X009488Y009528
X011535Y01
Y010748
X011496Y012047
X010669Y011457
X010709Y013504
X008959Y013526
X009764Y014921
X012087Y014055
X012441
X012795
X01315
X01374Y01437
X00685Y014409
Y013898
X007874Y012047
X008228Y011732
X007874Y011102
X014016Y007165
X015787Y010118
X015827Y017126
X015236
X013898Y016535
Y016181
X008622Y016063
X008504Y01689
X008976Y018465
X009016Y019267
T02
X013465Y010669
Y01122
X01374Y010945
X014016Y01122
X01374Y011496
X014291
X014567Y01122
X014291Y010945
Y010394
X014567Y010669
X014016Y010669
X01374Y010394
X010829Y016315
X010278
X010002Y016591
Y017142
X010278Y016866
Y017417
X010829
Y016866
X010553Y017142
X011104
Y016591
X010553
T03
X004055Y006535
X006142Y007402
X006102Y008307
X005591Y009016
X002795Y009291
X008071Y010433
X009134Y010748
X00939Y007992
X012756Y006811
X011181Y004961
X01791Y007319
X017598Y015787
X015827Y018661
X011339Y018071
X008346Y01937
X005199Y018648
T04
X005118Y010256
Y010748
Y01124
Y011732
Y012224
Y012717
Y013209
T07
X014803Y003398
X015669Y003898
X017441Y005433
X01807Y00621
T08
X005995Y005832
X008273Y004352
X004551Y01464
X006186Y016809
T09
X002756Y010283
Y011283
Y012283
Y013283
M30
