G04*
G04 #@! TF.GenerationSoftware,Altium Limited,Altium Designer,21.2.1 (34)*
G04*
G04 Layer_Color=2752767*
%FSTAX24Y24*%
%MOIN*%
G70*
G04*
G04 #@! TF.SameCoordinates,69041C72-035C-4FA9-9E98-1EB6260ED9D6*
G04*
G04*
G04 #@! TF.FilePolarity,Positive*
G04*
G01*
G75*
%ADD109C,0.0020*%
%ADD110C,0.0027*%
D109*
X005915Y005752D02*
Y005912D01*
X006075D01*
Y005752D01*
X005915D01*
X008193Y004272D02*
Y004432D01*
X008353D01*
Y004272D01*
X008193D01*
X015669Y003818D02*
X015589Y003978D01*
X015749D01*
X015669Y003818D01*
X014803Y003318D02*
X014723Y003478D01*
X014883D01*
X014803Y003318D01*
X005118Y011652D02*
X005158Y011692D01*
X005198D01*
X005158Y011732D01*
X005198Y011772D01*
X005158D01*
X005118Y011812D01*
X005078Y011772D01*
X005038D01*
X005078Y011732D01*
X005038Y011692D01*
X005078D01*
X005118Y011652D01*
Y01116D02*
X005158Y0112D01*
X005198D01*
X005158Y01124D01*
X005198Y01128D01*
X005158D01*
X005118Y01132D01*
X005078Y01128D01*
X005038D01*
X005078Y01124D01*
X005038Y0112D01*
X005078D01*
X005118Y01116D01*
X002676Y010203D02*
X002716Y010283D01*
X002676Y010363D01*
X002756Y010323D01*
X002836Y010363D01*
X002796Y010283D01*
X002836Y010203D01*
X002756Y010243D01*
X002676Y010203D01*
Y011203D02*
X002716Y011283D01*
X002676Y011363D01*
X002756Y011323D01*
X002836Y011363D01*
X002796Y011283D01*
X002836Y011203D01*
X002756Y011243D01*
X002676Y011203D01*
Y012203D02*
X002716Y012283D01*
X002676Y012363D01*
X002756Y012323D01*
X002836Y012363D01*
X002796Y012283D01*
X002836Y012203D01*
X002756Y012243D01*
X002676Y012203D01*
Y013203D02*
X002716Y013283D01*
X002676Y013363D01*
X002756Y013323D01*
X002836Y013363D01*
X002796Y013283D01*
X002836Y013203D01*
X002756Y013243D01*
X002676Y013203D01*
X017441Y005353D02*
X017361Y005513D01*
X017521D01*
X017441Y005353D01*
X01807Y00613D02*
X01799Y00629D01*
X01815D01*
X01807Y00613D01*
X012527Y003666D02*
Y003626D01*
X012607D01*
Y003666D01*
X012647D01*
Y003746D01*
X012607D01*
Y003786D01*
X012527D01*
Y003746D01*
X012487D01*
Y003666D01*
X012527D01*
X009125D02*
Y003626D01*
X009205D01*
Y003666D01*
X009245D01*
Y003746D01*
X009205D01*
Y003786D01*
X009125D01*
Y003746D01*
X009085D01*
Y003666D01*
X009125D01*
X012527Y00217D02*
Y00213D01*
X012607D01*
Y00217D01*
X012647D01*
Y00225D01*
X012607D01*
Y00229D01*
X012527D01*
Y00225D01*
X012487D01*
Y00217D01*
X012527D01*
X009125Y00217D02*
Y00213D01*
X009205D01*
Y00217D01*
X009245D01*
Y00225D01*
X009205D01*
Y00229D01*
X009125D01*
Y00225D01*
X009085D01*
Y00217D01*
X009125D01*
X010749Y016235D02*
X010789D01*
X010829Y016275D01*
X010869Y016235D01*
X010909D01*
Y016275D01*
X010869Y016315D01*
X010909Y016355D01*
Y016395D01*
X010869D01*
X010829Y016355D01*
X010789Y016395D01*
X010749D01*
Y016355D01*
X010789Y016315D01*
X010749Y016275D01*
Y016235D01*
X010198D02*
X010238D01*
X010278Y016275D01*
X010318Y016235D01*
X010358D01*
Y016275D01*
X010318Y016315D01*
X010358Y016355D01*
Y016395D01*
X010318D01*
X010278Y016355D01*
X010238Y016395D01*
X010198D01*
Y016355D01*
X010238Y016315D01*
X010198Y016275D01*
Y016235D01*
X010749Y017337D02*
X010789D01*
X010829Y017377D01*
X010869Y017337D01*
X010909D01*
Y017377D01*
X010869Y017417D01*
X010909Y017457D01*
Y017497D01*
X010869D01*
X010829Y017457D01*
X010789Y017497D01*
X010749D01*
Y017457D01*
X010789Y017417D01*
X010749Y017377D01*
Y017337D01*
X010198D02*
X010238D01*
X010278Y017377D01*
X010318Y017337D01*
X010358D01*
Y017377D01*
X010318Y017417D01*
X010358Y017457D01*
Y017497D01*
X010318D01*
X010278Y017457D01*
X010238Y017497D01*
X010198D01*
Y017457D01*
X010238Y017417D01*
X010198Y017377D01*
Y017337D01*
X011024Y016511D02*
X011064D01*
X011104Y016551D01*
X011144Y016511D01*
X011184D01*
Y016551D01*
X011144Y016591D01*
X011184Y016631D01*
Y016671D01*
X011144D01*
X011104Y016631D01*
X011064Y016671D01*
X011024D01*
Y016631D01*
X011064Y016591D01*
X011024Y016551D01*
Y016511D01*
X009922D02*
X009962D01*
X010002Y016551D01*
X010042Y016511D01*
X010082D01*
Y016551D01*
X010042Y016591D01*
X010082Y016631D01*
Y016671D01*
X010042D01*
X010002Y016631D01*
X009962Y016671D01*
X009922D01*
Y016631D01*
X009962Y016591D01*
X009922Y016551D01*
Y016511D01*
X011024Y017062D02*
X011064D01*
X011104Y017102D01*
X011144Y017062D01*
X011184D01*
Y017102D01*
X011144Y017142D01*
X011184Y017182D01*
Y017222D01*
X011144D01*
X011104Y017182D01*
X011064Y017222D01*
X011024D01*
Y017182D01*
X011064Y017142D01*
X011024Y017102D01*
Y017062D01*
X009922D02*
X009962D01*
X010002Y017102D01*
X010042Y017062D01*
X010082D01*
Y017102D01*
X010042Y017142D01*
X010082Y017182D01*
Y017222D01*
X010042D01*
X010002Y017182D01*
X009962Y017222D01*
X009922D01*
Y017182D01*
X009962Y017142D01*
X009922Y017102D01*
Y017062D01*
X010749Y016786D02*
X010789D01*
X010829Y016826D01*
X010869Y016786D01*
X010909D01*
Y016826D01*
X010869Y016866D01*
X010909Y016906D01*
Y016946D01*
X010869D01*
X010829Y016906D01*
X010789Y016946D01*
X010749D01*
Y016906D01*
X010789Y016866D01*
X010749Y016826D01*
Y016786D01*
X010198D02*
X010238D01*
X010278Y016826D01*
X010318Y016786D01*
X010358D01*
Y016826D01*
X010318Y016866D01*
X010358Y016906D01*
Y016946D01*
X010318D01*
X010278Y016906D01*
X010238Y016946D01*
X010198D01*
Y016906D01*
X010238Y016866D01*
X010198Y016826D01*
Y016786D01*
X010473Y017062D02*
X010513D01*
X010553Y017102D01*
X010593Y017062D01*
X010633D01*
Y017102D01*
X010593Y017142D01*
X010633Y017182D01*
Y017222D01*
X010593D01*
X010553Y017182D01*
X010513Y017222D01*
X010473D01*
Y017182D01*
X010513Y017142D01*
X010473Y017102D01*
Y017062D01*
Y016511D02*
X010513D01*
X010553Y016551D01*
X010593Y016511D01*
X010633D01*
Y016551D01*
X010593Y016591D01*
X010633Y016631D01*
Y016671D01*
X010593D01*
X010553Y016631D01*
X010513Y016671D01*
X010473D01*
Y016631D01*
X010513Y016591D01*
X010473Y016551D01*
Y016511D01*
X013385Y01114D02*
X013425D01*
X013465Y01118D01*
X013505Y01114D01*
X013545D01*
Y01118D01*
X013505Y01122D01*
X013545Y01126D01*
Y0113D01*
X013505D01*
X013465Y01126D01*
X013425Y0113D01*
X013385D01*
Y01126D01*
X013425Y01122D01*
X013385Y01118D01*
Y01114D01*
Y010589D02*
X013425D01*
X013465Y010629D01*
X013505Y010589D01*
X013545D01*
Y010629D01*
X013505Y010669D01*
X013545Y010709D01*
Y010749D01*
X013505D01*
X013465Y010709D01*
X013425Y010749D01*
X013385D01*
Y010709D01*
X013425Y010669D01*
X013385Y010629D01*
Y010589D01*
X013936Y01114D02*
X013976D01*
X014016Y01118D01*
X014056Y01114D01*
X014096D01*
Y01118D01*
X014056Y01122D01*
X014096Y01126D01*
Y0113D01*
X014056D01*
X014016Y01126D01*
X013976Y0113D01*
X013936D01*
Y01126D01*
X013976Y01122D01*
X013936Y01118D01*
Y01114D01*
Y010589D02*
X013976D01*
X014016Y010629D01*
X014056Y010589D01*
X014096D01*
Y010629D01*
X014056Y010669D01*
X014096Y010709D01*
Y010749D01*
X014056D01*
X014016Y010709D01*
X013976Y010749D01*
X013936D01*
Y010709D01*
X013976Y010669D01*
X013936Y010629D01*
Y010589D01*
X014487Y01114D02*
X014527D01*
X014567Y01118D01*
X014607Y01114D01*
X014647D01*
Y01118D01*
X014607Y01122D01*
X014647Y01126D01*
Y0113D01*
X014607D01*
X014567Y01126D01*
X014527Y0113D01*
X014487D01*
Y01126D01*
X014527Y01122D01*
X014487Y01118D01*
Y01114D01*
X014487Y010589D02*
X014527D01*
X014567Y010629D01*
X014607Y010589D01*
X014647D01*
Y010629D01*
X014607Y010669D01*
X014647Y010709D01*
Y010749D01*
X014607D01*
X014567Y010709D01*
X014527Y010749D01*
X014487D01*
Y010709D01*
X014527Y010669D01*
X014487Y010629D01*
Y010589D01*
X01366Y011416D02*
X0137D01*
X01374Y011456D01*
X01378Y011416D01*
X01382D01*
Y011456D01*
X01378Y011496D01*
X01382Y011536D01*
Y011576D01*
X01378D01*
X01374Y011536D01*
X0137Y011576D01*
X01366D01*
Y011536D01*
X0137Y011496D01*
X01366Y011456D01*
Y011416D01*
X01366Y010865D02*
X0137D01*
X01374Y010905D01*
X01378Y010865D01*
X01382D01*
Y010905D01*
X01378Y010945D01*
X01382Y010985D01*
Y011025D01*
X01378D01*
X01374Y010985D01*
X0137Y011025D01*
X01366D01*
Y010985D01*
X0137Y010945D01*
X01366Y010905D01*
Y010865D01*
X01366Y010314D02*
X0137D01*
X01374Y010354D01*
X01378Y010314D01*
X01382D01*
Y010354D01*
X01378Y010394D01*
X01382Y010434D01*
Y010474D01*
X01378D01*
X01374Y010434D01*
X0137Y010474D01*
X01366D01*
Y010434D01*
X0137Y010394D01*
X01366Y010354D01*
Y010314D01*
X014211Y011416D02*
X014251D01*
X014291Y011456D01*
X014331Y011416D01*
X014371D01*
Y011456D01*
X014331Y011496D01*
X014371Y011536D01*
Y011576D01*
X014331D01*
X014291Y011536D01*
X014251Y011576D01*
X014211D01*
Y011536D01*
X014251Y011496D01*
X014211Y011456D01*
Y011416D01*
X014211Y010314D02*
X014251D01*
X014291Y010354D01*
X014331Y010314D01*
X014371D01*
Y010354D01*
X014331Y010394D01*
X014371Y010434D01*
Y010474D01*
X014331D01*
X014291Y010434D01*
X014251Y010474D01*
X014211D01*
Y010434D01*
X014251Y010394D01*
X014211Y010354D01*
Y010314D01*
Y010865D02*
X014251D01*
X014291Y010905D01*
X014331Y010865D01*
X014371D01*
Y010905D01*
X014331Y010945D01*
X014371Y010985D01*
Y011025D01*
X014331D01*
X014291Y010985D01*
X014251Y011025D01*
X014211D01*
Y010985D01*
X014251Y010945D01*
X014211Y010905D01*
Y010865D01*
X006106Y016729D02*
Y016889D01*
X006266D01*
Y016729D01*
X006106D01*
X004471Y01456D02*
Y01472D01*
X004631D01*
Y01456D01*
X004471D01*
X005118Y013129D02*
X005158Y013169D01*
X005198D01*
X005158Y013209D01*
X005198Y013249D01*
X005158D01*
X005118Y013289D01*
X005078Y013249D01*
X005038D01*
X005078Y013209D01*
X005038Y013169D01*
X005078D01*
X005118Y013129D01*
Y012637D02*
X005158Y012677D01*
X005198D01*
X005158Y012717D01*
X005198Y012757D01*
X005158D01*
X005118Y012797D01*
X005078Y012757D01*
X005038D01*
X005078Y012717D01*
X005038Y012677D01*
X005078D01*
X005118Y012637D01*
Y010176D02*
X005158Y010216D01*
X005198D01*
X005158Y010256D01*
X005198Y010296D01*
X005158D01*
X005118Y010336D01*
X005078Y010296D01*
X005038D01*
X005078Y010256D01*
X005038Y010216D01*
X005078D01*
X005118Y010176D01*
Y010668D02*
X005158Y010708D01*
X005198D01*
X005158Y010748D01*
X005198Y010788D01*
X005158D01*
X005118Y010828D01*
X005078Y010788D01*
X005038D01*
X005078Y010748D01*
X005038Y010708D01*
X005078D01*
X005118Y010668D01*
Y012144D02*
X005158Y012184D01*
X005198D01*
X005158Y012224D01*
X005198Y012264D01*
X005158D01*
X005118Y012304D01*
X005078Y012264D01*
X005038D01*
X005078Y012224D01*
X005038Y012184D01*
X005078D01*
X005118Y012144D01*
X011455Y01D02*
X011535Y01008D01*
X011615Y01D01*
X011535Y00992D01*
X011455Y01D01*
X00677Y014409D02*
X00685Y014489D01*
X00693Y014409D01*
X00685Y014329D01*
X00677Y014409D01*
X011455Y010748D02*
X011535Y010828D01*
X011615Y010748D01*
X011535Y010668D01*
X011455Y010748D01*
X015747Y017126D02*
X015827Y017206D01*
X015907Y017126D01*
X015827Y017046D01*
X015747Y017126D01*
X015156D02*
X015236Y017206D01*
X015316Y017126D01*
X015236Y017046D01*
X015156Y017126D01*
X013818Y016181D02*
X013898Y016261D01*
X013978Y016181D01*
X013898Y016101D01*
X013818Y016181D01*
Y016535D02*
X013898Y016615D01*
X013978Y016535D01*
X013898Y016455D01*
X013818Y016535D01*
X013936Y007165D02*
X014016Y007245D01*
X014096Y007165D01*
X014016Y007085D01*
X013936Y007165D01*
X008896Y018465D02*
X008976Y018545D01*
X009056Y018465D01*
X008976Y018385D01*
X008896Y018465D01*
X015707Y010118D02*
X015787Y010198D01*
X015867Y010118D01*
X015787Y010038D01*
X015707Y010118D01*
X008542Y016063D02*
X008622Y016143D01*
X008702Y016063D01*
X008622Y015983D01*
X008542Y016063D01*
X008424Y01689D02*
X008504Y01697D01*
X008584Y01689D01*
X008504Y01681D01*
X008424Y01689D01*
X009684Y004055D02*
X009764Y004135D01*
X009844Y004055D01*
X009764Y003975D01*
X009684Y004055D01*
X00677Y013898D02*
X00685Y013978D01*
X00693Y013898D01*
X00685Y013818D01*
X00677Y013898D01*
X01366Y01437D02*
X01374Y01445D01*
X01382Y01437D01*
X01374Y01429D01*
X01366Y01437D01*
X01307Y014055D02*
X01315Y014135D01*
X01323Y014055D01*
X01315Y013975D01*
X01307Y014055D01*
X00929Y008661D02*
X00937Y008741D01*
X00945Y008661D01*
X00937Y008581D01*
X00929Y008661D01*
X009408Y009528D02*
X009488Y009608D01*
X009568Y009528D01*
X009488Y009448D01*
X009408Y009528D01*
X012715Y014055D02*
X012795Y014135D01*
X012875Y014055D01*
X012795Y013975D01*
X012715Y014055D01*
X012361D02*
X012441Y014135D01*
X012521Y014055D01*
X012441Y013975D01*
X012361Y014055D01*
X012007D02*
X012087Y014135D01*
X012167Y014055D01*
X012087Y013975D01*
X012007Y014055D01*
X010629Y013504D02*
X010709Y013584D01*
X010789Y013504D01*
X010709Y013424D01*
X010629Y013504D01*
X008879Y013526D02*
X008959Y013606D01*
X009039Y013526D01*
X008959Y013446D01*
X008879Y013526D01*
X008936Y019267D02*
X009016Y019347D01*
X009096Y019267D01*
X009016Y019187D01*
X008936Y019267D01*
X011416Y012047D02*
X011496Y012127D01*
X011576Y012047D01*
X011496Y011967D01*
X011416Y012047D01*
X010589Y011457D02*
X010669Y011537D01*
X010749Y011457D01*
X010669Y011377D01*
X010589Y011457D01*
X009684Y014921D02*
X009764Y015001D01*
X009844Y014921D01*
X009764Y014841D01*
X009684Y014921D01*
X009579Y006274D02*
X009659Y006354D01*
X009739Y006274D01*
X009659Y006194D01*
X009579Y006274D01*
X009591Y005774D02*
X009671Y005854D01*
X009751Y005774D01*
X009671Y005694D01*
X009591Y005774D01*
X004855Y004362D02*
X004935Y004442D01*
X005015Y004362D01*
X004935Y004282D01*
X004855Y004362D01*
X003389Y005546D02*
X003469Y005626D01*
X003549Y005546D01*
X003469Y005466D01*
X003389Y005546D01*
X004172Y005984D02*
X004252Y006064D01*
X004332Y005984D01*
X004252Y005904D01*
X004172Y005984D01*
X004605Y005157D02*
X004685Y005237D01*
X004765Y005157D01*
X004685Y005077D01*
X004605Y005157D01*
X008148Y011732D02*
X008228Y011812D01*
X008308Y011732D01*
X008228Y011652D01*
X008148Y011732D01*
X007794Y011102D02*
X007874Y011182D01*
X007954Y011102D01*
X007874Y011022D01*
X007794Y011102D01*
Y012047D02*
X007874Y012127D01*
X007954Y012047D01*
X007874Y011967D01*
X007794Y012047D01*
X003975Y006455D02*
Y006615D01*
X004135D01*
Y006455D01*
X003975D01*
X004015Y006495D02*
Y006575D01*
X004095D01*
Y006495D01*
X004015D01*
X006062Y007322D02*
Y007482D01*
X006222D01*
Y007322D01*
X006062D01*
X006102Y007362D02*
Y007442D01*
X006182D01*
Y007362D01*
X006102D01*
X006022Y008227D02*
Y008387D01*
X006182D01*
Y008227D01*
X006022D01*
X006062Y008267D02*
Y008347D01*
X006142D01*
Y008267D01*
X006062D01*
X002715Y009211D02*
Y009371D01*
X002875D01*
Y009211D01*
X002715D01*
X002755Y009251D02*
Y009331D01*
X002835D01*
Y009251D01*
X002755D01*
X007991Y010353D02*
Y010513D01*
X008151D01*
Y010353D01*
X007991D01*
X008031Y010393D02*
Y010473D01*
X008111D01*
Y010393D01*
X008031D01*
X005511Y008936D02*
Y009096D01*
X005671D01*
Y008936D01*
X005511D01*
X005551Y008976D02*
Y009056D01*
X005631D01*
Y008976D01*
X005551D01*
X011101Y004881D02*
Y005041D01*
X011261D01*
Y004881D01*
X011101D01*
X011141Y004921D02*
Y005001D01*
X011221D01*
Y004921D01*
X011141D01*
X009054Y010668D02*
Y010828D01*
X009214D01*
Y010668D01*
X009054D01*
X009094Y010708D02*
Y010788D01*
X009174D01*
Y010708D01*
X009094D01*
X01783Y007239D02*
Y007399D01*
X01799D01*
Y007239D01*
X01783D01*
X01787Y007279D02*
Y007359D01*
X01795D01*
Y007279D01*
X01787D01*
X015747Y018581D02*
Y018741D01*
X015907D01*
Y018581D01*
X015747D01*
X015787Y018621D02*
Y018701D01*
X015867D01*
Y018621D01*
X015787D01*
X017518Y015707D02*
Y015867D01*
X017678D01*
Y015707D01*
X017518D01*
X017558Y015747D02*
Y015827D01*
X017638D01*
Y015747D01*
X017558D01*
X005119Y018568D02*
Y018728D01*
X005279D01*
Y018568D01*
X005119D01*
X005159Y018608D02*
Y018688D01*
X005239D01*
Y018608D01*
X005159D01*
X011259Y017991D02*
Y018151D01*
X011419D01*
Y017991D01*
X011259D01*
X011299Y018031D02*
Y018111D01*
X011379D01*
Y018031D01*
X011299D01*
X008266Y01929D02*
Y01945D01*
X008426D01*
Y01929D01*
X008266D01*
X008306Y01933D02*
Y01941D01*
X008386D01*
Y01933D01*
X008306D01*
X012676Y006731D02*
Y006891D01*
X012836D01*
Y006731D01*
X012676D01*
X012716Y006771D02*
Y006851D01*
X012796D01*
Y006771D01*
X012716D01*
X00931Y007912D02*
Y008072D01*
X00947D01*
Y007912D01*
X00931D01*
X00935Y007952D02*
Y008032D01*
X00943D01*
Y007952D01*
X00935D01*
D110*
X007421Y003784D02*
G03*
X007421Y003784I-00008J0D01*
G01*
X005935Y004749D02*
G03*
X005935Y004749I-00008J0D01*
G01*
X00413Y01561D02*
G03*
X00413Y01561I-00008J0D01*
G01*
X005196Y017024D02*
G03*
X005196Y017024I-00008J0D01*
G01*
M02*
