G04*
G04 #@! TF.GenerationSoftware,Altium Limited,Altium Designer,21.2.1 (34)*
G04*
G04 Layer_Color=128*
%FSTAX24Y24*%
%MOIN*%
G70*
G04*
G04 #@! TF.SameCoordinates,69041C72-035C-4FA9-9E98-1EB6260ED9D6*
G04*
G04*
G04 #@! TF.FilePolarity,Positive*
G04*
G01*
G75*
%ADD18R,0.0354X0.0236*%
%ADD19R,0.0394X0.0394*%
%ADD20R,0.0236X0.0354*%
G04:AMPARAMS|DCode=21|XSize=40mil|YSize=70mil|CornerRadius=0mil|HoleSize=0mil|Usage=FLASHONLY|Rotation=134.000|XOffset=0mil|YOffset=0mil|HoleType=Round|Shape=Rectangle|*
%AMROTATEDRECTD21*
4,1,4,0.0391,0.0099,-0.0113,-0.0387,-0.0391,-0.0099,0.0113,0.0387,0.0391,0.0099,0.0*
%
%ADD21ROTATEDRECTD21*%

%ADD27R,0.0394X0.0394*%
G04:AMPARAMS|DCode=37|XSize=67.3mil|YSize=48.4mil|CornerRadius=6.1mil|HoleSize=0mil|Usage=FLASHONLY|Rotation=90.000|XOffset=0mil|YOffset=0mil|HoleType=Round|Shape=RoundedRectangle|*
%AMROUNDEDRECTD37*
21,1,0.0673,0.0363,0,0,90.0*
21,1,0.0552,0.0484,0,0,90.0*
1,1,0.0121,0.0182,0.0276*
1,1,0.0121,0.0182,-0.0276*
1,1,0.0121,-0.0182,-0.0276*
1,1,0.0121,-0.0182,0.0276*
%
%ADD37ROUNDEDRECTD37*%
%ADD93R,0.0354X0.0354*%
G04:AMPARAMS|DCode=95|XSize=35.4mil|YSize=9.8mil|CornerRadius=2mil|HoleSize=0mil|Usage=FLASHONLY|Rotation=90.000|XOffset=0mil|YOffset=0mil|HoleType=Round|Shape=RoundedRectangle|*
%AMROUNDEDRECTD95*
21,1,0.0354,0.0059,0,0,90.0*
21,1,0.0315,0.0098,0,0,90.0*
1,1,0.0039,0.0030,0.0157*
1,1,0.0039,0.0030,-0.0157*
1,1,0.0039,-0.0030,-0.0157*
1,1,0.0039,-0.0030,0.0157*
%
%ADD95ROUNDEDRECTD95*%
G04:AMPARAMS|DCode=96|XSize=23.6mil|YSize=9.8mil|CornerRadius=2mil|HoleSize=0mil|Usage=FLASHONLY|Rotation=90.000|XOffset=0mil|YOffset=0mil|HoleType=Round|Shape=RoundedRectangle|*
%AMROUNDEDRECTD96*
21,1,0.0236,0.0059,0,0,90.0*
21,1,0.0197,0.0098,0,0,90.0*
1,1,0.0039,0.0030,0.0098*
1,1,0.0039,0.0030,-0.0098*
1,1,0.0039,-0.0030,-0.0098*
1,1,0.0039,-0.0030,0.0098*
%
%ADD96ROUNDEDRECTD96*%
%ADD98R,0.0591X0.0945*%
%ADD99R,0.0550X0.0500*%
G04:AMPARAMS|DCode=100|XSize=67.3mil|YSize=48.4mil|CornerRadius=6.1mil|HoleSize=0mil|Usage=FLASHONLY|Rotation=180.000|XOffset=0mil|YOffset=0mil|HoleType=Round|Shape=RoundedRectangle|*
%AMROUNDEDRECTD100*
21,1,0.0673,0.0363,0,0,180.0*
21,1,0.0552,0.0484,0,0,180.0*
1,1,0.0121,-0.0276,0.0182*
1,1,0.0121,0.0276,0.0182*
1,1,0.0121,0.0276,-0.0182*
1,1,0.0121,-0.0276,-0.0182*
%
%ADD100ROUNDEDRECTD100*%
%ADD101R,0.0591X0.0354*%
%ADD102R,0.0354X0.0591*%
G36*
X007057Y008192D02*
Y008193D01*
X007056Y008194D01*
Y008195D01*
X007056Y008196D01*
X007056Y008197D01*
X007055Y008198D01*
X007054Y008199D01*
X007054Y0082D01*
X007053Y0082D01*
X007053Y008201D01*
X007052Y008202D01*
X007051Y008203D01*
X00705Y008204D01*
X00705Y008204D01*
X007049Y008205D01*
X007048Y008206D01*
X007047Y008206D01*
X007046Y008207D01*
X007045Y008207D01*
X007044Y008207D01*
X007043Y008208D01*
X007043D01*
X007041Y008208D01*
X007041D01*
X007039Y008209D01*
X007039D01*
X007037D01*
X006978D01*
X006977D01*
X006976D01*
X006975Y008208D01*
X006974D01*
X006973Y008208D01*
X006972D01*
X006971Y008207D01*
X00697Y008207D01*
X006969Y008207D01*
X006969Y008206D01*
X006968Y008206D01*
X006967Y008205D01*
X006966Y008204D01*
X006965Y008204D01*
X006965Y008203D01*
X006964Y008202D01*
X006963Y008201D01*
X006963Y0082D01*
X006962Y0082D01*
X006961Y008199D01*
X006961Y008198D01*
X00696Y008197D01*
X00696Y008196D01*
X006959Y008195D01*
Y008194D01*
X006959Y008193D01*
Y008192D01*
X006959Y008191D01*
Y00801D01*
X006959Y008009D01*
Y008008D01*
X006959Y008007D01*
Y008006D01*
X00696Y008005D01*
X00696Y008004D01*
X006961Y008003D01*
X006961Y008002D01*
X006962Y008001D01*
X006963Y008D01*
X006963Y008D01*
X006964Y007999D01*
X006965Y007998D01*
X006965Y007997D01*
X006966Y007996D01*
X006967Y007996D01*
X006968Y007995D01*
X006969Y007995D01*
X006969Y007994D01*
X00697Y007994D01*
X006971Y007993D01*
X006972Y007993D01*
X006973D01*
X006974Y007993D01*
X006975D01*
X006976Y007992D01*
X006977D01*
X006978D01*
X007037D01*
X007039D01*
X007039D01*
X007041Y007993D01*
X007041D01*
X007043Y007993D01*
X007043D01*
X007044Y007993D01*
X007045Y007994D01*
X007046Y007994D01*
X007047Y007995D01*
X007048Y007995D01*
X007049Y007996D01*
X00705Y007996D01*
X00705Y007997D01*
X007051Y007998D01*
X007052Y007999D01*
X007053Y008D01*
X007053Y008D01*
X007054Y008001D01*
X007054Y008002D01*
X007055Y008003D01*
X007056Y008004D01*
X007056Y008005D01*
X007056Y008006D01*
Y008007D01*
X007057Y008008D01*
Y008009D01*
X007057Y00801D01*
Y008191D01*
X007057Y008192D01*
D02*
G37*
G36*
Y008487D02*
Y008488D01*
X007056Y008489D01*
Y00849D01*
X007056Y008491D01*
X007056Y008492D01*
X007055Y008493D01*
X007054Y008494D01*
X007054Y008495D01*
X007053Y008496D01*
X007053Y008496D01*
X007052Y008497D01*
X007051Y008498D01*
X00705Y008499D01*
X00705Y0085D01*
X007049Y0085D01*
X007048Y008501D01*
X007047Y008501D01*
X007046Y008502D01*
X007045Y008502D01*
X007044Y008503D01*
X007043Y008503D01*
X007043D01*
X007041Y008504D01*
X007041D01*
X007039Y008504D01*
X007039D01*
X007037D01*
X006978D01*
X006977D01*
X006976D01*
X006975Y008504D01*
X006974D01*
X006973Y008503D01*
X006972D01*
X006971Y008503D01*
X00697Y008502D01*
X006969Y008502D01*
X006969Y008501D01*
X006968Y008501D01*
X006967Y0085D01*
X006966Y0085D01*
X006965Y008499D01*
X006965Y008498D01*
X006964Y008497D01*
X006963Y008496D01*
X006963Y008496D01*
X006962Y008495D01*
X006961Y008494D01*
X006961Y008493D01*
X00696Y008492D01*
X00696Y008491D01*
X006959Y00849D01*
Y008489D01*
X006959Y008488D01*
Y008487D01*
X006959Y008486D01*
Y008305D01*
X006959Y008304D01*
Y008303D01*
X006959Y008302D01*
Y008301D01*
X00696Y0083D01*
X00696Y008299D01*
X006961Y008298D01*
X006961Y008297D01*
X006962Y008296D01*
X006963Y008296D01*
X006963Y008295D01*
X006964Y008294D01*
X006965Y008293D01*
X006965Y008293D01*
X006966Y008292D01*
X006967Y008291D01*
X006968Y008291D01*
X006969Y00829D01*
X006969Y008289D01*
X00697Y008289D01*
X006971Y008289D01*
X006972Y008288D01*
X006973D01*
X006974Y008288D01*
X006975D01*
X006976Y008287D01*
X006977D01*
X006978D01*
X007037D01*
X007039D01*
X007039D01*
X007041Y008288D01*
X007041D01*
X007043Y008288D01*
X007043D01*
X007044Y008289D01*
X007045Y008289D01*
X007046Y008289D01*
X007047Y00829D01*
X007048Y008291D01*
X007049Y008291D01*
X00705Y008292D01*
X00705Y008293D01*
X007051Y008293D01*
X007052Y008294D01*
X007053Y008295D01*
X007053Y008296D01*
X007054Y008296D01*
X007054Y008297D01*
X007055Y008298D01*
X007056Y008299D01*
X007056Y0083D01*
X007056Y008301D01*
Y008302D01*
X007057Y008303D01*
Y008304D01*
X007057Y008305D01*
Y008486D01*
X007057Y008487D01*
D02*
G37*
D18*
X013661Y018297D02*
D03*
X013661Y019011D02*
D03*
X010547Y018297D02*
D03*
X010547Y019011D02*
D03*
X011326Y019026D02*
D03*
X011326Y018311D02*
D03*
X009769Y019026D02*
D03*
X009769Y018311D02*
D03*
X015827Y01654D02*
D03*
X015827Y017255D02*
D03*
X015197Y01654D02*
D03*
X015197Y017255D02*
D03*
D19*
X012898Y018281D02*
D03*
Y019071D02*
D03*
X009006D02*
D03*
Y018281D02*
D03*
X01212D02*
D03*
Y019071D02*
D03*
D20*
X007294Y006614D02*
D03*
X006579Y006614D02*
D03*
X008514Y006614D02*
D03*
X0078Y006614D02*
D03*
X007294Y007205D02*
D03*
X006579Y007205D02*
D03*
D21*
X016329Y018316D02*
D03*
X016885Y017741D02*
D03*
X017441Y017165D02*
D03*
X017997Y01659D02*
D03*
D27*
X017207Y007165D02*
D03*
X016417D02*
D03*
D37*
X008701Y008012D02*
D03*
Y009075D02*
D03*
D93*
X014567Y011496D02*
D03*
Y010945D02*
D03*
X014567Y010394D02*
D03*
X013465Y011496D02*
D03*
Y010945D02*
D03*
Y010394D02*
D03*
X014016Y011496D02*
D03*
Y010394D02*
D03*
X014016Y010945D02*
D03*
D95*
X007402Y008327D02*
D03*
X007205D02*
D03*
X006811D02*
D03*
X006614D02*
D03*
D96*
Y007677D02*
D03*
X006811D02*
D03*
X007008D02*
D03*
X007205D02*
D03*
X007402D02*
D03*
D98*
X006299Y009685D02*
D03*
X007756D02*
D03*
D99*
X004488Y007503D02*
D03*
Y008403D02*
D03*
X005512Y007503D02*
D03*
Y008403D02*
D03*
D100*
X015394Y007165D02*
D03*
X014331D02*
D03*
D101*
X010063Y014285D02*
D03*
Y013785D02*
D03*
Y013285D02*
D03*
X010063Y012785D02*
D03*
X010063Y012285D02*
D03*
Y011785D02*
D03*
Y011285D02*
D03*
Y010785D02*
D03*
Y010285D02*
D03*
X010063Y009785D02*
D03*
X010063Y009285D02*
D03*
Y008785D02*
D03*
D102*
X017055Y01498D02*
D03*
X016555D02*
D03*
X016055D02*
D03*
X015555D02*
D03*
X015055D02*
D03*
X014555Y01498D02*
D03*
X014055Y01498D02*
D03*
X013555D02*
D03*
X013055D02*
D03*
X012555D02*
D03*
X012055Y01498D02*
D03*
X011555Y01498D02*
D03*
X011055D02*
D03*
X010555D02*
D03*
Y008091D02*
D03*
X011055Y008091D02*
D03*
X011555D02*
D03*
X012055D02*
D03*
X012555D02*
D03*
X013055D02*
D03*
X013555D02*
D03*
X014055Y008091D02*
D03*
X014555Y008091D02*
D03*
X015055D02*
D03*
X015555Y008091D02*
D03*
X016055D02*
D03*
X016555Y008091D02*
D03*
X017055D02*
D03*
M02*
