G04*
G04 #@! TF.GenerationSoftware,Altium Limited,Altium Designer,21.2.1 (34)*
G04*
G04 Layer_Physical_Order=1*
G04 Layer_Color=255*
%FSTAX24Y24*%
%MOIN*%
G70*
G04*
G04 #@! TF.SameCoordinates,69041C72-035C-4FA9-9E98-1EB6260ED9D6*
G04*
G04*
G04 #@! TF.FilePolarity,Positive*
G04*
G01*
G75*
%ADD14C,0.0100*%
%ADD18R,0.0354X0.0236*%
%ADD19R,0.0394X0.0394*%
%ADD20R,0.0236X0.0354*%
G04:AMPARAMS|DCode=21|XSize=40mil|YSize=70mil|CornerRadius=0mil|HoleSize=0mil|Usage=FLASHONLY|Rotation=134.000|XOffset=0mil|YOffset=0mil|HoleType=Round|Shape=Rectangle|*
%AMROTATEDRECTD21*
4,1,4,0.0391,0.0099,-0.0113,-0.0387,-0.0391,-0.0099,0.0113,0.0387,0.0391,0.0099,0.0*
%
%ADD21ROTATEDRECTD21*%

%ADD22P,0.0557X4X160.0*%
%ADD23R,0.0354X0.0591*%
%ADD24R,0.0591X0.0354*%
G04:AMPARAMS|DCode=25|XSize=19.3mil|YSize=17.7mil|CornerRadius=2.2mil|HoleSize=0mil|Usage=FLASHONLY|Rotation=25.000|XOffset=0mil|YOffset=0mil|HoleType=Round|Shape=RoundedRectangle|*
%AMROUNDEDRECTD25*
21,1,0.0193,0.0133,0,0,25.0*
21,1,0.0149,0.0177,0,0,25.0*
1,1,0.0044,0.0095,-0.0029*
1,1,0.0044,-0.0039,-0.0092*
1,1,0.0044,-0.0095,0.0029*
1,1,0.0044,0.0039,0.0092*
%
%ADD25ROUNDEDRECTD25*%
%ADD26R,0.0382X0.0362*%
%ADD27R,0.0394X0.0394*%
%ADD28R,0.0614X0.0161*%
G04:AMPARAMS|DCode=29|XSize=36.2mil|YSize=38.2mil|CornerRadius=0mil|HoleSize=0mil|Usage=FLASHONLY|Rotation=43.000|XOffset=0mil|YOffset=0mil|HoleType=Round|Shape=Rectangle|*
%AMROTATEDRECTD29*
4,1,4,-0.0002,-0.0263,-0.0263,0.0016,0.0002,0.0263,0.0263,-0.0016,-0.0002,-0.0263,0.0*
%
%ADD29ROTATEDRECTD29*%

%ADD30R,0.0500X0.0550*%
%ADD31R,0.0591X0.0236*%
G04:AMPARAMS|DCode=32|XSize=77.6mil|YSize=23.6mil|CornerRadius=3mil|HoleSize=0mil|Usage=FLASHONLY|Rotation=180.000|XOffset=0mil|YOffset=0mil|HoleType=Round|Shape=RoundedRectangle|*
%AMROUNDEDRECTD32*
21,1,0.0776,0.0177,0,0,180.0*
21,1,0.0717,0.0236,0,0,180.0*
1,1,0.0059,-0.0358,0.0089*
1,1,0.0059,0.0358,0.0089*
1,1,0.0059,0.0358,-0.0089*
1,1,0.0059,-0.0358,-0.0089*
%
%ADD32ROUNDEDRECTD32*%
%ADD33R,0.0315X0.0591*%
%ADD34R,0.0299X0.0591*%
%ADD35R,0.0276X0.0591*%
%ADD36R,0.0354X0.0354*%
G04:AMPARAMS|DCode=37|XSize=67.3mil|YSize=48.4mil|CornerRadius=6.1mil|HoleSize=0mil|Usage=FLASHONLY|Rotation=90.000|XOffset=0mil|YOffset=0mil|HoleType=Round|Shape=RoundedRectangle|*
%AMROUNDEDRECTD37*
21,1,0.0673,0.0363,0,0,90.0*
21,1,0.0552,0.0484,0,0,90.0*
1,1,0.0121,0.0182,0.0276*
1,1,0.0121,0.0182,-0.0276*
1,1,0.0121,-0.0182,-0.0276*
1,1,0.0121,-0.0182,0.0276*
%
%ADD37ROUNDEDRECTD37*%
%ADD38R,0.0669X0.0394*%
%ADD74C,0.0080*%
%ADD75C,0.0200*%
%ADD76C,0.0100*%
%ADD77R,0.0900X0.1300*%
%ADD78C,0.0150*%
%ADD79C,0.0300*%
%ADD80C,0.0500*%
%ADD81C,0.0984*%
G04:AMPARAMS|DCode=82|XSize=98.4mil|YSize=59.1mil|CornerRadius=0mil|HoleSize=0mil|Usage=FLASHONLY|Rotation=327.000|XOffset=0mil|YOffset=0mil|HoleType=Round|Shape=Round|*
%AMOVALD82*
21,1,0.0394,0.0591,0.0000,0.0000,327.0*
1,1,0.0591,-0.0165,0.0107*
1,1,0.0591,0.0165,-0.0107*
%
%ADD82OVALD82*%

G04:AMPARAMS|DCode=83|XSize=75mil|YSize=90mil|CornerRadius=0mil|HoleSize=0mil|Usage=FLASHONLY|Rotation=30.000|XOffset=0mil|YOffset=0mil|HoleType=Round|Shape=Round|*
%AMOVALD83*
21,1,0.0150,0.0750,0.0000,0.0000,120.0*
1,1,0.0750,0.0038,-0.0065*
1,1,0.0750,-0.0038,0.0065*
%
%ADD83OVALD83*%

G04:AMPARAMS|DCode=84|XSize=75mil|YSize=90mil|CornerRadius=0mil|HoleSize=0mil|Usage=FLASHONLY|Rotation=30.000|XOffset=0mil|YOffset=0mil|HoleType=Round|Shape=Rectangle|*
%AMROTATEDRECTD84*
4,1,4,-0.0100,-0.0577,-0.0550,0.0202,0.0100,0.0577,0.0550,-0.0202,-0.0100,-0.0577,0.0*
%
%ADD84ROTATEDRECTD84*%

%ADD85C,0.0354*%
%ADD86C,0.0700*%
%ADD87R,0.0700X0.0700*%
G04:AMPARAMS|DCode=88|XSize=75mil|YSize=90mil|CornerRadius=0mil|HoleSize=0mil|Usage=FLASHONLY|Rotation=51.000|XOffset=0mil|YOffset=0mil|HoleType=Round|Shape=Rectangle|*
%AMROTATEDRECTD88*
4,1,4,0.0114,-0.0575,-0.0586,-0.0008,-0.0114,0.0575,0.0586,0.0008,0.0114,-0.0575,0.0*
%
%ADD88ROTATEDRECTD88*%

G04:AMPARAMS|DCode=89|XSize=75mil|YSize=90mil|CornerRadius=0mil|HoleSize=0mil|Usage=FLASHONLY|Rotation=51.000|XOffset=0mil|YOffset=0mil|HoleType=Round|Shape=Round|*
%AMOVALD89*
21,1,0.0150,0.0750,0.0000,0.0000,141.0*
1,1,0.0750,0.0058,-0.0047*
1,1,0.0750,-0.0058,0.0047*
%
%ADD89OVALD89*%

%ADD90O,0.0433X0.0669*%
%ADD91C,0.0200*%
G04:AMPARAMS|DCode=92|XSize=98.4mil|YSize=59.1mil|CornerRadius=0mil|HoleSize=0mil|Usage=FLASHONLY|Rotation=233.000|XOffset=0mil|YOffset=0mil|HoleType=Round|Shape=Round|*
%AMOVALD92*
21,1,0.0394,0.0591,0.0000,0.0000,233.0*
1,1,0.0591,0.0118,0.0157*
1,1,0.0591,-0.0118,-0.0157*
%
%ADD92OVALD92*%

%ADD93R,0.0354X0.0354*%
%ADD94C,0.0300*%
G36*
X010709Y009803D02*
Y009409D01*
X011339D01*
Y009803D01*
X010709D01*
D02*
G37*
G36*
X012992D02*
Y009409D01*
X014291D01*
Y009803D01*
X012992D01*
D02*
G37*
D14*
X002914Y006988D02*
G03*
X002965Y007049I-000046J000089D01*
G01*
X002621Y007108D02*
G03*
X002537Y006879I000073J-000156D01*
G01*
X002594Y006759D02*
G03*
X002822Y006675I000156J000073D01*
G01*
X003071Y007306D02*
G03*
X00302Y007245I000046J-000089D01*
G01*
X004118Y00698D02*
G03*
X004173Y00707I-000045J000089D01*
G01*
X003936Y006889D02*
G03*
X003938Y00689I-000042J000091D01*
G01*
X003882Y007177D02*
G03*
X003937Y007267I-000045J000089D01*
G01*
X003649Y007061D02*
G03*
X003653Y007063I-000073J000156D01*
G01*
X003643Y007335D02*
G03*
X003701Y007426I-000043J00009D01*
G01*
X003313Y007431D02*
G03*
X003307Y007428I000073J-000156D01*
G01*
X016885Y017741D02*
X017209Y018053D01*
X016885Y017741D02*
X017094Y017525D01*
X016677Y017957D02*
X016885Y017741D01*
X016782Y015686D02*
X017078D01*
X016782D02*
Y015982D01*
Y015389D02*
Y015686D01*
X014589Y019906D02*
Y020183D01*
Y019906D02*
X014984D01*
X014193D02*
X014589D01*
X016562Y017428D02*
X016885Y017741D01*
X016485Y015686D02*
X016782D01*
X015827Y014939D02*
Y015236D01*
X016261D01*
X015827D02*
Y015533D01*
X016552Y011053D02*
Y01135D01*
X016255Y011053D02*
X016552D01*
Y010756D02*
Y011053D01*
X014567Y01122D02*
X014746D01*
X014291Y011496D02*
X01447D01*
X014567Y01122D02*
Y011399D01*
X014291Y011317D02*
Y011496D01*
Y011675D01*
X014113Y011496D02*
X014291D01*
X014016Y01122D02*
X014194D01*
X014388Y01122D02*
X014567D01*
Y011042D02*
Y01122D01*
X014291Y010945D02*
X01447D01*
X014291Y010766D02*
Y010945D01*
Y011124D01*
X014113Y010945D02*
X014291D01*
X011104Y017417D02*
Y017694D01*
Y017417D02*
X011381D01*
X010553D02*
Y017694D01*
X010002Y017417D02*
Y017694D01*
X009725Y017417D02*
X010002D01*
X011104Y016866D02*
X011381D01*
X011104Y016315D02*
X011381D01*
X011104Y016038D02*
Y016315D01*
X010002Y016038D02*
Y016315D01*
X010553Y016038D02*
Y016315D01*
X009725D02*
X010002D01*
X009725Y016866D02*
X010002D01*
X014016Y01122D02*
Y011399D01*
X01374Y011496D02*
X013919D01*
X014016Y011042D02*
Y01122D01*
X013837D02*
X014016D01*
X01374Y010945D02*
X013919D01*
X01374Y011496D02*
Y011675D01*
Y011317D02*
Y011496D01*
X013561D02*
X01374D01*
X013465Y01122D02*
Y011399D01*
X01374Y010945D02*
Y011124D01*
Y010766D02*
Y010945D01*
X013561D02*
X01374D01*
X013465Y011042D02*
Y01122D01*
X013643D01*
X013286D02*
X013465D01*
X014567Y010669D02*
Y010848D01*
X014388Y010669D02*
X014567D01*
X014746D01*
X014567Y010491D02*
Y010669D01*
X014016Y010669D02*
X014194D01*
X014291Y010394D02*
X01447D01*
X014291Y010215D02*
Y010394D01*
X014113D02*
X014291D01*
Y010572D01*
X013837Y010669D02*
X014016D01*
Y010848D01*
Y010491D02*
Y010669D01*
X013465D02*
Y010848D01*
Y010669D02*
X013643D01*
X013286D02*
X013465D01*
Y010491D02*
Y010669D01*
X01374Y010215D02*
Y010394D01*
X013919D01*
X01374D02*
Y010572D01*
X013561Y010394D02*
X01374D01*
X013299Y009734D02*
X013706D01*
X012892D02*
X013299D01*
Y009478D02*
X013706D01*
X012892D02*
X013299D01*
X014016Y007165D02*
Y007365D01*
Y007165D02*
X014216D01*
X014016Y006965D02*
Y007165D01*
X013816D02*
X014016D01*
X013415Y006025D02*
Y006322D01*
X013712D01*
X013415D02*
Y006619D01*
X013118Y006322D02*
X013415D01*
X013425Y00568D02*
Y005898D01*
Y00568D02*
X013702D01*
X013425Y005462D02*
Y00568D01*
X013148D02*
X013425D01*
X011084Y007598D02*
X011434D01*
X011784D01*
X011434Y007223D02*
Y007598D01*
X010984Y006024D02*
Y006774D01*
X011959Y006274D02*
X012446D01*
X011959D02*
Y006492D01*
Y006056D02*
Y006274D01*
Y005274D02*
X012446D01*
X011959Y005056D02*
Y005274D01*
Y005492D01*
X011949Y003765D02*
X012206D01*
X011949D02*
Y004161D01*
Y00337D02*
Y003765D01*
X010984Y006024D02*
X011534D01*
X011471Y005274D02*
X011959D01*
X010984D02*
Y006024D01*
X010434D02*
X010984D01*
X009764Y004055D02*
Y004255D01*
X009783Y00337D02*
Y003765D01*
X009016Y019267D02*
Y019467D01*
Y019267D02*
X009216D01*
X009016Y019067D02*
Y019267D01*
X008816D02*
X009016D01*
X007699Y019906D02*
X008094D01*
X007699D02*
Y020183D01*
X007304Y019906D02*
X007699D01*
X006654Y019468D02*
X006996D01*
X008959Y013526D02*
Y013726D01*
Y013526D02*
X009159D01*
X008759D02*
X008959D01*
X009134Y010748D02*
X009384D01*
X008617Y012913D02*
X008894D01*
X009134Y010748D02*
Y010998D01*
X008884Y010748D02*
X009134D01*
X006311Y019468D02*
X006654D01*
Y019905D01*
Y019032D02*
Y019468D01*
X005719Y019111D02*
Y019408D01*
Y018814D02*
Y019111D01*
X006016D01*
X005422D02*
X005719D01*
X00405Y01561D02*
X004406Y016082D01*
X003734Y015847D02*
X00405Y01561D01*
X004365Y015372D01*
X003693Y015137D02*
X00405Y01561D01*
X009134Y010498D02*
Y010748D01*
X008257Y008425D02*
X008475D01*
X008257D02*
Y008702D01*
X008178Y007339D02*
X008475D01*
X008771D01*
X009564Y004055D02*
X009764D01*
X009526Y003765D02*
X009783D01*
X007341Y003784D02*
X007838Y003462D01*
X007341Y003784D02*
X007556Y004116D01*
X006844Y004107D02*
X007341Y003784D01*
X007126Y003453D02*
X007341Y003784D01*
X004841Y010748D02*
X005118D01*
X005395D01*
X002756Y010283D02*
Y010733D01*
Y010283D02*
X003206D01*
X003135Y008122D02*
X003404Y008248D01*
X002855Y008726D02*
X003124Y008851D01*
X002866Y007997D02*
X003135Y008122D01*
X003261Y007853D01*
X003293Y007649D02*
X003373Y007478D01*
X003195Y007395D02*
X003373Y007478D01*
X002306Y010283D02*
X002756D01*
X002729Y008995D02*
X002855Y008726D01*
X002586Y0086D02*
X002855Y008726D01*
X005053Y006772D02*
X005271D01*
X005489D01*
X005271Y006494D02*
Y006772D01*
X003805Y006535D02*
X004055D01*
X004305D01*
X002789Y006923D02*
X002967Y007006D01*
X003044Y006956D02*
X003504Y006496D01*
X004017Y006497D02*
X004055Y006535D01*
X003898Y006497D02*
X004017D01*
X003897Y006496D02*
X003898Y006497D01*
X003504Y006496D02*
X003897D01*
X002914Y006956D02*
X003044D01*
X002965Y007049D02*
X00302Y007244D01*
X002852Y006956D02*
X002914Y006988D01*
X004291Y00626D02*
X004488Y006457D01*
Y006704D01*
X003204Y00626D02*
X004291D01*
X003005Y006459D02*
X003204Y00626D01*
X003005Y006459D02*
X003005D01*
X004488Y006704D02*
X004556Y006772D01*
X007069Y009691D02*
X007439Y010061D01*
X007069Y007931D02*
Y009691D01*
X007439Y010061D02*
Y010061D01*
X007811Y010433D01*
X008071D01*
X00685Y009764D02*
X008268Y011181D01*
X012323D01*
X00685Y007283D02*
Y009764D01*
X007877Y01146D02*
X00917D01*
X006417Y01D02*
X007877Y01146D01*
X006417Y009685D02*
Y01D01*
X006122Y007421D02*
Y008287D01*
Y007421D02*
X006142Y007402D01*
X006102Y008307D02*
X006122Y008287D01*
X004865Y007073D02*
X006482D01*
X006614Y007205D02*
Y009843D01*
X006482Y007073D02*
X006614Y007205D01*
X004624Y007314D02*
X004865Y007073D01*
X006614Y009843D02*
X007874Y011102D01*
X00685Y007283D02*
X007585Y006549D01*
X007874Y012047D02*
X011496D01*
X007585Y006549D02*
X008006D01*
X008859Y010473D02*
X008859D01*
X008386Y008611D02*
Y01D01*
X008859Y010473D01*
X007069Y007931D02*
X008031Y006969D01*
X002822Y006675D02*
X002848Y006687D01*
X002537Y006879D02*
X002594Y006759D01*
X012323Y011181D02*
X013394Y012252D01*
Y012913D01*
X008031Y006969D02*
X008839D01*
X009007Y007137D01*
X009055D01*
X009123Y007205D02*
X009134D01*
X009055Y007137D02*
X009123Y007205D01*
X008475Y006549D02*
X008534Y00649D01*
X009134D01*
X008859Y010473D02*
X009134Y010748D01*
X004624Y007314D02*
X004624D01*
X004556Y007382D02*
X004624Y007314D01*
X004556Y007382D02*
Y007441D01*
X00917Y01146D02*
X009173Y011457D01*
X010669D01*
X008325Y008552D02*
X008327D01*
X008257Y008484D02*
X008325Y008552D01*
X008327D02*
X008386Y008611D01*
X006142Y009409D02*
X006417Y009685D01*
X005276Y009409D02*
X006142D01*
X004921Y009055D02*
X005276Y009409D01*
X004921Y008534D02*
Y009055D01*
X004556Y008169D02*
X004921Y008534D01*
X003071Y007306D02*
X003307Y007428D01*
X00302Y007244D02*
X00302Y007245D01*
X004556Y00811D02*
Y008169D01*
X004118Y00698D02*
X004118Y00698D01*
X003938Y00689D02*
X004094Y006968D01*
X003741Y006798D02*
X003936Y006889D01*
X004331Y007441D02*
X004556D01*
X004173Y007283D02*
X004331Y007441D01*
X004173Y00707D02*
Y007283D01*
X004094Y006968D02*
X004118Y00698D01*
X003697Y006782D02*
X003741Y006798D01*
X003882Y007177D02*
X003882Y007177D01*
X003624Y007049D02*
X003649Y007061D01*
X004556Y00811D02*
X004556Y00811D01*
X004055Y00811D02*
X004556D01*
X003937Y007992D02*
X004055Y00811D01*
X003937Y007267D02*
Y007992D01*
X003858Y007165D02*
X003882Y007177D01*
X003653Y007063D02*
X003858Y007165D01*
X003518Y007277D02*
X003643Y007335D01*
X003701Y007426D02*
Y008543D01*
X003937Y008779D01*
X003643Y007335D02*
X003643Y007335D01*
X003589Y007014D02*
X003624Y007049D01*
X003937Y008779D02*
X004556D01*
X003481Y007246D02*
X003518Y007277D01*
X003313Y007431D02*
X003338Y007442D01*
X003373Y007478D02*
X003397Y007532D01*
X003338Y007442D02*
X003373Y007478D01*
X002848Y006687D02*
X002858Y006684D01*
X002646Y00712D02*
X002681Y007155D01*
X002621Y007108D02*
X002646Y00712D01*
X002858Y006684D02*
X002897Y006691D01*
X003186Y007984D02*
X003397Y007532D01*
X003135Y008122D02*
X003186Y007984D01*
X017776Y01659D02*
X017997D01*
X01767Y016487D02*
X017672Y016486D01*
X016892Y016487D02*
X01767D01*
X015473Y017906D02*
X016892Y016487D01*
X017672Y016486D02*
X017776Y01659D01*
X014589Y017906D02*
X015473D01*
X015256Y018406D02*
X0166Y017061D01*
X017337D02*
X017441Y017165D01*
X0166Y017061D02*
X017337D01*
X014589Y018406D02*
X015256D01*
X015827Y016811D02*
Y017126D01*
X015318Y01495D02*
Y016302D01*
X015827Y016811D01*
X015118Y016416D02*
X015236Y016534D01*
X0149Y014533D02*
X015318Y01495D01*
X0149Y015033D02*
X015118Y01525D01*
Y016416D01*
X015236Y016534D02*
Y017126D01*
X014716Y014533D02*
X0149D01*
X014589Y014406D02*
X014716Y014533D01*
Y015033D02*
X0149D01*
X014589Y014906D02*
X014716Y015033D01*
X008257Y008425D02*
Y008484D01*
D18*
X009134Y00649D02*
D03*
X009134Y007205D02*
D03*
X001693Y011579D02*
D03*
X001693Y012294D02*
D03*
X008465Y005304D02*
D03*
X008465Y006019D02*
D03*
X009134Y005304D02*
D03*
X009134Y006019D02*
D03*
X013425Y00568D02*
D03*
X013425Y004965D02*
D03*
X016772Y014248D02*
D03*
X016772Y013533D02*
D03*
D19*
X008475Y006549D02*
D03*
Y007339D02*
D03*
X013415Y006322D02*
D03*
Y007112D02*
D03*
X005719Y018321D02*
D03*
Y019111D02*
D03*
X016782Y014896D02*
D03*
Y015686D02*
D03*
D20*
X004556Y006772D02*
D03*
X005271Y006772D02*
D03*
X004556Y00811D02*
D03*
Y007441D02*
D03*
X005271Y00878D02*
D03*
X004556Y008779D02*
D03*
X005271Y00811D02*
D03*
Y007441D02*
D03*
X016507Y010354D02*
D03*
X015792Y010354D02*
D03*
X012176Y008425D02*
D03*
X011461Y008425D02*
D03*
X008257Y008425D02*
D03*
X008972Y008425D02*
D03*
X002642Y014626D02*
D03*
X003357Y014626D02*
D03*
D21*
X017997Y01659D02*
D03*
X017441Y017165D02*
D03*
X016885Y017741D02*
D03*
X016329Y018316D02*
D03*
D22*
X002139Y008392D02*
D03*
X002855Y008726D02*
D03*
X003135Y008122D02*
D03*
X002419Y007789D02*
D03*
D23*
X012894Y012913D02*
D03*
X008894D02*
D03*
X009394D02*
D03*
X009894D02*
D03*
X010394D02*
D03*
X010894D02*
D03*
X013394D02*
D03*
X012394D02*
D03*
X011894D02*
D03*
X011394D02*
D03*
D24*
X007699Y013906D02*
D03*
X014589Y017406D02*
D03*
Y018906D02*
D03*
Y019906D02*
D03*
Y019406D02*
D03*
Y018406D02*
D03*
Y017906D02*
D03*
Y016906D02*
D03*
Y016406D02*
D03*
Y015906D02*
D03*
Y015406D02*
D03*
Y014906D02*
D03*
Y014406D02*
D03*
Y013906D02*
D03*
Y013406D02*
D03*
X007699Y019906D02*
D03*
Y019406D02*
D03*
Y018906D02*
D03*
Y018406D02*
D03*
Y017906D02*
D03*
Y017406D02*
D03*
Y016906D02*
D03*
Y016406D02*
D03*
Y015906D02*
D03*
Y015406D02*
D03*
Y014906D02*
D03*
Y014406D02*
D03*
Y013406D02*
D03*
D25*
X003589Y007014D02*
D03*
X003697Y006782D02*
D03*
X003005Y006459D02*
D03*
X002681Y007155D02*
D03*
X002789Y006923D02*
D03*
X002897Y006691D02*
D03*
X003373Y007478D02*
D03*
X003481Y007246D02*
D03*
D26*
X001693Y010207D02*
D03*
Y010817D02*
D03*
D27*
X016552Y011053D02*
D03*
X015762D02*
D03*
X009833Y008435D02*
D03*
X010623D02*
D03*
D28*
X013299Y00999D02*
D03*
Y009734D02*
D03*
Y009478D02*
D03*
Y009222D02*
D03*
X011032D02*
D03*
Y009478D02*
D03*
Y009734D02*
D03*
Y00999D02*
D03*
D29*
X003635Y005422D02*
D03*
X004081Y005838D02*
D03*
X004108Y004871D02*
D03*
X004554Y005287D02*
D03*
D30*
X011434Y007598D02*
D03*
X010534D02*
D03*
D31*
X007835Y009528D02*
D03*
X009016Y009154D02*
D03*
Y009528D02*
D03*
Y009902D02*
D03*
X007835D02*
D03*
Y009154D02*
D03*
D32*
X01001Y005274D02*
D03*
Y005774D02*
D03*
Y006274D02*
D03*
Y006774D02*
D03*
X011959D02*
D03*
Y006274D02*
D03*
Y005774D02*
D03*
Y005274D02*
D03*
D33*
X011949Y003765D02*
D03*
X009783D02*
D03*
D34*
X011465D02*
D03*
X010268D02*
D03*
D35*
X010669D02*
D03*
X011063D02*
D03*
D36*
X011104Y016315D02*
D03*
X010002D02*
D03*
X010553D02*
D03*
X011104Y017417D02*
D03*
X010002D02*
D03*
X010553D02*
D03*
X011104Y016866D02*
D03*
X010002D02*
D03*
X010553D02*
D03*
D37*
X006654Y019468D02*
D03*
Y018406D02*
D03*
D38*
X015827Y015236D02*
D03*
Y013898D02*
D03*
D74*
X017703Y016709D02*
G03*
X017677Y016689I000073J-000119D01*
G01*
X017703Y016709D02*
G03*
X017677Y016689I000073J-000119D01*
G01*
X017629Y015549D02*
G03*
X017838Y015787I-000031J000238D01*
G01*
D02*
G03*
X01736Y015818I-00024J0D01*
G01*
X016793Y016388D02*
G03*
X016892Y016347I000099J000099D01*
G01*
X016793Y016388D02*
G03*
X016892Y016347I000099J000099D01*
G01*
X016052Y018744D02*
G03*
X015837Y018422I-000225J-000083D01*
G01*
X015355Y018505D02*
G03*
X015256Y018546I-000099J-000099D01*
G01*
X015355Y018505D02*
G03*
X015256Y018546I-000099J-000099D01*
G01*
X019764Y015337D02*
G03*
X015024Y020163I-008858J-003959D01*
G01*
X016017Y017126D02*
G03*
X016012Y017169I-00019J0D01*
G01*
X015967Y016998D02*
G03*
X016017Y017126I-00014J000128D01*
G01*
X015926Y016712D02*
G03*
X015967Y016811I-000099J000099D01*
G01*
X015926Y016712D02*
G03*
X015967Y016811I-000099J000099D01*
G01*
X017559Y015337D02*
G03*
X017434Y01526I0J-00014D01*
G01*
X017559Y015337D02*
G03*
X017434Y01526I0J-00014D01*
G01*
X016294Y014438D02*
G03*
X01616Y014382I0J-00019D01*
G01*
X016294Y014438D02*
G03*
X01616Y014382I0J-00019D01*
G01*
X017378Y012622D02*
G03*
X017419Y012682I-000134J000134D01*
G01*
X017378Y012621D02*
G03*
X017419Y012682I-000134J000135D01*
G01*
X016874Y012654D02*
G03*
X016818Y01252I000134J-000135D01*
G01*
X016874Y012654D02*
G03*
X016818Y01252I000134J-000134D01*
G01*
X015512Y013216D02*
G03*
X015646Y013271I0J00019D01*
G01*
X015512Y013216D02*
G03*
X015646Y013271I0J00019D01*
G01*
X015417Y014851D02*
G03*
X015448Y014899I-000099J000099D01*
G01*
X015417Y014851D02*
G03*
X015448Y014899I-000099J000099D01*
G01*
X014974Y014414D02*
G03*
X014999Y014434I-000074J000119D01*
G01*
X014974Y014414D02*
G03*
X014999Y014434I-000074J000119D01*
G01*
X015204Y01189D02*
G03*
X015156Y012006I-000165J0D01*
G01*
X015204Y01189D02*
G03*
X015156Y012006I-000165J0D01*
G01*
X014786Y01122D02*
G03*
X014499Y011429I-000219J0D01*
G01*
Y011012D02*
G03*
X014786Y01122I000068J000208D01*
G01*
X014499Y011429D02*
G03*
X01451Y011496I-000208J000068D01*
G01*
X014359Y011288D02*
G03*
X014359Y011153I000208J-000068D01*
G01*
X01451Y011496D02*
G03*
X014083Y011429I-000219J0D01*
G01*
X014234Y01122D02*
G03*
X014224Y011288I-000219J0D01*
G01*
D02*
G03*
X014359Y011288I000068J000208D01*
G01*
X01451Y010945D02*
G03*
X014499Y011012I-000219J0D01*
G01*
X014499Y010877D02*
G03*
X01451Y010945I-000208J000068D01*
G01*
X014359Y011153D02*
G03*
X014224Y011153I-000068J-000208D01*
G01*
D02*
G03*
X014234Y01122I-000208J000068D01*
G01*
X014088Y016535D02*
G03*
X013803Y0167I-00019J0D01*
G01*
X013268Y019063D02*
G03*
X013151Y019014I0J-000165D01*
G01*
X013268Y019063D02*
G03*
X013151Y019014I0J-000165D01*
G01*
X013228Y0167D02*
G03*
X013112Y016652I0J-000165D01*
G01*
X013228Y0167D02*
G03*
X013112Y016652I0J-000165D01*
G01*
X01197Y017833D02*
G03*
X011922Y017717I000117J-000117D01*
G01*
X01197Y017833D02*
G03*
X011922Y017717I000117J-000117D01*
G01*
X014088Y016181D02*
G03*
X013966Y016358I-00019J0D01*
G01*
Y016358D02*
G03*
X014088Y016535I-000069J000177D01*
G01*
X013803Y016016D02*
G03*
X014088Y016181I000094J000165D01*
G01*
X014067Y015571D02*
G03*
X01395Y015522I0J-000165D01*
G01*
X014067Y015571D02*
G03*
X01395Y015522I0J-000165D01*
G01*
X012679Y016219D02*
G03*
X01263Y016102I000117J-000117D01*
G01*
X012679Y016219D02*
G03*
X01263Y016102I000117J-000117D01*
G01*
X011819Y017749D02*
G03*
X01177Y017866I-000165J0D01*
G01*
X011819Y017749D02*
G03*
X01177Y017866I-000165J0D01*
G01*
X011579Y018071D02*
G03*
X011339Y017831I-00024J0D01*
G01*
X01393Y01437D02*
G03*
X013905Y014464I-00019J0D01*
G01*
X014102Y013268D02*
G03*
X014054Y013384I-000165J0D01*
G01*
X013575Y014464D02*
G03*
X01393Y01437I000165J-000094D01*
G01*
X014102Y013268D02*
G03*
X014054Y013384I-000165J0D01*
G01*
X013623Y015195D02*
G03*
X013575Y015079I000117J-000117D01*
G01*
X013623Y015195D02*
G03*
X013575Y015079I000117J-000117D01*
G01*
X01334Y014055D02*
G03*
X013315Y014149I-00019J0D01*
G01*
X013757Y013681D02*
G03*
X013641Y013729I-000117J-000117D01*
G01*
X013772Y012992D02*
G03*
X01382Y012875I000165J0D01*
G01*
X013772Y012992D02*
G03*
X01382Y012875I000165J0D01*
G01*
X013757Y013681D02*
G03*
X013641Y013729I-000117J-000117D01*
G01*
X014083Y011429D02*
G03*
X013948Y011429I-000068J-000208D01*
G01*
D02*
G03*
X013959Y011496I-000208J000068D01*
G01*
D02*
G03*
X013532Y011429I-000219J0D01*
G01*
X013673Y011288D02*
G03*
X013808Y011288I000068J000208D01*
G01*
X013948Y011012D02*
G03*
X014083Y011012I000068J000208D01*
G01*
D02*
G03*
X014083Y010877I000208J-000068D01*
G01*
D02*
G03*
X013948Y010877I-000068J-000208D01*
G01*
X013808Y011288D02*
G03*
X013808Y011153I000208J-000068D01*
G01*
X013808Y011153D02*
G03*
X013673Y011153I-000068J-000208D01*
G01*
X013959Y010945D02*
G03*
X013948Y011012I-000219J0D01*
G01*
Y010877D02*
G03*
X013959Y010945I-000208J000068D01*
G01*
X013493Y012153D02*
G03*
X013534Y012252I-000099J000099D01*
G01*
X013493Y012153D02*
G03*
X013534Y012252I-000099J000099D01*
G01*
X013532Y011429D02*
G03*
X013532Y011012I-000068J-000208D01*
G01*
X013673Y011153D02*
G03*
X013683Y01122I-000208J000068D01*
G01*
D02*
G03*
X013673Y011288I-000219J0D01*
G01*
X013532Y011012D02*
G03*
X013532Y010877I000208J-000068D01*
G01*
X011922Y014149D02*
G03*
X012264Y013986I000165J-000094D01*
G01*
D02*
G03*
X012618Y013986I000177J000069D01*
G01*
X012972D02*
G03*
X01334Y014055I000177J000069D01*
G01*
X012618Y013986D02*
G03*
X012972Y013986I000177J000069D01*
G01*
X011752Y013447D02*
G03*
X011869Y013399I000117J000117D01*
G01*
X011752Y013447D02*
G03*
X011869Y013399I000117J000117D01*
G01*
X010353Y014093D02*
G03*
X010236Y014141I-000117J-000117D01*
G01*
X010353Y014093D02*
G03*
X010236Y014141I-000117J-000117D01*
G01*
X011489Y01378D02*
G03*
X011537Y013663I000165J0D01*
G01*
X009954Y014921D02*
G03*
X009814Y015105I-00019J0D01*
G01*
X011489Y01378D02*
G03*
X011537Y013663I000165J0D01*
G01*
X010899Y013504D02*
G03*
X010759Y013687I-00019J0D01*
G01*
X010525Y013454D02*
G03*
X010899Y013504I000183J00005D01*
G01*
X012323Y011041D02*
G03*
X012422Y011082I0J00014D01*
G01*
X012323Y011041D02*
G03*
X012422Y011082I0J00014D01*
G01*
X011872Y010855D02*
G03*
X011755Y010903I-000117J-000117D01*
G01*
X011872Y010855D02*
G03*
X011755Y010903I-000117J-000117D01*
G01*
X0156Y010087D02*
G03*
X015975Y010087I000187J000031D01*
G01*
X017419Y007874D02*
G03*
X017559Y007734I00014J0D01*
G01*
X017419Y007874D02*
G03*
X017559Y007734I00014J0D01*
G01*
X016818Y007677D02*
G03*
X016874Y007543I00019J0D01*
G01*
X016818Y007677D02*
G03*
X016874Y007543I00019J0D01*
G01*
X014786Y010669D02*
G03*
X014499Y010877I-000219J0D01*
G01*
Y010461D02*
G03*
X014786Y010669I000068J000208D01*
G01*
X014224Y010737D02*
G03*
X014359Y010737I000068J000208D01*
G01*
X014234Y010669D02*
G03*
X014224Y010737I-000219J0D01*
G01*
X014359D02*
G03*
X014359Y010602I000208J-000068D01*
G01*
D02*
G03*
X014224Y010602I-000068J-000208D01*
G01*
D02*
G03*
X014234Y010669I-000208J000068D01*
G01*
X01451Y010394D02*
G03*
X014499Y010461I-000219J0D01*
G01*
X013948D02*
G03*
X014083Y010461I000068J000208D01*
G01*
D02*
G03*
X01451Y010394I000208J-000068D01*
G01*
X013673Y010737D02*
G03*
X013808Y010737I000068J000208D01*
G01*
X013683Y010669D02*
G03*
X013673Y010737I-000219J0D01*
G01*
X013808D02*
G03*
X013808Y010602I000208J-000068D01*
G01*
X013532Y010877D02*
G03*
X013532Y010461I-000068J-000208D01*
G01*
X013808Y010602D02*
G03*
X013673Y010602I-000068J-000208D01*
G01*
X013959Y010394D02*
G03*
X013948Y010461I-000219J0D01*
G01*
X013673Y010602D02*
G03*
X013683Y010669I-000208J000068D01*
G01*
X013532Y010461D02*
G03*
X013959Y010394I000208J-000068D01*
G01*
X01277Y001856D02*
G03*
X019898Y007734I-001864J009522D01*
G01*
X017763Y007129D02*
G03*
X01815Y007319I000147J00019D01*
G01*
D02*
G03*
X017763Y007509I-00024J0D01*
G01*
X018305Y006619D02*
G03*
X017719Y005896I-000293J-000361D01*
G01*
X018594Y006163D02*
G03*
X018421Y006524I-000465J0D01*
G01*
X017836Y005802D02*
G03*
X018594Y006163I000293J000361D01*
G01*
X017232Y007185D02*
G03*
X017366Y007129I000134J000134D01*
G01*
X017231Y007185D02*
G03*
X017366Y007129I000135J000134D01*
G01*
X015304Y0036D02*
G03*
X016172Y003833I000403J000233D01*
G01*
X014256Y007165D02*
G03*
X014256Y007165I-00024J0D01*
G01*
X015775Y004405D02*
G03*
X015229Y00373I-000143J-000443D01*
G01*
X013111Y004849D02*
G03*
X013158Y004814I000134J000134D01*
G01*
X013111Y004849D02*
G03*
X013158Y004814I000135J000134D01*
G01*
X012444Y009836D02*
G03*
X012504Y009825I000059J000154D01*
G01*
X012444Y009836D02*
G03*
X012504Y009825I000059J000154D01*
G01*
X012708Y009106D02*
G03*
X012825Y009057I000117J000117D01*
G01*
X012708Y009106D02*
G03*
X012825Y009057I000117J000117D01*
G01*
X01145Y00983D02*
G03*
X011725Y01I000085J00017D01*
G01*
D02*
G03*
X011433Y01016I-00019J0D01*
G01*
X011673Y009741D02*
G03*
X011539Y009796I-000134J-000134D01*
G01*
X011673Y00974D02*
G03*
X011539Y009796I-000135J-000134D01*
G01*
X011844Y009491D02*
G03*
X011788Y009626I-00019J0D01*
G01*
X011844Y009491D02*
G03*
X011788Y009626I-00019J0D01*
G01*
X011788Y008815D02*
G03*
X011844Y008949I-000134J000134D01*
G01*
X012396Y007937D02*
G03*
X01253Y007881I000135J000134D01*
G01*
X012396Y007937D02*
G03*
X01253Y007881I000134J000134D01*
G01*
X012941Y006964D02*
G03*
X012571Y006964I-000185J-000153D01*
G01*
X01238D02*
G03*
X012317Y006982I-000063J-000101D01*
G01*
Y006566D02*
G03*
X01238Y006584I0J00012D01*
G01*
X011788Y008815D02*
G03*
X011844Y008949I-000134J000135D01*
G01*
X011828Y007883D02*
G03*
X011945Y007932I0J000165D01*
G01*
X011828Y007883D02*
G03*
X011945Y007932I0J000165D01*
G01*
X0116Y006982D02*
G03*
X011481Y006862I0J-00012D01*
G01*
X011645Y010903D02*
G03*
X011419Y010598I-000109J-000155D01*
G01*
X00972D02*
G03*
X009603Y01055I0J-000165D01*
G01*
X00972Y010598D02*
G03*
X009603Y01055I0J-000165D01*
G01*
X009862Y008989D02*
G03*
X009979Y009037I0J000165D01*
G01*
X01023Y009022D02*
G03*
X010096Y008966I0J-00019D01*
G01*
X01023Y009022D02*
G03*
X010096Y008966I0J-00019D01*
G01*
X009925Y009382D02*
G03*
X009809Y009333I0J-000165D01*
G01*
X009925Y009382D02*
G03*
X009809Y009333I0J-000165D01*
G01*
X009862Y008989D02*
G03*
X009979Y009037I0J000165D01*
G01*
X010488Y006862D02*
G03*
X010368Y006982I-00012J0D01*
G01*
X010194Y00761D02*
G03*
X010097Y007558I000037J-000186D01*
G01*
X010194Y00761D02*
G03*
X010097Y007558I000037J-000186D01*
G01*
X009819Y007512D02*
G03*
X009935Y00756I0J000165D01*
G01*
X009819Y007512D02*
G03*
X009935Y00756I0J000165D01*
G01*
X009866Y007326D02*
G03*
X00981Y007192I000134J-000135D01*
G01*
X009866Y007326D02*
G03*
X00981Y007192I000134J-000134D01*
G01*
X012679Y006584D02*
G03*
X012833Y006584I000077J000227D01*
G01*
X012486Y006362D02*
G03*
X012317Y006532I-00017J0D01*
G01*
Y006016D02*
G03*
X012486Y006185I0J00017D01*
G01*
X012598Y005899D02*
G03*
X012463Y005955I-000135J-000134D01*
G01*
X012597Y0059D02*
G03*
X012463Y005955I-000134J-000134D01*
G01*
X012392D02*
G03*
X012317Y005982I-000075J-000093D01*
G01*
X012486Y005362D02*
G03*
X012317Y005532I-00017J0D01*
G01*
Y005566D02*
G03*
X012364Y005575I0J00012D01*
G01*
X012317Y005016D02*
G03*
X012486Y005185I0J00017D01*
G01*
X012893Y003805D02*
G03*
X012246Y003865I-000326J0D01*
G01*
X01277Y001856D02*
G03*
X012893Y002112I-000203J000256D01*
G01*
X012246Y003548D02*
G03*
X012893Y003608I000321J00006D01*
G01*
Y002309D02*
G03*
X012241Y002309I-000326J0D01*
G01*
Y002112D02*
G03*
X012466Y001802I000326J0D01*
G01*
X011694Y00333D02*
G03*
X011697Y003365I-000237J000035D01*
G01*
X011694Y00333D02*
G03*
X011697Y003365I-000237J000035D01*
G01*
X011626Y003195D02*
G03*
X011694Y00333I-00017J00017D01*
G01*
X011626Y003195D02*
G03*
X011694Y00333I-00017J00017D01*
G01*
X011431Y005185D02*
G03*
X0116Y005016I00017J0D01*
G01*
X011421Y004961D02*
G03*
X011034Y005151I-00024J0D01*
G01*
X010321Y004826D02*
G03*
X010455Y004771I000134J000134D01*
G01*
X010321Y004827D02*
G03*
X010455Y004771I000135J000134D01*
G01*
X010129Y005482D02*
G03*
X00989Y005482I-00012J-000208D01*
G01*
X009778D02*
G03*
X009709Y005494I-000068J-000177D01*
G01*
X009778Y005482D02*
G03*
X009709Y005494I-000068J-000177D01*
G01*
X011034Y004771D02*
G03*
X011421Y004961I000147J00019D01*
G01*
X011281Y002949D02*
G03*
X011451Y003019I0J00024D01*
G01*
X011281Y002949D02*
G03*
X011451Y003019I0J00024D01*
G01*
X010508Y004299D02*
G03*
X010437Y004469I-00024J0D01*
G01*
X010508Y004299D02*
G03*
X010437Y004469I-00024J0D01*
G01*
X00976Y004567D02*
G03*
X00983Y004397I00024J0D01*
G01*
X00976Y004567D02*
G03*
X00983Y004397I00024J0D01*
G01*
X010274Y003019D02*
G03*
X010443Y002949I00017J00017D01*
G01*
X01003Y00333D02*
G03*
X010098Y003195I000237J000035D01*
G01*
X010274Y003019D02*
G03*
X010443Y002949I00017J00017D01*
G01*
X01003Y00333D02*
G03*
X010098Y003195I000237J000035D01*
G01*
X009256Y019267D02*
G03*
X009256Y019267I-00024J0D01*
G01*
X00866Y019014D02*
G03*
X008543Y019063I-000117J-000117D01*
G01*
X008586Y01937D02*
G03*
X008226Y019578I-00024J0D01*
G01*
X008179Y019198D02*
G03*
X008586Y01937I000167J000172D01*
G01*
X00866Y019014D02*
G03*
X008543Y019063I-000117J-000117D01*
G01*
X009166Y018465D02*
G03*
X009026Y018648I-00019J0D01*
G01*
X008793Y018415D02*
G03*
X009166Y018465I000183J00005D01*
G01*
X008694Y01689D02*
G03*
X008445Y017071I-00019J0D01*
G01*
X008805Y016113D02*
G03*
X008572Y01588I-000183J-00005D01*
G01*
X008386Y016741D02*
G03*
X008694Y01689I000118J000149D01*
G01*
X014894Y020223D02*
G03*
X005519Y019448I-003989J-008845D01*
G01*
X00726Y018838D02*
G03*
X007314Y018942I-000134J000134D01*
G01*
X00726Y018838D02*
G03*
X007314Y018942I-000134J000135D01*
G01*
Y01956D02*
G03*
X007188Y019504I000008J-00019D01*
G01*
X007036Y019745D02*
G03*
X006835Y019945I-000201J0D01*
G01*
X007314Y01956D02*
G03*
X007187Y019504I000008J-00019D01*
G01*
X006835Y018992D02*
G03*
X006882Y018998I0J000201D01*
G01*
X007248Y017571D02*
G03*
X007131Y017522I0J-000165D01*
G01*
X007248Y017571D02*
G03*
X007131Y017522I0J-000165D01*
G01*
X006931Y017321D02*
G03*
X006882Y017205I000117J-000117D01*
G01*
X006931Y017321D02*
G03*
X006882Y017205I000117J-000117D01*
G01*
X006835Y017979D02*
G03*
X006986Y018129I0J000151D01*
G01*
X006768Y016809D02*
G03*
X005721Y01716I-000582J0D01*
G01*
X007164Y016301D02*
G03*
X007212Y016417I-000117J000117D01*
G01*
X007164Y016301D02*
G03*
X007212Y016417I-000117J000117D01*
G01*
X006651Y016459D02*
G03*
X006768Y016809I-000465J00035D01*
G01*
X00958Y014871D02*
G03*
X009954Y014921I000183J00005D01*
G01*
X008819Y014141D02*
G03*
X008702Y014093I0J-000165D01*
G01*
X008819Y014141D02*
G03*
X008702Y014093I0J-000165D01*
G01*
X009199Y013526D02*
G03*
X008797Y013349I-00024J0D01*
G01*
X009121D02*
G03*
X009199Y013526I-000162J000177D01*
G01*
X00823Y013621D02*
G03*
X008181Y013504I000117J-000117D01*
G01*
X00823Y013621D02*
G03*
X008181Y013504I000117J-000117D01*
G01*
X008463Y012875D02*
G03*
X008511Y012992I-000117J000117D01*
G01*
X008463Y012875D02*
G03*
X008511Y012992I-000117J000117D01*
G01*
X007047Y016071D02*
G03*
X006931Y016022I0J-000165D01*
G01*
X007047Y016071D02*
G03*
X006931Y016022I0J-000165D01*
G01*
X006948Y014572D02*
G03*
X006941Y014242I-000098J-000163D01*
G01*
X008071Y012552D02*
G03*
X008188Y0126I0J000165D01*
G01*
X008071Y012552D02*
G03*
X008188Y0126I0J000165D01*
G01*
X00772Y012158D02*
G03*
X007757Y011897I000154J-000111D01*
G01*
X00752D02*
G03*
X007403Y011849I0J-000165D01*
G01*
X00752Y011897D02*
G03*
X007403Y011849I0J-000165D01*
G01*
X006937Y014067D02*
G03*
X006951Y013737I-000087J-000169D01*
G01*
X006472Y019945D02*
G03*
X006271Y019745I0J-000201D01*
G01*
Y019192D02*
G03*
X006472Y018992I000201J0D01*
G01*
Y018832D02*
G03*
X006321Y018682I0J-000151D01*
G01*
X005403Y018774D02*
G03*
X005382Y018803I-000204J-000126D01*
G01*
X005437Y018679D02*
G03*
X005403Y018774I-000238J-000031D01*
G01*
X005295Y018284D02*
G03*
X005429Y018228I000135J000134D01*
G01*
X005295Y018283D02*
G03*
X005429Y018228I000134J000134D01*
G01*
X006321Y018129D02*
G03*
X006472Y017979I000151J0D01*
G01*
X005721Y01716D02*
G03*
X006651Y016459I000465J-00035D01*
G01*
X005542Y01695D02*
G03*
X00562Y017182I-000308J000232D01*
G01*
X005749Y014841D02*
G03*
X005701Y014724I000117J-000117D01*
G01*
X005749Y014841D02*
G03*
X005701Y014724I000117J-000117D01*
G01*
X005316Y01492D02*
G03*
X005268Y014803I000117J-000117D01*
G01*
X005382Y018803D02*
G03*
X005168Y01841I-000183J-000155D01*
G01*
X00562Y017182D02*
G03*
X004927Y017414I-000385J0D01*
G01*
X00469Y017099D02*
G03*
X005305Y016635I000308J-000232D01*
G01*
X004603Y015767D02*
G03*
X00382Y016029I-000435J0D01*
G01*
X004516Y015505D02*
G03*
X004603Y015767I-000348J000262D01*
G01*
X003584Y015714D02*
G03*
X004279Y01519I000348J-000262D01*
G01*
X005133Y01464D02*
G03*
X004086Y01499I-000582J0D01*
G01*
X005316Y01492D02*
G03*
X005268Y014803I000117J-000117D01*
G01*
X005016Y01429D02*
G03*
X005133Y01464I-000465J00035D01*
G01*
X004086Y01499D02*
G03*
X005016Y01429I000465J-00035D01*
G01*
X00555Y014135D02*
G03*
X005598Y014252I-000117J000117D01*
G01*
X00555Y014135D02*
G03*
X005598Y014252I-000117J000117D01*
G01*
X005983Y01384D02*
G03*
X006031Y013957I-000117J000117D01*
G01*
X005983Y01384D02*
G03*
X006031Y013957I-000117J000117D01*
G01*
X005385Y013209D02*
G03*
X005383Y013241I-000267J0D01*
G01*
X005222Y012963D02*
G03*
X005385Y013209I-000104J000246D01*
G01*
X005328Y012882D02*
G03*
X005222Y012963I-00021J-000165D01*
G01*
X005039Y013693D02*
G03*
X005156Y013742I0J000165D01*
G01*
X005039Y013693D02*
G03*
X005156Y013742I0J000165D01*
G01*
X00515Y013474D02*
G03*
X005014Y012963I-000032J-000265D01*
G01*
X006654Y012488D02*
G03*
X006537Y01244I0J-000165D01*
G01*
X006654Y012488D02*
G03*
X006537Y01244I0J-000165D01*
G01*
X006079Y011584D02*
G03*
X006196Y011632I0J000165D01*
G01*
X006079Y011584D02*
G03*
X006196Y011632I0J000165D01*
G01*
X005435Y010748D02*
G03*
X005275Y011024I-000317J0D01*
G01*
D02*
G03*
X005385Y01124I-000157J000216D01*
G01*
X003817Y012639D02*
G03*
X003866Y012756I-000117J000117D01*
G01*
X005222Y01247D02*
G03*
X005328Y012552I-000104J000246D01*
G01*
X005014Y01247D02*
G03*
X005014Y011978I000104J-000246D01*
G01*
Y012963D02*
G03*
X005014Y01247I000104J-000246D01*
G01*
X003817Y012639D02*
G03*
X003866Y012756I-000117J000117D01*
G01*
X005385Y012224D02*
G03*
X005222Y01247I-000267J0D01*
G01*
Y011978D02*
G03*
X005385Y012224I-000104J000246D01*
G01*
X005314Y011914D02*
G03*
X005222Y011978I-000196J-000181D01*
G01*
Y011486D02*
G03*
X00534Y011584I-000104J000246D01*
G01*
X005385Y01124D02*
G03*
X005222Y011486I-000267J0D01*
G01*
X005014D02*
G03*
X004961Y011024I000104J-000246D01*
G01*
X003307Y012197D02*
G03*
X003424Y012246I0J000165D01*
G01*
X005014Y011978D02*
G03*
X005014Y011486I000104J-000246D01*
G01*
X003307Y012197D02*
G03*
X003424Y012246I0J000165D01*
G01*
X003192Y014202D02*
G03*
X00324Y014085I000165J0D01*
G01*
X003192Y014202D02*
G03*
X00324Y014085I000165J0D01*
G01*
X001827Y013473D02*
G03*
X001692Y013418I0J-00019D01*
G01*
X001827Y013473D02*
G03*
X001692Y013418I0J-00019D01*
G01*
X001559Y013284D02*
G03*
X001503Y01315I000134J-000135D01*
G01*
X001559Y013284D02*
G03*
X001503Y01315I000134J-000134D01*
G01*
X003196Y011283D02*
G03*
X003196Y011283I-00044J0D01*
G01*
X003122Y012527D02*
G03*
X003187Y012197I-000366J-000244D01*
G01*
X009678Y009528D02*
G03*
X009401Y009696I-00019J0D01*
G01*
X009424Y010748D02*
G03*
X009424Y010748I-00029J0D01*
G01*
X009401Y009359D02*
G03*
X009678Y009528I000087J000169D01*
G01*
X00955Y008722D02*
G03*
X00919Y008721I-00018J-000061D01*
G01*
X009652Y006982D02*
G03*
X009532Y006862I0J-00012D01*
G01*
Y006685D02*
G03*
X009652Y006566I00012J0D01*
G01*
Y006482D02*
G03*
X009555Y006432I0J-00012D01*
G01*
D02*
G03*
X009555Y006115I000105J-000158D01*
G01*
X008839Y006829D02*
G03*
X008938Y00687I0J00014D01*
G01*
X008839Y006829D02*
G03*
X008938Y00687I0J00014D01*
G01*
X008311Y010433D02*
G03*
X007876Y010573I-00024J0D01*
G01*
Y010293D02*
G03*
X008311Y010433I000195J00014D01*
G01*
X006025Y010471D02*
G03*
X005977Y010354I000117J-000117D01*
G01*
X006025Y010471D02*
G03*
X005977Y010354I000117J-000117D01*
G01*
X007682Y007516D02*
G03*
X007717Y007512I000034J000161D01*
G01*
X007682Y007516D02*
G03*
X007717Y007512I000034J000161D01*
G01*
X005382Y019355D02*
G03*
X008939Y001877I005524J-007977D01*
G01*
X006713Y007106D02*
G03*
X006753Y007183I-000099J000099D01*
G01*
X006713Y007106D02*
G03*
X006753Y007183I-000099J000099D01*
G01*
X006482Y006933D02*
G03*
X006581Y006974I0J00014D01*
G01*
X006482Y006933D02*
G03*
X006581Y006974I0J00014D01*
G01*
X007486Y00645D02*
G03*
X007585Y006409I000099J000099D01*
G01*
X007486Y00645D02*
G03*
X007585Y006409I000099J000099D01*
G01*
X006577Y005832D02*
G03*
X006312Y00632I-000582J0D01*
G01*
D02*
G03*
X005678Y005344I-000317J-000488D01*
G01*
X009555Y006115D02*
G03*
X009652Y006066I000097J00007D01*
G01*
Y005982D02*
G03*
X009544Y005915I0J-00012D01*
G01*
D02*
G03*
X009544Y005632I000127J-000141D01*
G01*
X009251Y00568D02*
G03*
X009299Y005797I-000117J000117D01*
G01*
X009544Y005632D02*
G03*
X009652Y005566I000107J000053D01*
G01*
X009251Y00568D02*
G03*
X009299Y005797I-000117J000117D01*
G01*
X009555Y005114D02*
G03*
X009652Y005066I000096J000071D01*
G01*
X009046Y005544D02*
G03*
X009163Y005592I0J000165D01*
G01*
X009046Y005544D02*
G03*
X009163Y005592I0J000165D01*
G01*
X009955Y004201D02*
G03*
X009573Y004201I-000191J-000145D01*
G01*
X009486Y003865D02*
G03*
X008839Y003805I-000321J-00006D01*
G01*
X009492Y002309D02*
G03*
X008839Y002309I-000326J0D01*
G01*
X009291Y001811D02*
G03*
X012466Y001802I001614J009567D01*
G01*
X009291Y001811D02*
G03*
X009492Y002112I-000126J000301D01*
G01*
X008855Y004352D02*
G03*
X00859Y00484I-000582J0D01*
G01*
X008839Y002112D02*
G03*
X008939Y001877I000326J0D01*
G01*
X008839Y003608D02*
G03*
X009486Y003548I000326J0D01*
G01*
X008106Y006184D02*
G03*
X007989Y006136I0J-000165D01*
G01*
X008106Y006184D02*
G03*
X007989Y006136I0J-000165D01*
G01*
X005678Y005344D02*
G03*
X006577Y005832I000317J000488D01*
G01*
X0059Y005179D02*
G03*
X00548Y004533I-00021J-000323D01*
G01*
X006406Y004642D02*
G03*
X0064Y00471I-000385J0D01*
G01*
X006391Y004538D02*
G03*
X006406Y004642I-000371J000104D01*
G01*
X00859Y00484D02*
G03*
X007956Y003864I-000317J-000488D01*
G01*
D02*
G03*
X008855Y004352I000317J000488D01*
G01*
X007941Y003677D02*
G03*
X007743Y004042I-000435J0D01*
G01*
X007413Y004256D02*
G03*
X007006Y004292I-000237J-000365D01*
G01*
X007269Y003312D02*
G03*
X007941Y003677I000237J000365D01*
G01*
X006775Y004062D02*
G03*
X006939Y003526I000401J-00017D01*
G01*
X00581Y004319D02*
G03*
X005845Y004299I00021J000323D01*
G01*
X006335Y00369D02*
G03*
X006452Y003738I0J000165D01*
G01*
X006335Y00369D02*
G03*
X006452Y003738I0J000165D01*
G01*
X005342Y010523D02*
G03*
X005435Y010748I-000224J000225D01*
G01*
X004961Y011024D02*
G03*
X004895Y010523I000157J-000276D01*
G01*
X004822Y009154D02*
G03*
X004781Y009055I000099J-000099D01*
G01*
X004822Y009154D02*
G03*
X004781Y009055I000099J-000099D01*
G01*
X002885Y009811D02*
G03*
X003246Y010283I-000129J000473D01*
G01*
X002999Y009165D02*
G03*
X003035Y009291I-000204J000127D01*
G01*
D02*
G03*
X002943Y009481I-00024J0D01*
G01*
X003937Y008919D02*
G03*
X003838Y008878I0J-00014D01*
G01*
X003937Y008919D02*
G03*
X003838Y008878I0J-00014D01*
G01*
X003602Y008642D02*
G03*
X003561Y008543I000099J-000099D01*
G01*
X003602Y008642D02*
G03*
X003561Y008543I000099J-000099D01*
G01*
X003559Y007638D02*
G03*
X003344Y007716I-000147J-000069D01*
G01*
X003209Y007654D02*
G03*
X00313Y007438I000069J-000147D01*
G01*
X003187Y007318D02*
G03*
X003282Y007233I000147J000069D01*
G01*
X002822Y007294D02*
G03*
X002774Y007345I-000102J-000047D01*
G01*
X003246Y010283D02*
G03*
X002627Y009811I-00049J0D01*
G01*
X002147Y009529D02*
G03*
X002264Y009481I000117J000117D01*
G01*
X002678Y009082D02*
G03*
X002761Y009054I000118J000209D01*
G01*
X002393Y009462D02*
G03*
X002258Y009407I0J-00019D01*
G01*
X002393Y009462D02*
G03*
X002258Y009406I0J-00019D01*
G01*
X002147Y009529D02*
G03*
X002264Y009481I000117J000117D01*
G01*
X002005Y009153D02*
G03*
X001949Y009018I000134J-000135D01*
G01*
X002005Y009153D02*
G03*
X001949Y009018I000134J-000134D01*
G01*
X004766Y006974D02*
G03*
X004865Y006933I000099J000099D01*
G01*
X004766Y006974D02*
G03*
X004865Y006933I000099J000099D01*
G01*
X004587Y006358D02*
G03*
X004628Y006457I-000099J000099D01*
G01*
X004587Y006358D02*
G03*
X004628Y006457I-000099J000099D01*
G01*
X004181Y006855D02*
G03*
X004313Y00707I-000108J000214D01*
G01*
X004412Y005881D02*
G03*
X004442Y005984I-00016J000103D01*
G01*
X004362Y006139D02*
G03*
X00439Y006161I-000071J000121D01*
G01*
X004362Y006139D02*
G03*
X00439Y006161I-000071J000121D01*
G01*
X004442Y005984D02*
G03*
X004362Y006139I-00019J0D01*
G01*
X005118Y004412D02*
G03*
X004765Y004447I-000183J-00005D01*
G01*
X005006Y003738D02*
G03*
X005123Y00369I000117J000117D01*
G01*
X005006Y003738D02*
G03*
X005123Y00369I000117J000117D01*
G01*
X004875Y005157D02*
G03*
X004871Y005198I-00019J0D01*
G01*
X004632Y004975D02*
G03*
X004875Y005157I000053J000182D01*
G01*
X003448Y006875D02*
G03*
X003491Y006827I000102J000047D01*
G01*
Y006827D02*
G03*
X0035Y006763I000111J-000016D01*
G01*
X004345Y006535D02*
G03*
X004111Y00682I-00029J0D01*
G01*
X00334Y007107D02*
G03*
X003383Y007059I000102J000047D01*
G01*
D02*
G03*
X003392Y006995I000111J-000016D01*
G01*
X003779Y006623D02*
G03*
X003799Y0064I000277J-000087D01*
G01*
X003556Y006643D02*
G03*
X003705Y006589I000102J000047D01*
G01*
X002975Y007083D02*
G03*
X00288Y007168I-000147J-000069D01*
G01*
X003035Y006835D02*
G03*
X003046Y006894I-000151J000059D01*
G01*
D02*
G03*
X003031Y006963I-000162J0D01*
G01*
X002475Y007205D02*
G03*
X002474Y007173I00011J-000021D01*
G01*
X002474D02*
G03*
X00241Y00682I00022J-000222D01*
G01*
X003146Y006598D02*
G03*
X003103Y006646I-000102J-000047D01*
G01*
X003105Y006662D02*
G03*
X003094Y00671I-000112J0D01*
G01*
X002799Y006504D02*
G03*
X002808Y006441I000111J-000016D01*
G01*
X002467Y0067D02*
G03*
X002778Y006521I000283J000132D01*
G01*
X003105Y006161D02*
G03*
X003204Y00612I000099J000099D01*
G01*
X002864Y00632D02*
G03*
X003004Y006262I000102J000047D01*
G01*
X003105Y006161D02*
G03*
X003204Y00612I000099J000099D01*
G01*
X003544Y005721D02*
G03*
X00329Y005484I-000075J-000175D01*
G01*
X0178Y017427D02*
Y018205D01*
X017436Y0178D02*
X018178D01*
X0176Y017634D02*
Y018401D01*
X018Y016996D02*
Y017997D01*
X0182Y017013D02*
Y017776D01*
X017556Y01768D02*
X017959Y017262D01*
X017123Y0182D02*
X017805D01*
X017316Y018D02*
X017997D01*
X016834Y0184D02*
X017601D01*
X016816Y017201D02*
X017474Y017837D01*
X017061Y017201D02*
X017556Y01768D01*
X017002Y018326D02*
X017474Y017837D01*
X017894Y0172D02*
X018667D01*
X018212Y017D02*
X018813D01*
X017826Y0174D02*
X018513D01*
X0184Y016806D02*
Y01754D01*
X018405Y0168D02*
X018952D01*
X0178Y016803D02*
Y017109D01*
X017633Y0176D02*
X01835D01*
X017687Y017D02*
X018004D01*
X01748Y0168D02*
X017797D01*
X017703Y016709D02*
X018112Y017104D01*
X0172Y01812D02*
Y018762D01*
X0174Y017913D02*
Y018586D01*
X017Y018324D02*
Y018928D01*
X0174Y017529D02*
Y017765D01*
X0168Y018462D02*
Y019085D01*
X016667Y0186D02*
X017385D01*
X0166Y01867D02*
Y019234D01*
X016627Y0182D02*
X016871D01*
X0168Y018131D02*
Y018368D01*
X017229Y0176D02*
X017474D01*
X017022Y0174D02*
X017266D01*
X0172Y017336D02*
Y017572D01*
X017Y017201D02*
Y017379D01*
X016816Y017201D02*
X017061D01*
X0168Y016777D02*
Y016921D01*
X016658Y017201D02*
X016725D01*
X016816D01*
X0166Y017259D02*
Y017331D01*
X016777Y0168D02*
X017182D01*
X016655Y016921D02*
X017065D01*
X0186Y015337D02*
Y017288D01*
X018425Y0166D02*
X019083D01*
X0184Y015337D02*
Y016576D01*
X019Y015337D02*
Y016728D01*
X0192Y015337D02*
Y016412D01*
X0188Y015337D02*
Y017019D01*
X017326Y016651D02*
X017959Y017262D01*
X018112Y017104D02*
X018515Y016687D01*
X017615Y016627D02*
X017677Y016689D01*
X017882Y016076D02*
X018515Y016687D01*
X018218Y0164D02*
X019207D01*
X0182Y015337D02*
Y016383D01*
X01801Y0162D02*
X019325D01*
X017838Y0158D02*
X019542D01*
X0178Y015337D02*
Y015657D01*
X0194Y015337D02*
Y016067D01*
X0196Y015337D02*
Y015684D01*
X018Y015337D02*
Y01619D01*
X01762Y016347D02*
X017882Y016076D01*
X01771Y016D02*
X019436D01*
X0178Y015918D02*
Y01616D01*
X017748Y0156D02*
X019641D01*
X017065Y016921D02*
X017326Y016651D01*
X0172Y016627D02*
Y016781D01*
X017Y016627D02*
Y016921D01*
X0176Y016627D02*
Y016916D01*
X0174Y016627D02*
Y016723D01*
X017Y016022D02*
Y016347D01*
X016655Y016921D02*
X01695Y016627D01*
X017615D01*
X0168Y016022D02*
Y016381D01*
X0166Y016022D02*
Y016581D01*
X0176Y016027D02*
Y016347D01*
X017119Y016D02*
X017487D01*
X0174Y015922D02*
Y016347D01*
X017119Y015576D02*
X01736Y015818D01*
X017119Y0158D02*
X017342D01*
X0172Y015658D02*
Y016347D01*
X016892D02*
X01762D01*
X017119Y015576D02*
Y016022D01*
X016Y018828D02*
Y019635D01*
X0164Y018788D02*
Y019375D01*
X0158Y0189D02*
Y019755D01*
X0162Y018596D02*
Y019509D01*
X016201Y018595D02*
X016445Y018831D01*
X0156Y01874D02*
Y019869D01*
X015024Y0196D02*
X016057D01*
X014974Y0194D02*
X016363D01*
X015024Y0198D02*
X015723D01*
X014974Y0192D02*
X016646D01*
X014974Y019D02*
X016909D01*
X016413Y0188D02*
X016474D01*
X017155D01*
X016023D02*
X016413D01*
X016445Y018831D02*
X016847Y018413D01*
X016052Y018744D02*
X016201Y018595D01*
X015837Y018422D02*
X015928Y018331D01*
X014974Y0188D02*
X015631D01*
X015459Y0184D02*
X015859D01*
X014974Y0186D02*
X015595D01*
X015812Y018219D02*
X015928Y018331D01*
X015659Y0182D02*
X01583D01*
X0156Y018259D02*
Y018583D01*
X015024Y019588D02*
Y020163D01*
Y02D02*
X015355D01*
X0148Y020223D02*
Y020265D01*
X0152Y018546D02*
Y020078D01*
X0154Y018459D02*
Y019977D01*
X014974Y019173D02*
Y019588D01*
X0146Y020223D02*
Y02035D01*
X014153Y020223D02*
X014894D01*
X0144D02*
Y020429D01*
X014974Y018546D02*
Y018638D01*
Y018546D02*
X015256D01*
X014974Y018638D02*
Y018673D01*
X015Y018546D02*
Y019588D01*
X014974D02*
X015024D01*
X014974Y019138D02*
Y019173D01*
Y019138D02*
Y019173D01*
Y018638D02*
Y018673D01*
Y019138D01*
X0166Y017938D02*
Y018174D01*
X016419Y018D02*
X016664D01*
X0164Y017745D02*
Y017981D01*
X016459Y0174D02*
X016533D01*
X0164Y017459D02*
Y017538D01*
X016214Y017802D02*
X016847Y018413D01*
X016297Y017645D02*
X017002Y018326D01*
X016059Y0178D02*
X016457D01*
X016297Y017645D02*
X016725Y017201D01*
X015355Y018505D02*
X016658Y017201D01*
X016012Y017169D02*
X016793Y016388D01*
X016445Y016022D02*
X017119D01*
X015814Y0166D02*
X016581D01*
X016445Y015349D02*
Y016022D01*
X0164Y014438D02*
Y016781D01*
X015614Y0164D02*
X016781D01*
X015458Y0162D02*
X017761D01*
X015458Y016D02*
X016445D01*
X015458Y0156D02*
X016445D01*
X015458Y0158D02*
X016445D01*
X0162Y017659D02*
Y017817D01*
X016259Y0176D02*
X01634D01*
X016Y017859D02*
Y018024D01*
X0162Y015573D02*
Y016981D01*
X016Y015573D02*
Y017048D01*
X015812Y018219D02*
X016214Y017802D01*
X015859Y018D02*
X016023D01*
X0158Y018059D02*
Y018423D01*
X015969Y017D02*
X016181D01*
X015967Y016811D02*
Y016998D01*
X015966Y0168D02*
X016381D01*
X0158Y015573D02*
Y016586D01*
X016301Y014899D02*
Y015573D01*
X0156D02*
Y016386D01*
X015458Y016244D02*
X015926Y016712D01*
X015458Y015573D02*
Y016244D01*
X012939Y0168D02*
X014203D01*
X015458Y015573D02*
X016301D01*
X014067Y015571D02*
X014203D01*
X01748Y0154D02*
X019735D01*
X017559Y015337D02*
X019764D01*
X0176D02*
Y01552D01*
X017434Y01526D02*
Y015354D01*
X017629Y015549D01*
X016301Y0152D02*
X017054D01*
X016445Y015349D02*
X017054D01*
Y015182D02*
Y015349D01*
X016495Y015182D02*
X017054D01*
X017D02*
Y015349D01*
X016962Y014609D02*
X017054D01*
X016962Y0146D02*
X017054D01*
X016962Y014456D02*
X017039D01*
Y01404D02*
Y014456D01*
X017Y013741D02*
Y01404D01*
Y014456D02*
Y014609D01*
X016504Y01404D02*
X017039D01*
X016316Y014D02*
X017054D01*
X016962Y014456D02*
Y014609D01*
X016251Y0138D02*
X017054D01*
X016505Y013741D02*
X017039D01*
X0168D02*
Y01404D01*
X0166Y015182D02*
Y015349D01*
X0168Y015182D02*
Y015349D01*
X016301Y0154D02*
X016445D01*
X016495Y014609D02*
Y015182D01*
X016301Y015D02*
X016495D01*
X0162Y014413D02*
Y014899D01*
X0158Y014184D02*
Y014899D01*
X016Y014222D02*
Y014899D01*
X0156Y014184D02*
Y014899D01*
X016582Y014456D02*
Y014609D01*
X016504Y014456D02*
X016582D01*
X016495Y014609D02*
X016582D01*
X016373Y014058D02*
X016504D01*
X0166Y013741D02*
Y01404D01*
X016294Y014438D02*
X016504D01*
X015448Y014899D02*
X016301D01*
X016251Y013936D02*
X016373Y014058D01*
X015963Y014184D02*
X01616Y014382D01*
X017054Y013723D02*
Y014609D01*
Y012835D02*
Y013343D01*
X017Y012781D02*
Y013325D01*
X017198Y012441D02*
X017378Y012621D01*
X016505Y013325D02*
X017039D01*
X016874Y012654D02*
X017054Y012835D01*
X0168Y01139D02*
Y013325D01*
X0166Y01139D02*
Y013325D01*
X017198Y0116D02*
X017419D01*
X017198Y0114D02*
X017419D01*
X017357Y0126D02*
X017419D01*
X017198Y011D02*
X017419D01*
X017198Y0108D02*
X017419D01*
X017198Y0112D02*
X017419D01*
X017198Y0122D02*
X017419D01*
X017198Y012D02*
X017419D01*
X017198Y0124D02*
X017419D01*
X016818Y01139D02*
Y01252D01*
X017198Y0118D02*
X017419D01*
X016215Y01139D02*
X016818D01*
X016251Y013611D02*
Y013936D01*
X015975Y0136D02*
X016505D01*
X015986Y013611D02*
X016251D01*
X0164Y01139D02*
Y014058D01*
X016505Y013325D02*
Y013741D01*
X016Y01134D02*
Y013611D01*
X015646Y013271D02*
X015986Y013611D01*
X015775Y0134D02*
X016505D01*
X0158Y01134D02*
Y013425D01*
X0156Y01134D02*
Y013237D01*
X016049Y0112D02*
X016215D01*
X016049Y0108D02*
X016215D01*
X016049Y011D02*
X016215D01*
X015475Y01134D02*
X016049D01*
X015475Y010766D02*
X015612D01*
X015475D02*
Y01134D01*
X016049Y010766D02*
Y01134D01*
X015942Y010766D02*
X016049D01*
X015366Y0148D02*
X016495D01*
X015402Y013611D02*
Y014184D01*
X015963D01*
X0154Y013596D02*
Y014834D01*
X015166Y0146D02*
X016582D01*
X014974Y0144D02*
X016181D01*
X014999Y014434D02*
X015417Y014851D01*
X014974Y0142D02*
X015978D01*
X014974Y014D02*
X015402D01*
X0152Y013596D02*
Y014634D01*
X015402Y013611D02*
X015448D01*
X014974Y0136D02*
X015438D01*
X014974Y0138D02*
X015402D01*
X014974Y013216D02*
X015512D01*
X014974Y0132D02*
X017054D01*
X014974Y013596D02*
X015433D01*
X014162Y013D02*
X017054D01*
X014362Y0128D02*
X017019D01*
X014562Y0126D02*
X016836D01*
X014762Y0124D02*
X016818D01*
X014962Y0122D02*
X016818D01*
X014102Y01306D02*
X015156Y012006D01*
X014974Y014138D02*
Y014173D01*
Y014138D02*
Y014173D01*
Y014414D01*
X015Y013596D02*
Y014434D01*
X014974Y013638D02*
Y013673D01*
Y014138D01*
X013825Y0142D02*
X014203D01*
Y013638D02*
Y013673D01*
Y013638D02*
Y013673D01*
Y014138D01*
X014974Y013596D02*
Y013638D01*
Y013138D02*
Y013216D01*
Y013638D02*
Y013673D01*
X015Y012162D02*
Y013216D01*
X0148Y012362D02*
Y013138D01*
X0146Y012562D02*
Y013138D01*
X0144Y012762D02*
Y013138D01*
X014203D02*
X014974D01*
X013838Y0136D02*
X014203D01*
X013524Y0122D02*
X014496D01*
X013534Y0124D02*
X014296D01*
X015162Y012D02*
X016818D01*
X0152Y011927D02*
Y013216D01*
X015204Y0118D02*
X016818D01*
X015204Y0116D02*
X016818D01*
X01382Y012875D02*
X014874Y011821D01*
X01314Y0118D02*
X014874D01*
X01334Y012D02*
X014696D01*
X014484Y0116D02*
X014874D01*
X0146Y011437D02*
Y012096D01*
X015204Y0114D02*
X016818D01*
X015204Y0112D02*
X015475D01*
X014785D02*
X014874D01*
X015204Y011D02*
X015475D01*
X015204Y0108D02*
X015475D01*
X014742D02*
X014874D01*
X014692Y0114D02*
X014874D01*
X014503Y011D02*
X014874D01*
X0146Y010886D02*
Y011004D01*
X0144Y011686D02*
Y012296D01*
X014234Y0112D02*
X014349D01*
X014203Y019173D02*
Y019588D01*
Y019138D02*
Y019173D01*
X0142Y020223D02*
Y020504D01*
X014203Y019138D02*
Y019173D01*
Y019063D02*
Y019138D01*
X0142Y019063D02*
Y019588D01*
X014153D02*
X014203D01*
X013268Y019063D02*
X014203D01*
X014153Y019588D02*
Y020223D01*
X014Y019063D02*
Y020574D01*
Y016695D02*
Y017241D01*
X0138Y019063D02*
Y020639D01*
X014203Y017138D02*
Y017173D01*
Y017138D02*
Y017173D01*
Y017241D01*
Y016638D02*
Y016673D01*
Y016638D02*
Y016673D01*
Y017138D01*
X013339Y0172D02*
X014203D01*
X013139Y017D02*
X014203D01*
X013379Y017241D02*
X014203D01*
X014076Y0166D02*
X014203D01*
X013228Y0167D02*
X013803D01*
X0134Y019063D02*
Y020754D01*
X0136Y019063D02*
Y020699D01*
X0132Y019048D02*
Y020805D01*
X013Y018863D02*
Y020852D01*
X0126Y018463D02*
Y020931D01*
X0128Y018663D02*
Y020894D01*
X0124Y018263D02*
Y020965D01*
X0122Y018063D02*
Y020994D01*
X01197Y017833D02*
X013151Y019014D01*
X012Y017863D02*
Y021019D01*
X0136Y0167D02*
Y017241D01*
X0138Y0167D02*
Y017241D01*
X0134Y0167D02*
Y017241D01*
X0132Y016698D02*
Y017061D01*
X011819Y0174D02*
X011922D01*
X012739Y0166D02*
X01306D01*
X013Y01654D02*
Y016861D01*
X014203Y016173D02*
Y016638D01*
Y016138D02*
Y016173D01*
X014087Y0162D02*
X014203D01*
Y016138D02*
Y016173D01*
Y015673D02*
Y016138D01*
X0142Y015571D02*
Y017241D01*
X014031Y0164D02*
X014203D01*
X013955Y016D02*
X014203D01*
X014Y015556D02*
Y016021D01*
X014203Y015638D02*
Y015673D01*
Y015571D02*
Y015638D01*
Y015673D01*
X014135Y015241D02*
X014203D01*
Y015173D02*
Y015241D01*
X0142Y012962D02*
Y015241D01*
X013396Y0158D02*
X014203D01*
X013315Y0156D02*
X014203D01*
X013905Y01501D02*
X014135Y015241D01*
X014095Y0152D02*
X014203D01*
X012679Y016219D02*
X013112Y016652D01*
X014Y016341D02*
Y016375D01*
X0128Y01634D02*
Y016661D01*
X012606Y0162D02*
X012662D01*
X012606Y016467D02*
X013379Y017241D01*
X012606Y0164D02*
X01286D01*
X011819D02*
X011922D01*
Y014149D02*
Y017717D01*
X012606Y014149D02*
Y016467D01*
X011819Y0162D02*
X011922D01*
X013612Y016016D02*
X013803D01*
X013596Y016D02*
X01384D01*
X0138Y015372D02*
Y016016D01*
X0136Y015166D02*
Y016004D01*
X013623Y015195D02*
X01395Y015522D01*
X0134Y013729D02*
Y015804D01*
X013315Y0154D02*
X013828D01*
X013315Y0152D02*
X013628D01*
X013315Y015719D02*
X013612Y016016D01*
X013315Y014149D02*
Y015719D01*
X01263Y014149D02*
Y016102D01*
X0118Y017825D02*
Y021039D01*
X011636Y018D02*
X012137D01*
X0116Y018036D02*
Y021056D01*
X011811Y0178D02*
X011944D01*
X009658Y021D02*
X012153D01*
X011541Y0182D02*
X012337D01*
X0114Y018303D02*
Y021068D01*
X011578Y018058D02*
X01177Y017866D01*
X011339Y017831D02*
X011489Y017681D01*
X011819Y0176D02*
X011922D01*
X011819Y0172D02*
X011922D01*
X011422Y0171D02*
Y017183D01*
Y017D02*
X011489D01*
X011819D02*
X011922D01*
X011422Y0171D02*
Y017183D01*
X01087Y017734D02*
X011422D01*
Y0176D02*
X011489D01*
X0114Y017734D02*
Y01777D01*
X011422Y0174D02*
X011489D01*
X011422Y0172D02*
X011489D01*
X011422Y017183D02*
Y017734D01*
X0112Y018267D02*
Y021076D01*
X0106Y017734D02*
Y021076D01*
X0104Y017734D02*
Y021067D01*
X011Y017734D02*
Y02108D01*
X0112Y017734D02*
Y017875D01*
X0108Y017734D02*
Y02108D01*
X01Y017734D02*
Y021038D01*
X009685Y017734D02*
X010236D01*
X0098D02*
Y021017D01*
X0102Y017734D02*
Y021055D01*
X010236Y017734D02*
X010319D01*
X009685Y017183D02*
Y017734D01*
X010787D02*
X01087D01*
X010787D02*
X01087D01*
X010319D02*
X010787D01*
X010236D02*
X010319D01*
X009685Y0171D02*
Y017183D01*
Y0171D02*
Y017183D01*
X011819Y0168D02*
X011922D01*
X011819Y0166D02*
X011922D01*
X011422Y0164D02*
X011489D01*
X011819Y013848D02*
Y017749D01*
X011489Y01378D02*
Y017681D01*
X011422Y015998D02*
Y016549D01*
Y016632D02*
Y0171D01*
Y0168D02*
X011489D01*
X011422Y016549D02*
Y016632D01*
Y0166D02*
X011489D01*
X011422Y016549D02*
Y016632D01*
Y016D02*
X011489D01*
X011819D02*
X011922D01*
X011422Y0162D02*
X011489D01*
X011819Y0156D02*
X011922D01*
X011819Y0154D02*
X011922D01*
X011819Y0158D02*
X011922D01*
X01087Y015998D02*
X011422D01*
X0114Y013299D02*
Y015998D01*
X0112Y013299D02*
Y015998D01*
X01Y014141D02*
Y015998D01*
X0102Y014141D02*
Y015998D01*
X0098Y015118D02*
Y015998D01*
X009685Y016549D02*
Y016632D01*
Y0171D01*
Y016549D02*
Y016632D01*
Y015998D02*
Y016549D01*
X0096Y015318D02*
Y020992D01*
X010787Y015998D02*
X01087D01*
X010787D02*
X01087D01*
X0104Y014046D02*
Y015998D01*
X0108Y013671D02*
Y015998D01*
X011Y013299D02*
Y015998D01*
X0106Y013846D02*
Y015998D01*
X010236D02*
X010319D01*
X010236D02*
X010319D01*
X009685D02*
X010236D01*
X010319D02*
X010787D01*
X009617Y015301D02*
X009814Y015105D01*
X014203Y015138D02*
Y015173D01*
Y014673D02*
Y015138D01*
Y015173D01*
Y014638D02*
Y014673D01*
Y014173D02*
Y014638D01*
Y014673D01*
X013905Y0148D02*
X014203D01*
X013905Y0146D02*
X014203D01*
X013905Y015D02*
X014203D01*
X014Y013438D02*
Y015105D01*
X013905Y014464D02*
Y01501D01*
X014203Y014138D02*
Y014173D01*
Y014138D02*
Y014173D01*
Y013138D02*
Y013638D01*
X014102Y0132D02*
X014203D01*
X014102Y01306D02*
Y013268D01*
X013928Y0144D02*
X014203D01*
X013331Y014D02*
X014203D01*
X014038Y0134D02*
X014203D01*
X013757Y013681D02*
X014054Y013384D01*
X013575Y014464D02*
Y015079D01*
X0136Y013729D02*
Y014242D01*
X0138Y013638D02*
Y01419D01*
X013315Y0148D02*
X013575D01*
X013315Y0146D02*
X013575D01*
X013315Y015D02*
X013575D01*
X013315Y0144D02*
X013553D01*
X013315Y0142D02*
X013655D01*
X0132Y013729D02*
Y013872D01*
X013661Y0132D02*
X013771D01*
X013661Y013D02*
X013772D01*
Y012992D02*
Y013199D01*
X0134Y013299D02*
Y013399D01*
X0132Y013299D02*
Y013399D01*
X013572D02*
X013772Y013199D01*
X0136Y013299D02*
Y013371D01*
X0142Y011695D02*
Y012496D01*
X013933Y0116D02*
X014099D01*
X014Y011439D02*
Y012696D01*
X013661Y0128D02*
X013896D01*
X013661Y0126D02*
X014096D01*
X0138Y011706D02*
Y0129D01*
X013952Y011D02*
X01408D01*
X014Y010887D02*
Y011002D01*
X013661Y012528D02*
Y013299D01*
X013534Y012528D02*
X013661D01*
X0136Y011664D02*
Y012528D01*
X013534Y012252D02*
Y012528D01*
X0134Y011429D02*
Y01206D01*
X013682Y0112D02*
X013798D01*
X0134Y010878D02*
Y011011D01*
X011819Y014D02*
X011905D01*
X0126Y013729D02*
Y013951D01*
X011819Y015D02*
X011922D01*
X011819Y0148D02*
X011922D01*
X011819Y0152D02*
X011922D01*
X011819Y0144D02*
X011922D01*
X011819Y0142D02*
X011922D01*
X011819Y0146D02*
X011922D01*
X0122Y013729D02*
Y013903D01*
X011937Y013729D02*
X013641D01*
X012D02*
Y013886D01*
X013Y013729D02*
Y013938D01*
X0128Y013729D02*
Y013865D01*
X0124Y013729D02*
Y01387D01*
X011819Y013848D02*
X011937Y013729D01*
X011866Y0138D02*
X014203D01*
X011869Y013399D02*
X013572D01*
X011661Y013299D02*
X012127D01*
X010446Y014D02*
X011489D01*
X010646Y0138D02*
X011489D01*
X010353Y014093D02*
X010759Y013687D01*
X009718Y0152D02*
X011489D01*
X009937Y015D02*
X011489D01*
X00991Y0148D02*
X011489D01*
X010168Y013811D02*
X010525Y013454D01*
X0098Y014141D02*
Y014735D01*
X011537Y013663D02*
X011752Y013447D01*
X011161Y013299D02*
X011627D01*
X011661D01*
X011627D02*
X011661D01*
X0116D02*
Y0136D01*
X010873Y0136D02*
X0116D01*
X010868Y0134D02*
X011852D01*
X010127Y013299D02*
X010161D01*
X012627D02*
X012661D01*
X012627D02*
X012661D01*
X0126D02*
Y013399D01*
X013Y013299D02*
Y013399D01*
X012661Y013299D02*
X013127D01*
X0128D02*
Y013399D01*
X012127Y013299D02*
X012161D01*
X012127D02*
X012161D01*
X012D02*
Y013399D01*
X0124Y013299D02*
Y013399D01*
X012161Y013299D02*
X012627D01*
X0122D02*
Y013399D01*
X013127Y013299D02*
X013161D01*
X013661D01*
X013127D02*
X013161D01*
X01294Y0116D02*
X013548D01*
X01274Y0114D02*
X01334D01*
X01254Y0112D02*
X013247D01*
X012422Y011082D02*
X013493Y012153D01*
X011927Y0108D02*
X013289D01*
X012Y010727D02*
Y011041D01*
X0104Y013299D02*
Y013579D01*
X010161Y013299D02*
X010627D01*
X0102D02*
Y013779D01*
X0118Y013299D02*
Y013414D01*
X0108Y013299D02*
Y013337D01*
X0106Y013299D02*
Y013348D01*
X009627Y013299D02*
X009661D01*
X010127D01*
X009627D02*
X009661D01*
X01D02*
Y013811D01*
X010127Y013299D02*
X010161D01*
X0098D02*
Y013811D01*
X0118Y010897D02*
Y011041D01*
X011645Y010903D02*
X011755D01*
X0116Y010927D02*
Y011041D01*
X0114Y010881D02*
Y011041D01*
X010627Y013299D02*
X010661D01*
X011127D01*
X010627D02*
X010661D01*
X011127D02*
X011161D01*
X011127D02*
X011161D01*
X017198Y0106D02*
X017419D01*
X017198Y0104D02*
X017419D01*
X016818Y010544D02*
Y010716D01*
X017198Y0102D02*
X017419D01*
X017198Y01D02*
X017419D01*
X017198Y010315D02*
Y012441D01*
X016715Y0106D02*
X016818D01*
X016715Y010544D02*
X016818D01*
X016215Y010716D02*
X016818D01*
X015936Y01D02*
X016818D01*
X015204Y0098D02*
X016818D01*
X016715Y010164D02*
X016818D01*
X017198Y0096D02*
X017419D01*
X017198Y0094D02*
X017419D01*
X017198Y0098D02*
X017419D01*
X017198Y009D02*
X017419D01*
X017198Y0088D02*
X017419D01*
X017198Y0092D02*
X017419D01*
X015204Y0094D02*
X016818D01*
X015204Y0092D02*
X016818D01*
X015204Y0096D02*
X016818D01*
X015204Y0088D02*
X016818D01*
X015204Y0086D02*
X016818D01*
X015204Y009D02*
X016818D01*
X0166Y010622D02*
Y010716D01*
X016298Y010622D02*
X016715D01*
X0164D02*
Y010716D01*
X0168Y010544D02*
Y010716D01*
X016715Y010544D02*
Y010622D01*
X016298Y010087D02*
Y010622D01*
X016215Y010716D02*
Y01139D01*
X015612Y010622D02*
Y010766D01*
X0156Y010622D02*
Y010766D01*
X015942Y010622D02*
Y010766D01*
Y010622D02*
X016D01*
X015584Y010087D02*
Y010622D01*
X016Y0104D02*
X016298D01*
X016Y0102D02*
X016298D01*
X016Y0106D02*
X016298D01*
X016715Y010087D02*
Y010164D01*
X016298Y010087D02*
X016715D01*
X016Y010087D02*
Y010622D01*
X015204Y0104D02*
X015584D01*
X015204Y0102D02*
X015584D01*
X015204Y0106D02*
X015584D01*
X015204Y01D02*
X015639D01*
X017419Y007874D02*
Y012682D01*
X017198Y007756D02*
X017445Y007509D01*
X0176D02*
Y007734D01*
X0174Y007554D02*
Y012647D01*
X017198Y0084D02*
X017419D01*
X017198Y0082D02*
X017419D01*
X017198Y0086D02*
X017419D01*
X017198Y008D02*
X017419D01*
X017198Y0078D02*
X01744D01*
X015204Y008175D02*
X017283Y006096D01*
X0196Y007072D02*
Y007734D01*
X0198Y007501D02*
Y007734D01*
X0194Y006689D02*
Y007734D01*
X019Y006028D02*
Y007734D01*
X0192Y006344D02*
Y007734D01*
X0188Y005737D02*
Y007734D01*
X018Y007542D02*
Y007734D01*
X017559D02*
X019898D01*
X0178Y007533D02*
Y007734D01*
X0184Y006542D02*
Y007734D01*
X0186Y005467D02*
Y007734D01*
X0182Y006683D02*
Y007734D01*
X0172Y007754D02*
Y012443D01*
X017198Y007756D02*
Y010315D01*
X016818Y007677D02*
Y010164D01*
X0168Y006579D02*
Y010164D01*
X0166Y006779D02*
Y010087D01*
X0164Y006979D02*
Y010087D01*
X0154Y007979D02*
Y013216D01*
X015204Y008175D02*
Y01189D01*
X014874Y008261D02*
Y011821D01*
X0162Y007179D02*
Y013611D01*
X016Y007379D02*
Y010766D01*
X0156Y007779D02*
Y010087D01*
X015379Y008D02*
X016818D01*
X015579Y0078D02*
X016818D01*
X015204Y0082D02*
X016818D01*
X0158Y007579D02*
Y009929D01*
X015204Y0084D02*
X016818D01*
X014961Y007881D02*
X017042Y005799D01*
X0152Y004135D02*
Y007642D01*
X015Y003987D02*
Y007842D01*
X0148Y004019D02*
Y007881D01*
X014774Y0106D02*
X014874D01*
X01451Y0104D02*
X014874D01*
X014393Y0102D02*
X014874D01*
X013959Y0104D02*
X014073D01*
X013842Y0102D02*
X01419D01*
X0132Y010161D02*
Y01186D01*
X012327Y0104D02*
X013522D01*
X012127Y0106D02*
X013257D01*
X012527Y0102D02*
X013639D01*
X0142Y008261D02*
Y010195D01*
X013746Y0094D02*
X014874D01*
X014Y008261D02*
Y010451D01*
X0148Y008261D02*
Y011896D01*
X0146Y008261D02*
Y010453D01*
X0144Y008261D02*
Y010204D01*
X013746Y0098D02*
X014874D01*
X013746Y0096D02*
X014874D01*
X013696Y01D02*
X014874D01*
X011844Y009D02*
X014874D01*
X011773Y0088D02*
X014874D01*
X013696Y0092D02*
X014874D01*
X014Y007405D02*
Y007881D01*
X0142Y007319D02*
Y007881D01*
X0138Y00727D02*
Y007881D01*
X0146Y003904D02*
Y007881D01*
X0144Y003788D02*
Y007881D01*
X01247Y0084D02*
X014874D01*
X012609Y008261D02*
X014874D01*
X012384Y0086D02*
X014874D01*
X011824Y0078D02*
X015042D01*
X01253Y007881D02*
X014961D01*
X013746Y009699D02*
Y009955D01*
Y009514D02*
Y009699D01*
X013696Y009955D02*
X013746D01*
X0138Y008261D02*
Y010183D01*
X013746Y009258D02*
Y009514D01*
Y009699D01*
X0136Y010161D02*
Y010226D01*
X012902Y010161D02*
X013696D01*
X0134D02*
Y01046D01*
X013696Y009955D02*
Y010161D01*
Y009052D02*
Y009258D01*
X013746D01*
X0134Y008261D02*
Y009052D01*
X0136Y008261D02*
Y009052D01*
Y007399D02*
Y007881D01*
X0134Y007399D02*
Y007881D01*
X012902Y009052D02*
X013696D01*
X0132Y007399D02*
Y007881D01*
Y008261D02*
Y009052D01*
X018136Y0074D02*
X019755D01*
X018118Y0072D02*
X019662D01*
X018Y006722D02*
Y007097D01*
X018305Y006619D02*
X018421Y006524D01*
X018328Y0066D02*
X01935D01*
X0178Y006671D02*
Y007106D01*
X017354Y0076D02*
X019842D01*
X016379Y007D02*
X019564D01*
X016579Y0068D02*
X01946D01*
X018529Y0064D02*
X019234D01*
X018592Y0062D02*
X019111D01*
X018564Y006D02*
X018981D01*
X018419Y0058D02*
X018844D01*
X018109Y0054D02*
X018548D01*
X017727Y0058D02*
X017838D01*
X017719Y005896D02*
X017836Y005802D01*
X017314Y006134D02*
X018153Y005455D01*
X017974Y0056D02*
X0187D01*
X018Y005579D02*
Y005716D01*
X017445Y007509D02*
X017763D01*
X0176Y006473D02*
Y007129D01*
X017366D02*
X017763D01*
X0174Y006065D02*
Y007129D01*
X015979Y0074D02*
X017016D01*
X016179Y0072D02*
X017216D01*
X015779Y0076D02*
X016834D01*
X016874Y007543D02*
X017231Y007185D01*
X0172Y006179D02*
Y007216D01*
X017Y006379D02*
Y007416D01*
X017179Y0062D02*
X017551D01*
X01748Y006D02*
X017625D01*
X017283Y006096D02*
X017314Y006134D01*
X0176Y005903D02*
Y006042D01*
X0178Y005741D02*
Y005831D01*
X017Y005747D02*
Y005842D01*
X016779Y0066D02*
X017698D01*
X016979Y0064D02*
X017569D01*
X0168Y0055D02*
Y006042D01*
X016729Y005412D02*
X017042Y005799D01*
X016729Y005412D02*
X016758Y005388D01*
X0184Y005216D02*
Y005785D01*
X017947Y0052D02*
X018387D01*
X017785Y005D02*
X018217D01*
X0182Y00498D02*
Y005704D01*
X018Y004759D02*
Y005265D01*
X0178Y004551D02*
Y005018D01*
X017568Y004732D02*
X018153Y005455D01*
X017289Y004958D02*
X017568Y004732D01*
X015775Y004405D02*
X016758Y005388D01*
X016172Y003841D02*
X017289Y004958D01*
X0174Y00417D02*
Y004868D01*
X0172Y003994D02*
Y004869D01*
X017623Y0048D02*
X018038D01*
X016931Y0046D02*
X017848D01*
X017131Y0048D02*
X017484D01*
X0176Y004355D02*
Y004771D01*
X017Y003828D02*
Y004669D01*
X0168Y003671D02*
Y004469D01*
X016731Y0044D02*
X017647D01*
X016531Y0042D02*
X017434D01*
X016331Y004D02*
X017207D01*
X016171Y0038D02*
X016965D01*
X016109Y0036D02*
X016706D01*
X0166Y003522D02*
Y004269D01*
X0164Y00503D02*
Y006442D01*
X0166Y00523D02*
Y006242D01*
X0162Y00483D02*
Y006642D01*
X0164Y003381D02*
Y004069D01*
X0162Y003247D02*
Y003869D01*
X016Y00463D02*
Y006842D01*
X0156Y004426D02*
Y007242D01*
X0158Y00443D02*
Y007042D01*
X0154Y004366D02*
Y007442D01*
X015229Y00373D02*
X015304Y0036D01*
X0152Y00364D02*
Y00379D01*
X015877Y0034D02*
X016427D01*
X015454Y0032D02*
X016127D01*
X016Y003121D02*
Y003472D01*
X0156Y002887D02*
Y00338D01*
X0158Y003D02*
Y003377D01*
X0154Y002779D02*
Y003119D01*
Y003294D02*
Y003483D01*
X015339Y0034D02*
X015536D01*
X015223Y0036D02*
X015304D01*
X015195Y003D02*
X015799D01*
X0152Y002678D02*
Y003003D01*
X014066Y0074D02*
X015442D01*
X014253Y0072D02*
X015642D01*
X01419Y007D02*
X015842D01*
X011824Y0076D02*
X015242D01*
X011824Y0074D02*
X013965D01*
X013702Y0072D02*
X013778D01*
X013702Y007D02*
X013842D01*
X013752Y0064D02*
X016442D01*
X013752Y0062D02*
X016642D01*
X013752Y0066D02*
X016242D01*
X013752Y006D02*
X016842D01*
X013742Y0056D02*
X016881D01*
X013752Y005985D02*
Y006659D01*
X013372Y0068D02*
X016042D01*
X013078Y005985D02*
X013752D01*
X013231Y006659D02*
X013752D01*
X013742Y0058D02*
X017042D01*
X013097Y0054D02*
X016743D01*
X013297Y0052D02*
X01657D01*
X013702Y006825D02*
Y007399D01*
X0136Y006659D02*
Y006825D01*
X0134Y006659D02*
Y006825D01*
X013128Y007399D02*
X013702D01*
X012998Y006964D02*
X013128Y007094D01*
X011824Y0072D02*
X013128D01*
X013397Y006825D02*
X013702D01*
X013231Y006659D02*
X013397Y006825D01*
X0136Y005938D02*
Y005985D01*
X0134Y005938D02*
Y005985D01*
X013742Y005422D02*
Y005938D01*
X013108D02*
X013742D01*
X0132D02*
Y005985D01*
X013108Y005422D02*
X013742D01*
X0132Y005297D02*
Y005422D01*
X013692Y0048D02*
X01617D01*
X015108Y0038D02*
X015196D01*
X014992Y004D02*
X015168D01*
X014936Y004098D02*
X015476Y003162D01*
X014131Y003633D02*
X014936Y004098D01*
X013692Y005D02*
X01637D01*
X010306Y0046D02*
X01597D01*
X010485Y0044D02*
X015474D01*
X012246Y0042D02*
X015232D01*
X012828Y004D02*
X014767D01*
X012893Y0038D02*
X01442D01*
X014671Y002697D02*
X015476Y003162D01*
X014848Y0028D02*
X01544D01*
X015Y002582D02*
Y002888D01*
X0146Y002406D02*
Y00282D01*
X0148Y002491D02*
Y002772D01*
X0144Y002327D02*
Y003166D01*
X014131Y003633D02*
X014671Y002697D01*
X011429Y003D02*
X014496D01*
X011631Y0032D02*
X01438D01*
X012714Y0026D02*
X015039D01*
X01288Y0024D02*
X014585D01*
X013407Y005173D02*
X013692D01*
Y004757D02*
Y005173D01*
X0136D02*
Y005422D01*
X0142Y003673D02*
Y007012D01*
X014Y002182D02*
Y006926D01*
X0138Y002117D02*
Y00706D01*
X013324Y005173D02*
X013407D01*
X013324D02*
X013407D01*
X012598Y005899D02*
X013324Y005173D01*
X0134D02*
Y005422D01*
X013158Y004757D02*
X013692D01*
X0142Y002252D02*
Y003513D01*
X013158Y004757D02*
Y004814D01*
X0134Y002002D02*
Y004757D01*
X0136Y002057D02*
Y004757D01*
X0132Y001951D02*
Y004757D01*
X012893Y0036D02*
X014149D01*
X012818Y0034D02*
X014265D01*
X011359Y0048D02*
X013158D01*
X012893Y0022D02*
X014053D01*
X012873Y002D02*
X013394D01*
X013Y010161D02*
Y01166D01*
X012572Y010155D02*
X012902D01*
X0126D02*
Y01126D01*
X0128Y010155D02*
Y01146D01*
Y009481D02*
Y009825D01*
X0126Y009681D02*
Y009825D01*
X011872Y010855D02*
X012572Y010155D01*
X0124Y010327D02*
Y011064D01*
X011546Y010268D02*
X012708Y009106D01*
X012444Y009836D02*
X012852Y009428D01*
Y009514D02*
Y009699D01*
Y009514D02*
Y009699D01*
Y009825D01*
Y009428D02*
Y009514D01*
X012825Y009057D02*
X012902D01*
X012481Y0098D02*
X012852D01*
X012681Y0096D02*
X012852D01*
X012504Y009825D02*
X012852D01*
X011844Y0092D02*
X012614D01*
X011844Y0094D02*
X012414D01*
X0122Y010527D02*
Y011041D01*
X011725Y01D02*
X011814D01*
X0116Y010179D02*
Y010214D01*
X0118Y009612D02*
Y010014D01*
X011673Y00974D02*
X011788Y009626D01*
X0116Y009786D02*
Y009821D01*
X01143Y0098D02*
X012014D01*
X01143Y009796D02*
X011539D01*
X011809Y0096D02*
X012214D01*
X011844Y008949D02*
Y009491D01*
X011464Y009028D02*
Y009413D01*
X011429Y0094D02*
X011464D01*
X011429Y009308D02*
Y009393D01*
Y009308D02*
Y009393D01*
Y0092D02*
X011464D01*
X011429Y009052D02*
Y009308D01*
X0126Y00827D02*
Y009214D01*
X0128Y008261D02*
Y009059D01*
X0124Y00847D02*
Y009414D01*
X013Y008261D02*
Y009052D01*
X0126Y006993D02*
Y007881D01*
X0124Y006964D02*
Y007933D01*
X012384Y008486D02*
Y008692D01*
X012388Y008482D02*
X012609Y008261D01*
X011968Y008692D02*
X012384D01*
X012174Y008158D02*
X012396Y007937D01*
X013128Y007094D02*
Y007399D01*
X012904Y007D02*
X013034D01*
X0128Y007047D02*
Y007881D01*
X013Y006966D02*
Y007881D01*
X013078Y005985D02*
Y006584D01*
X012941Y006964D02*
X012998D01*
X01238D02*
X012571D01*
X0124Y00651D02*
Y006584D01*
X0126Y005897D02*
Y006584D01*
X012Y008692D02*
Y009814D01*
X0122Y008692D02*
Y009614D01*
X011968Y008422D02*
Y008692D01*
X011945Y007932D02*
X012171Y008158D01*
X0118Y008254D02*
Y008828D01*
X011669Y0086D02*
X011968D01*
X011669Y0084D02*
X011946D01*
X011671Y008698D02*
X011788Y008815D01*
X01176Y008213D02*
X011968Y008422D01*
X011669Y008213D02*
X01176D01*
X011669D02*
Y008692D01*
X012013Y008D02*
X012332D01*
X0122Y006982D02*
Y008132D01*
X012Y006982D02*
Y007987D01*
X011824Y007183D02*
Y007883D01*
X0118Y006982D02*
Y007183D01*
X0116Y006982D02*
X012317D01*
X0116Y006982D02*
Y007183D01*
X011481Y006814D02*
Y006862D01*
X0112Y010598D02*
Y011041D01*
X011Y010598D02*
Y011041D01*
X0112Y010161D02*
Y010268D01*
X0114Y010161D02*
Y010268D01*
X011Y010161D02*
Y010268D01*
X00972Y010598D02*
X011419D01*
X009788Y010268D02*
X011546D01*
X0108Y010598D02*
Y011041D01*
Y010161D02*
Y010268D01*
X00972Y0102D02*
X011614D01*
X010634Y009905D02*
Y010161D01*
X011429D01*
X010634Y009854D02*
Y009905D01*
Y009854D02*
Y009905D01*
Y009052D02*
X011026D01*
X011429D01*
X010634D02*
X011026D01*
X010617Y009803D02*
X010624Y009838D01*
X009629Y0094D02*
X010619D01*
X010617Y009409D02*
Y009803D01*
X009994Y009052D02*
X010634D01*
X01023Y009022D02*
X011458D01*
X009925Y009382D02*
X010622D01*
X0104Y010598D02*
Y011041D01*
X0106Y010598D02*
Y011041D01*
X0102Y010598D02*
Y011041D01*
X0104Y009382D02*
Y010268D01*
X0106Y009382D02*
Y010268D01*
X0102Y009382D02*
Y010268D01*
X0098Y010598D02*
Y011041D01*
X01Y010598D02*
Y011041D01*
X0098Y009325D02*
Y010268D01*
X01Y009382D02*
Y010268D01*
X0102Y00902D02*
Y009052D01*
X009923Y009D02*
X010141D01*
X01Y00887D02*
Y009052D01*
X009664Y0096D02*
X010617D01*
X0096Y008722D02*
Y008989D01*
X010874Y0074D02*
X011044D01*
Y007183D02*
Y007883D01*
X011Y006814D02*
Y007883D01*
X010874Y0078D02*
X011044D01*
X010874Y0076D02*
X011044D01*
X010874Y007883D02*
X011044D01*
X010874Y007233D02*
Y007883D01*
X0106Y006814D02*
Y007233D01*
X0104Y006977D02*
Y007233D01*
X011044Y007183D02*
X011824D01*
X010488Y006814D02*
X011481D01*
X0108D02*
Y007233D01*
X0112Y006814D02*
Y007183D01*
X0114Y006814D02*
Y007183D01*
X010277Y0072D02*
X011044D01*
X01019Y007D02*
X012608D01*
X010384Y007233D02*
X010874D01*
X010488Y006814D02*
Y006862D01*
X010194Y00761D02*
Y007819D01*
X009935Y00756D02*
X010194Y007819D01*
X009975Y0076D02*
X010162D01*
X01Y00746D02*
Y007625D01*
X009852Y008722D02*
X010096Y008966D01*
X0098Y008722D02*
Y008989D01*
X009866Y007326D02*
X010097Y007558D01*
X0096Y00697D02*
Y007512D01*
X01031Y007233D02*
X010384D01*
X01031D02*
X010384D01*
X01019Y007113D02*
X01031Y007233D01*
X0102Y006982D02*
Y007123D01*
X01019Y006982D02*
X010368D01*
X01019D02*
Y007113D01*
X009652Y006982D02*
X00981D01*
Y007192D01*
X0098Y006982D02*
Y007512D01*
X012833Y006584D02*
X013077D01*
X012486Y0062D02*
X013078D01*
X013Y005497D02*
Y006584D01*
X0128Y005697D02*
Y006575D01*
X012486Y006185D02*
Y006362D01*
X01238Y006584D02*
X012679D01*
X012482Y0064D02*
X013078D01*
X0124Y005955D02*
Y006037D01*
X012697Y0058D02*
X013108D01*
Y005422D02*
Y005938D01*
X012897Y0056D02*
X013108D01*
X012482Y0054D02*
X01256D01*
X011574Y006D02*
X013078D01*
X012392Y005955D02*
X012463D01*
X0124Y00551D02*
Y00556D01*
X012Y006532D02*
Y006566D01*
X0122Y006532D02*
Y006566D01*
X0118Y006532D02*
Y006566D01*
Y005982D02*
Y006016D01*
X0116Y006566D02*
X012317D01*
X0116Y006532D02*
X012317D01*
X0116D02*
Y006566D01*
X011574Y005979D02*
Y006018D01*
X0116Y005982D02*
Y006016D01*
X011574Y00653D02*
Y006568D01*
X0122Y005982D02*
Y006016D01*
X0116Y005532D02*
X012317D01*
X012Y005982D02*
Y006016D01*
Y005532D02*
Y005566D01*
X0122Y005532D02*
Y005566D01*
X0118Y005532D02*
Y005566D01*
X0116Y005982D02*
X012317D01*
X0116Y005566D02*
X012317D01*
X0116Y006016D02*
X012317D01*
X0116Y005532D02*
Y005566D01*
X011574Y00553D02*
Y005568D01*
X0126Y004129D02*
Y00536D01*
X012486Y0052D02*
X01276D01*
X012486Y005185D02*
Y005362D01*
X0128Y004033D02*
Y00516D01*
X013Y001904D02*
Y00496D01*
X0124Y004085D02*
Y005037D01*
X0116Y005016D02*
X012317D01*
X012384Y005575D02*
X013111Y004849D01*
X012246Y004D02*
X012306D01*
X012893Y003608D02*
Y003805D01*
X0128Y002537D02*
Y003379D01*
X0126Y002633D02*
Y003283D01*
X012893Y002112D02*
Y002309D01*
X0124Y001791D02*
Y001831D01*
X012246Y0034D02*
X012315D01*
X012246Y003548D02*
Y003865D01*
X0124Y002589D02*
Y003327D01*
X012Y004201D02*
Y005016D01*
X012246Y003865D02*
Y004201D01*
X0122D02*
Y005016D01*
X0118Y004201D02*
Y005016D01*
X011651Y004201D02*
X012246D01*
X0116Y004151D02*
Y005016D01*
X011651Y004151D02*
Y004201D01*
X012246Y00333D02*
Y003548D01*
X011694Y00333D02*
X012246D01*
X012241Y002112D02*
Y002309D01*
X012Y001737D02*
Y00333D01*
X0122Y001762D02*
Y00333D01*
X0118Y001717D02*
Y00333D01*
X0116Y0017D02*
Y003169D01*
X0112Y0052D02*
Y005234D01*
X0114Y005059D02*
Y005234D01*
X011Y005151D02*
Y005234D01*
X010394Y005479D02*
Y005568D01*
Y006479D02*
Y006568D01*
X0106Y005151D02*
Y005234D01*
X0108Y005151D02*
Y005234D01*
X010488Y005197D02*
Y005234D01*
X011431Y005185D02*
Y005234D01*
X011198Y0052D02*
X011431D01*
X010534Y005151D02*
X011034D01*
X011418Y005D02*
X01296D01*
X010488Y005234D02*
X011431D01*
X010488Y0052D02*
X011164D01*
X010488Y005197D02*
X010534Y005151D01*
X010455Y004771D02*
X011034D01*
X0102Y006482D02*
Y006566D01*
X01Y005982D02*
Y006066D01*
Y006482D02*
Y006566D01*
X010394Y005979D02*
Y006068D01*
X0102Y005982D02*
Y006066D01*
X0098Y005482D02*
Y005566D01*
X009652Y006566D02*
X010368D01*
X009652Y006482D02*
X010368D01*
X0098D02*
Y006566D01*
X009652Y006066D02*
X010368D01*
X009652Y005982D02*
X010368D01*
X0098D02*
Y006066D01*
X010129Y005482D02*
X010368D01*
X01Y005513D02*
Y005566D01*
X01024Y004907D02*
X010321Y004827D01*
X01024Y0048D02*
X010354D01*
X0102Y005482D02*
Y005566D01*
X009652D02*
X010368D01*
X009778Y005482D02*
X00989D01*
X009652Y005066D02*
X00976D01*
X010897Y004151D02*
X011225D01*
X011D02*
Y004771D01*
X0114Y004151D02*
Y004862D01*
X011225Y004151D02*
X011291D01*
X0112D02*
Y004721D01*
X010508Y0042D02*
X011651D01*
X010508Y004151D02*
X010835D01*
X0106D02*
Y004771D01*
X010835Y004151D02*
X010897D01*
X010835D02*
X010897D01*
X0108D02*
Y004771D01*
X011291Y004151D02*
X011651D01*
X011451Y003019D02*
X011626Y003195D01*
X011225Y004151D02*
X011291D01*
X0114Y001688D02*
Y002981D01*
X0112Y00168D02*
Y002949D01*
X010443D02*
X011281D01*
X0106Y00168D02*
Y002949D01*
X011Y001676D02*
Y002949D01*
X0108Y001676D02*
Y002949D01*
X0104Y004506D02*
Y004779D01*
X01024Y004666D02*
X010437Y004469D01*
X01024Y004666D02*
Y004907D01*
X010508Y004151D02*
Y004299D01*
X00976Y004567D02*
Y005066D01*
X0098Y004292D02*
Y004434D01*
X00983Y004397D02*
X010027Y004201D01*
X010098Y003195D02*
X010274Y003019D01*
X0104Y001689D02*
Y002953D01*
X0102Y001701D02*
Y003093D01*
X009955Y004201D02*
X010027D01*
X01Y001718D02*
Y00333D01*
X0098Y001739D02*
Y00333D01*
X0092Y019421D02*
Y020929D01*
X009215Y0194D02*
X014203D01*
X009Y019506D02*
Y020892D01*
X0088Y019372D02*
Y020849D01*
X008134Y0202D02*
X014153D01*
X008134Y02D02*
X014153D01*
X00859Y0208D02*
X013222D01*
X008134Y0198D02*
X014153D01*
X008415Y0196D02*
X014153D01*
X008585Y0194D02*
X008816D01*
X009246Y0192D02*
X014203D01*
X008874Y0188D02*
X012937D01*
X00911Y0186D02*
X012737D01*
X009Y018674D02*
Y019027D01*
X008516Y0192D02*
X008785D01*
X00866Y019014D02*
X009026Y018648D01*
X008674Y019D02*
X013137D01*
X0088Y018874D02*
Y019162D01*
X0084Y019604D02*
Y020751D01*
X0082Y019578D02*
Y020696D01*
X0086Y019053D02*
Y020803D01*
X0082Y019063D02*
Y01918D01*
X008134Y0196D02*
X008278D01*
X008084Y019588D02*
X008134D01*
X008Y020223D02*
Y020635D01*
X008084Y019578D02*
X008226D01*
X008084Y019198D02*
X008179D01*
X008134Y019588D02*
Y020223D01*
X008084Y018733D02*
X008475D01*
X0084Y019063D02*
Y019136D01*
X008084Y018638D02*
Y018673D01*
Y0186D02*
X008608D01*
X008084Y018638D02*
Y018673D01*
Y019138D02*
Y019173D01*
Y019063D02*
Y019138D01*
Y019173D01*
Y019063D02*
X008543D01*
X008084Y018673D02*
Y018733D01*
X009155Y0184D02*
X012537D01*
X0088Y01613D02*
Y018394D01*
X0094Y015518D02*
Y020963D01*
X0092Y015718D02*
Y019113D01*
X009Y015918D02*
Y018276D01*
X008084Y0184D02*
X008798D01*
X008475Y018733D02*
X008793Y018415D01*
X008084Y0182D02*
X011136D01*
X008084Y018D02*
X011109D01*
X0086Y017054D02*
Y018608D01*
X008659Y017D02*
X009685D01*
X008671Y0168D02*
X009685D01*
X008754Y0162D02*
X009685D01*
X008084Y0178D02*
X01137D01*
X008084Y0174D02*
X009685D01*
X008084Y0176D02*
X009685D01*
X008084Y0166D02*
X009685D01*
X008084Y0164D02*
X009685D01*
X008084Y0172D02*
X009685D01*
X008084Y017138D02*
Y017173D01*
Y017138D02*
Y017173D01*
Y017638D01*
X0082Y017071D02*
Y018733D01*
X0084Y017071D02*
Y018733D01*
X008084Y017071D02*
Y017138D01*
Y018138D02*
Y018173D01*
Y018138D02*
Y018173D01*
Y018638D01*
Y017638D02*
Y017673D01*
Y017638D02*
Y017673D01*
Y018138D01*
X0086Y016252D02*
Y016726D01*
X008084Y0162D02*
X00849D01*
X008084Y016173D02*
Y016638D01*
X0082Y01358D02*
Y016741D01*
X0084Y013791D02*
Y016731D01*
X008084Y016138D02*
Y016173D01*
Y017071D02*
X008445D01*
X008084Y016741D02*
X008386D01*
X008084Y016673D02*
Y016741D01*
Y016638D02*
Y016673D01*
Y016638D02*
Y016673D01*
X00789Y0206D02*
X013921D01*
X0076Y020223D02*
Y0205D01*
X0074Y020223D02*
Y020425D01*
X0078Y020223D02*
Y02057D01*
X007336Y0204D02*
X014475D01*
X007264Y020223D02*
X008134D01*
X007264Y019588D02*
X007314D01*
Y018638D02*
Y018673D01*
Y018638D02*
Y018673D01*
Y018942D01*
Y018138D02*
Y018173D01*
Y018138D02*
Y018173D01*
Y018638D01*
X007222Y0188D02*
X007314D01*
X007022Y0186D02*
X007314D01*
X006986Y0182D02*
X007314D01*
X006912Y018D02*
X007314D01*
X006986Y0184D02*
X007314D01*
X007264Y019588D02*
Y020223D01*
X007036Y0196D02*
X007264D01*
X007028Y0198D02*
X007264D01*
X0072Y019516D02*
Y020345D01*
X007036Y019353D02*
Y019745D01*
X006867Y0202D02*
X007264D01*
X006456Y02D02*
X007264D01*
X006472Y019945D02*
X006835D01*
X007Y019859D02*
Y02026D01*
X0068Y019945D02*
Y020169D01*
X007036Y019353D02*
X007187Y019504D01*
X007036Y0194D02*
X007083D01*
X006986Y018563D02*
X00726Y018838D01*
X006986Y018129D02*
Y018563D01*
X006472Y018992D02*
X006835D01*
X0068Y018915D02*
Y018992D01*
X006717Y018832D02*
X006882Y018998D01*
X006472Y018832D02*
X006717D01*
X007314Y017638D02*
Y017673D01*
Y017638D02*
Y017673D01*
Y018138D01*
Y017173D02*
Y017238D01*
X007276Y0172D02*
X007314D01*
Y017571D02*
Y017638D01*
X003461Y0176D02*
X007314D01*
X007248Y017571D02*
X007314D01*
X003633Y0178D02*
X007314D01*
X007212Y017136D02*
X007314Y017238D01*
Y017138D02*
Y017173D01*
Y016673D02*
Y017138D01*
Y017173D01*
Y016638D02*
Y016673D01*
Y016173D02*
Y016638D01*
Y016673D01*
X007212Y0168D02*
X007314D01*
X007212Y0166D02*
X007314D01*
X007212Y017D02*
X007314D01*
X007063Y0162D02*
X007314D01*
X007211Y0164D02*
X007314D01*
X0072Y017563D02*
Y018778D01*
X006931Y017321D02*
X007131Y017522D01*
X007Y017391D02*
Y018578D01*
X006882Y016486D02*
Y017205D01*
X005552Y0174D02*
X007009D01*
X006472Y017979D02*
X006835D01*
X0068Y016403D02*
Y017979D01*
X006618Y0172D02*
X006882D01*
X007212Y016417D02*
Y017136D01*
X006768Y0168D02*
X006882D01*
X006736Y017D02*
X006882D01*
X0072Y016071D02*
Y016355D01*
X006729Y0166D02*
X006882D01*
X0066Y0164D02*
X006797D01*
X005598Y014735D02*
X007164Y016301D01*
X005316Y01492D02*
X006882Y016486D01*
X009318Y0156D02*
X011489D01*
X009518Y0154D02*
X011489D01*
X009118Y0158D02*
X011489D01*
X0092Y014141D02*
Y015252D01*
X009384Y015067D02*
X00958Y014871D01*
X009Y014141D02*
Y015452D01*
X008918Y016D02*
X009685D01*
X008084Y0154D02*
X009052D01*
X008084Y0156D02*
X008852D01*
X008805Y016113D02*
X009617Y015301D01*
X008572Y01588D02*
X009384Y015068D01*
X008084Y0152D02*
X009252D01*
X0096Y014141D02*
Y014825D01*
X0094Y014141D02*
Y015052D01*
X008887Y013811D02*
X010168D01*
X008876Y0138D02*
X010179D01*
X009Y013762D02*
Y013811D01*
X008084Y0148D02*
X009618D01*
X008084Y0146D02*
X011489D01*
X008084Y015D02*
X009452D01*
X008084Y0144D02*
X011489D01*
X008084Y0142D02*
X011489D01*
X008819Y014141D02*
X010236D01*
X008084Y014673D02*
Y015138D01*
Y014638D02*
Y014673D01*
Y015138D02*
Y015173D01*
X0086Y013991D02*
Y015852D01*
X0088Y01414D02*
Y015652D01*
X008084Y014638D02*
Y014673D01*
Y0158D02*
X008652D01*
X008084Y015638D02*
Y015673D01*
Y016138D02*
Y016173D01*
Y015173D02*
Y015638D01*
Y015138D02*
Y015173D01*
Y015638D02*
Y015673D01*
Y0138D02*
X008409D01*
X00823Y013621D02*
X008702Y014093D01*
X008084Y013638D02*
Y013673D01*
Y013638D02*
Y013673D01*
Y014138D02*
Y014173D01*
Y014138D02*
Y014173D01*
Y014638D01*
Y014D02*
X008609D01*
X008084Y013673D02*
Y014138D01*
X009187Y0136D02*
X010379D01*
X009163Y0134D02*
X01055D01*
X009121Y013349D02*
X009211D01*
X0094Y013299D02*
Y013811D01*
X0096Y013299D02*
Y013811D01*
X0092Y013349D02*
Y013811D01*
X008511Y013436D02*
X008887Y013811D01*
X009211Y013299D02*
X009627D01*
X009277Y011D02*
X013528D01*
X009211Y013299D02*
Y013349D01*
X0094Y010863D02*
Y011041D01*
X009419Y0108D02*
X011353D01*
X009Y011005D02*
Y011041D01*
X008326D02*
X012323D01*
X008285Y011D02*
X00899D01*
X008511Y0134D02*
X008755D01*
X008577Y013349D02*
X008797D01*
X008676Y0136D02*
X008731D01*
X0086Y013349D02*
Y013524D01*
X008577Y012488D02*
Y013349D01*
X008511Y012992D02*
Y013436D01*
X008084Y0136D02*
X008212D01*
X008181Y01306D02*
Y013504D01*
X008084Y0134D02*
X008181D01*
X008084Y013138D02*
Y013638D01*
X008511Y0132D02*
X008577D01*
X008511Y013D02*
X008577D01*
X008388Y0128D02*
X008577D01*
X0084Y012488D02*
Y012812D01*
X008188Y0126D02*
X008463Y012875D01*
X008188Y0126D02*
X008577D01*
X008084Y0132D02*
X008181D01*
X008085Y0108D02*
X008849D01*
X0082Y012488D02*
Y012612D01*
X008084Y015673D02*
Y016138D01*
Y016D02*
X008443D01*
X007314Y015138D02*
Y015173D01*
Y014673D02*
Y015138D01*
Y014638D02*
Y014673D01*
Y015138D02*
Y015173D01*
X006775Y0154D02*
X007314D01*
X006575Y0152D02*
X007314D01*
X006975Y0156D02*
X007314D01*
X006375Y015D02*
X007314D01*
X006175Y0148D02*
X007314D01*
Y015173D02*
Y015638D01*
Y014572D02*
Y014638D01*
Y014173D02*
Y014242D01*
Y014638D02*
Y014673D01*
Y014138D02*
Y014173D01*
Y014067D02*
Y014138D01*
Y014173D01*
X006948Y014572D02*
X007314D01*
X006941Y014242D02*
X007314D01*
X006031Y0146D02*
X007314D01*
X006937Y014067D02*
X007314D01*
X006951Y013737D02*
X007314D01*
X006031Y0142D02*
X007314D01*
Y016138D02*
Y016173D01*
X007047Y016071D02*
X007314D01*
Y016138D02*
Y016173D01*
Y016071D02*
Y016138D01*
X007Y016064D02*
Y016137D01*
X006863Y016D02*
X006908D01*
X0068Y015892D02*
Y015937D01*
X005749Y014841D02*
X006931Y016022D01*
X006031Y014656D02*
X007116Y015741D01*
X006663Y0158D02*
X006708D01*
X007314Y015673D02*
Y015741D01*
Y015638D02*
Y015673D01*
X007116Y015741D02*
X007314D01*
Y015638D02*
Y015673D01*
X0072Y014067D02*
Y014242D01*
Y014572D02*
Y015741D01*
X007Y014572D02*
Y015625D01*
X0068Y014593D02*
Y015425D01*
X007Y014067D02*
Y014242D01*
X0068Y014081D02*
Y014226D01*
X008Y012882D02*
Y013138D01*
X008003Y012882D02*
X008181Y01306D01*
X0078Y012882D02*
Y013138D01*
Y012488D02*
Y012552D01*
X007314Y013138D02*
X008084D01*
X005285Y013D02*
X008121D01*
X005328Y012882D02*
X008003D01*
X0076D02*
Y013138D01*
Y012488D02*
Y012552D01*
X0074Y012488D02*
Y012552D01*
X008Y012488D02*
Y012552D01*
X00752Y011897D02*
X007757D01*
X0076D02*
Y012158D01*
X005328Y012552D02*
X008071D01*
X006654Y012488D02*
X008577D01*
X006722Y012158D02*
X00772D01*
X006564Y012D02*
X00769D01*
X0074Y011846D02*
Y012158D01*
X007314Y013638D02*
Y013673D01*
Y013638D02*
Y013673D01*
Y013737D01*
Y013138D02*
Y013638D01*
X0074Y012882D02*
Y013138D01*
X0072Y012882D02*
Y013737D01*
X005743Y0136D02*
X007314D01*
X005543Y0134D02*
X007314D01*
X007Y012882D02*
Y013737D01*
X005385Y0132D02*
X007314D01*
X0068Y012882D02*
Y013714D01*
X007Y012488D02*
Y012552D01*
X0072Y012488D02*
Y012552D01*
X0068Y012488D02*
Y012552D01*
X007Y011446D02*
Y012158D01*
X0072Y011646D02*
Y012158D01*
X0068Y011246D02*
Y012158D01*
X006364Y0118D02*
X007354D01*
X006151Y0116D02*
X007154D01*
X006196Y011632D02*
X006722Y012158D01*
X005332Y0114D02*
X006954D01*
X005382Y0112D02*
X006754D01*
X0066Y019945D02*
Y020073D01*
X0064Y019932D02*
Y019971D01*
X006271Y019192D02*
Y019745D01*
X006088Y0198D02*
X006279D01*
X005754Y0196D02*
X006271D01*
X0062Y018553D02*
Y019863D01*
X006056Y0194D02*
X006271D01*
X006056Y018774D02*
Y019448D01*
X0066Y018832D02*
Y018992D01*
X0064Y018814D02*
Y019005D01*
X006321Y018129D02*
Y018173D01*
Y018553D02*
Y018682D01*
X006056Y019D02*
X006416D01*
X006056Y0188D02*
X006379D01*
X006056Y0192D02*
X006271D01*
X006006Y018553D02*
X006321D01*
X006006Y018173D02*
X006321D01*
X006006Y0186D02*
X006321D01*
X006Y019448D02*
Y019749D01*
X0058Y019448D02*
Y019629D01*
X0056Y018608D02*
Y018774D01*
X005519Y019448D02*
X006056D01*
X0056D02*
Y019501D01*
X005382Y018803D02*
Y019355D01*
X005508Y018608D02*
X005622D01*
X006006D01*
X005508D02*
X005622D01*
X006D02*
Y018774D01*
X006006Y018553D02*
Y018608D01*
X0058D02*
Y018774D01*
X005403D02*
X006056D01*
X005437Y018679D02*
X005508Y018608D01*
X005432Y018034D02*
X006006D01*
X0066Y017219D02*
Y017979D01*
X0064Y017351D02*
Y017997D01*
X0066Y016203D02*
Y0164D01*
Y015692D02*
Y015737D01*
X0064Y016003D02*
Y016268D01*
X006006Y018034D02*
Y018173D01*
X0062Y017391D02*
Y018173D01*
X006Y017361D02*
Y018034D01*
X0062Y015803D02*
Y016227D01*
X006Y015603D02*
Y016258D01*
X006463Y0156D02*
X006508D01*
X0064Y015492D02*
Y015537D01*
X006263Y0154D02*
X006308D01*
X0066Y012882D02*
Y015225D01*
X0064Y012882D02*
Y015025D01*
X0062Y012882D02*
Y014825D01*
Y015292D02*
Y015337D01*
X006063Y0152D02*
X006108D01*
X006Y015092D02*
Y015137D01*
X006031Y013957D02*
Y014656D01*
Y0144D02*
X006661D01*
X005863Y015D02*
X005908D01*
X0058Y017245D02*
Y018034D01*
X005619Y0172D02*
X005755D01*
X0056Y017303D02*
Y018034D01*
X005574Y017D02*
X005636D01*
X0056Y015203D02*
Y01706D01*
X005432Y018034D02*
Y018228D01*
X005429Y0168D02*
X005604D01*
X0054Y017529D02*
Y01823D01*
X005305Y016635D02*
X005542Y01695D01*
X005275Y0166D02*
X005643D01*
X0054Y015003D02*
Y016761D01*
X0058Y015403D02*
Y016374D01*
Y014892D02*
Y014937D01*
X005663Y0148D02*
X005719D01*
X005701Y014025D02*
Y014724D01*
X005598Y0146D02*
X005701D01*
X005598Y0144D02*
X005701D01*
X0056Y013924D02*
Y014737D01*
X005598Y014252D02*
Y014735D01*
X0052Y018888D02*
Y019226D01*
X005165Y0192D02*
X005382D01*
X005Y018783D02*
Y019076D01*
X005168Y01841D02*
X005295Y018284D01*
X0052Y017565D02*
Y018378D01*
X005Y017487D02*
Y018514D01*
X004902Y019D02*
X005382D01*
X004656Y0188D02*
X005013D01*
X004426Y0186D02*
X004964D01*
X00421Y0184D02*
X005178D01*
X0048Y017246D02*
Y018919D01*
X00469Y017099D02*
X004927Y017414D01*
X004536Y016D02*
X006397D01*
X004602Y0158D02*
X006197D01*
X00457Y0156D02*
X005997D01*
X004006Y0182D02*
X005432D01*
X003814Y018D02*
X006395D01*
X003298Y0174D02*
X004916D01*
X00421Y0162D02*
X006597D01*
X004437Y0154D02*
X005797D01*
X002604Y0164D02*
X005772D01*
X0044Y016135D02*
Y018576D01*
X0042Y016201D02*
Y01839D01*
X004Y016168D02*
Y018194D01*
X0046Y015821D02*
Y018752D01*
X0038Y016002D02*
Y017985D01*
X003144Y0172D02*
X004766D01*
X002998Y017D02*
X004636D01*
X002859Y0168D02*
X004618D01*
X002728Y0166D02*
X00472D01*
X002486Y0162D02*
X004126D01*
X0036Y015736D02*
Y017763D01*
X0046Y01522D02*
Y015713D01*
X0044Y015202D02*
Y015351D01*
X003584Y015714D02*
X00382Y016029D01*
X002375Y016D02*
X003799D01*
X002269Y0158D02*
X003648D01*
X00217Y0156D02*
X003522D01*
X002076Y0154D02*
X003499D01*
X004279Y01519D02*
X004516Y015505D01*
X00471Y0152D02*
X005597D01*
X004286D02*
X004393D01*
X0052Y014252D02*
Y01654D01*
X005Y015011D02*
Y016482D01*
X0048Y015166D02*
Y016536D01*
X001904Y015D02*
X004094D01*
X004Y014827D02*
Y015023D01*
X0038Y014023D02*
Y015037D01*
X005009Y015D02*
X005397D01*
X005111Y0148D02*
X005268D01*
Y01432D02*
Y014803D01*
X005132Y0146D02*
X005268D01*
X003565Y0148D02*
X003992D01*
X003565Y0144D02*
X004021D01*
X003565Y0146D02*
X003971D01*
X004Y014023D02*
Y014453D01*
X0034Y014893D02*
Y017527D01*
X003149Y014893D02*
X003565D01*
X0032D02*
Y017274D01*
X0036Y014192D02*
Y01517D01*
X003149Y014359D02*
Y014893D01*
X003Y013723D02*
Y017003D01*
X0028Y014893D02*
Y016711D01*
X001988Y0152D02*
X003576D01*
X0026Y014893D02*
Y016394D01*
X0024Y013723D02*
Y016046D01*
X0022Y013473D02*
Y015662D01*
X002Y013473D02*
Y015229D01*
X00285Y0148D02*
X003149D01*
X00285Y0146D02*
X003149D01*
X00285Y014644D02*
Y014893D01*
X003565Y014359D02*
Y014893D01*
X00285Y0144D02*
X003149D01*
X00285Y014359D02*
Y014644D01*
X002434Y014893D02*
X00285D01*
X001754Y0146D02*
X002434D01*
X001826Y0148D02*
X002434D01*
Y014359D02*
Y014893D01*
X0018Y013472D02*
Y014729D01*
X00559Y0142D02*
X005701D01*
X006031Y014D02*
X00669D01*
X004971Y014023D02*
X005268Y01432D01*
X005414Y014D02*
X005676D01*
X005082Y0144D02*
X005268D01*
X005156Y013742D02*
X00555Y014135D01*
X00515Y013474D02*
X005701Y014025D01*
X0054Y013724D02*
Y013986D01*
X005943Y0138D02*
X006687D01*
X0054Y012882D02*
Y013257D01*
X006Y012882D02*
Y01386D01*
X0058Y012882D02*
Y013657D01*
X0056Y012882D02*
Y013457D01*
X005214Y0138D02*
X005476D01*
X003866Y0136D02*
X005276D01*
X0052Y013524D02*
Y013786D01*
X005383Y013241D02*
X005983Y01384D01*
X005Y014052D02*
Y014269D01*
X004933Y0142D02*
X005148D01*
X0042Y014023D02*
Y014176D01*
X0048Y014023D02*
Y014114D01*
X0046Y014023D02*
Y01406D01*
X0044Y014023D02*
Y014078D01*
X003522Y014359D02*
X003565D01*
X003592Y0142D02*
X00417D01*
X003522Y01427D02*
Y014359D01*
Y01427D02*
X003769Y014023D01*
X004971D01*
X00324Y014085D02*
X003536Y01379D01*
X005Y013448D02*
Y013693D01*
X003866Y013D02*
X004951D01*
X003866Y0132D02*
X004851D01*
X003866Y013693D02*
X005039D01*
X003866Y0134D02*
X004932D01*
X003196Y0136D02*
X003536D01*
Y012824D02*
Y01379D01*
X003196Y012843D02*
Y013723D01*
X0066Y012479D02*
Y012552D01*
X0064Y012303D02*
Y012552D01*
X006011Y011914D02*
X006537Y01244D01*
X0062Y012103D02*
Y012552D01*
X005319Y0124D02*
X006497D01*
X005384Y0122D02*
X006297D01*
X0054Y011914D02*
Y012552D01*
X0058Y011914D02*
Y012552D01*
X006Y011914D02*
Y012552D01*
X0056Y011914D02*
Y012552D01*
X0066Y011046D02*
Y012036D01*
X0064Y010846D02*
Y011836D01*
X005431Y0108D02*
X006354D01*
X0054Y010893D02*
Y011584D01*
X005263Y012D02*
X006097D01*
X00534Y011584D02*
X006079D01*
X005314Y011914D02*
X006011D01*
X005311Y011D02*
X006554D01*
X003866Y0128D02*
X004864D01*
X003866Y012756D02*
Y013693D01*
X003778Y0126D02*
X004878D01*
X0034Y012688D02*
Y013926D01*
X003239Y012527D02*
X003536Y012824D01*
X003424Y012246D02*
X003817Y012639D01*
X0032Y012527D02*
Y014151D01*
X003578Y0124D02*
X004917D01*
X003337Y0122D02*
X004852D01*
X003192Y014202D02*
Y014359D01*
X003149D02*
X003192D01*
X002832Y014D02*
X003326D01*
X002832Y0138D02*
X003526D01*
X002832Y0142D02*
X003192D01*
X001564Y014D02*
X002452D01*
X001622Y0142D02*
X002452D01*
Y013723D02*
Y014359D01*
X002832Y013723D02*
Y014359D01*
X00151Y0138D02*
X002452D01*
X003196Y0132D02*
X003536D01*
X003196Y013D02*
X003536D01*
X003196Y0134D02*
X003536D01*
X003062Y0126D02*
X003312D01*
X003122Y012527D02*
X003239D01*
X003Y01265D02*
Y012843D01*
X002832Y013723D02*
X003196D01*
X002316Y012843D02*
X003196D01*
X002316Y013723D02*
X002452D01*
X0028Y012721D02*
Y012843D01*
X001883Y0128D02*
X003512D01*
X0026Y012695D02*
Y012843D01*
X001686Y0144D02*
X002434D01*
X002316Y013473D02*
Y013723D01*
X001827Y013473D02*
X002316D01*
X0016Y013325D02*
Y014125D01*
X001461Y0136D02*
X002316D01*
X001559Y013284D02*
X001692Y013418D01*
X001416Y0134D02*
X001675D01*
X001376Y0132D02*
X00151D01*
X001905Y013093D02*
X002316D01*
X001883Y013D02*
X002316D01*
X001883Y013071D02*
X001905Y013093D01*
X0024Y012542D02*
Y012843D01*
X001883Y0126D02*
X00245D01*
X002316Y012843D02*
Y013093D01*
X001308Y0128D02*
X001503D01*
X00128Y0126D02*
X001503D01*
X00134Y013D02*
X001503D01*
Y012502D02*
Y01315D01*
X001426Y012502D02*
X001503D01*
X003187Y012197D02*
X003307D01*
X003092Y012D02*
X004973D01*
X0028Y011721D02*
Y011846D01*
X003Y01165D02*
Y011917D01*
X0026Y011695D02*
Y011872D01*
X0024Y011542D02*
Y012025D01*
X00196Y0124D02*
X002332D01*
X001223Y012D02*
X002419D01*
X00196Y0122D02*
X002324D01*
X001212Y0118D02*
X00486D01*
X003062Y0116D02*
X004886D01*
X00318Y0114D02*
X004904D01*
X003188Y0112D02*
X004854D01*
X003092Y011D02*
X004925D01*
X0028Y010771D02*
Y010846D01*
X0026Y010748D02*
Y010872D01*
X00196Y0116D02*
X00245D01*
X00196Y0114D02*
X002332D01*
X001858Y0112D02*
X002324D01*
X001974Y0108D02*
X004805D01*
X001974Y011D02*
X002419D01*
X001883Y012502D02*
X00196D01*
Y012086D02*
Y012502D01*
X001883D02*
Y013071D01*
X0018Y011787D02*
Y012086D01*
X00196Y011371D02*
Y011787D01*
X0016D02*
Y012086D01*
X001426D02*
Y012502D01*
X001238Y0122D02*
X001426D01*
X001257Y0124D02*
X001426D01*
Y012086D02*
X00196D01*
X001426Y011787D02*
X00196D01*
X001426Y011371D02*
Y011787D01*
X001858Y011371D02*
X00196D01*
X001412Y011088D02*
X001528D01*
X001426Y011371D02*
X001528D01*
X001858Y011088D02*
Y011371D01*
Y011088D02*
X001974D01*
X001528D02*
Y011371D01*
X001203Y0114D02*
X001426D01*
X001205Y0112D02*
X001528D01*
X001206Y0116D02*
X001426D01*
X00122Y0108D02*
X001412D01*
X00121Y011D02*
X001412D01*
X0096Y010546D02*
Y011041D01*
X00952Y01D02*
X010634D01*
X009401Y009696D02*
Y009736D01*
X0096Y009681D02*
Y01008D01*
X009401Y009696D02*
Y009736D01*
X009383Y0106D02*
X011416D01*
X009163Y01011D02*
X009603Y01055D01*
X009401Y009881D02*
X009788Y010268D01*
X009401Y0098D02*
X010617D01*
X009401Y009736D02*
Y009881D01*
Y009319D02*
X009794D01*
X009401Y008989D02*
X009862D01*
X0096Y009319D02*
Y009374D01*
X0095Y0088D02*
X00993D01*
X00955Y008722D02*
X009852D01*
X009401Y008945D02*
Y008989D01*
Y009319D02*
Y009359D01*
Y009319D02*
Y009359D01*
X00863Y008945D02*
X009401D01*
X0094Y008849D02*
Y008945D01*
Y010346D02*
Y010633D01*
X0092Y010146D02*
Y010466D01*
X0088Y01011D02*
Y011041D01*
X009Y01011D02*
Y010491D01*
X00863Y009319D02*
Y009362D01*
Y01011D02*
X009163D01*
X00863Y009693D02*
Y009736D01*
Y01011D01*
Y009693D02*
Y009736D01*
Y009362D02*
Y009693D01*
X0086Y008182D02*
Y011041D01*
X009Y008692D02*
Y008945D01*
X0092Y008746D02*
Y008945D01*
X0088Y008692D02*
Y008945D01*
X009161Y008692D02*
X00919Y008721D01*
X009015Y008692D02*
X009161D01*
X009015D02*
X009161D01*
X00863Y008945D02*
Y009319D01*
X008764Y008692D02*
X009015D01*
X00863Y009319D02*
Y009362D01*
X008515Y008182D02*
X008764D01*
X008515Y0084D02*
X008764D01*
X009401Y0074D02*
X00994D01*
X009401Y0072D02*
X00981D01*
X009401Y007D02*
X00981D01*
X009532Y006685D02*
Y006862D01*
X009401Y006997D02*
Y007413D01*
X008811Y007512D02*
X009819D01*
X008867Y007413D02*
X009401D01*
X0094D02*
Y007512D01*
Y006698D02*
Y006997D01*
X009065D02*
X009401D01*
X0092Y006698D02*
Y006997D01*
X0096Y00647D02*
Y006577D01*
X009401Y0066D02*
X009568D01*
X009401Y0064D02*
X009518D01*
X008761Y0068D02*
X009532D01*
X008867Y006282D02*
X009401D01*
X008867Y006698D02*
X009401D01*
Y006282D02*
Y006698D01*
X0094Y006227D02*
Y006282D01*
X0092Y006227D02*
Y006282D01*
X009Y007413D02*
Y007512D01*
X0092Y007413D02*
Y007512D01*
X008867Y007195D02*
Y007413D01*
X008938Y00687D02*
X009065Y006997D01*
X009Y006698D02*
Y006932D01*
X008764Y008182D02*
Y008692D01*
X008811Y0074D02*
X008867D01*
X008515Y008182D02*
Y008742D01*
X008811Y0072D02*
X008867D01*
X008811Y007139D02*
X008867Y007195D01*
X008811Y007139D02*
Y007512D01*
X008867Y00663D02*
Y006698D01*
X0088Y00663D02*
Y006829D01*
X008867Y006282D02*
Y00635D01*
X009Y006227D02*
Y006282D01*
X0088Y005874D02*
Y00635D01*
X008761Y006829D02*
X008839D01*
X008761Y00663D02*
X008867D01*
X008761D02*
Y006829D01*
Y00635D02*
X008867D01*
X008761Y006262D02*
Y00635D01*
X008243Y0106D02*
X008884D01*
X008309Y0104D02*
X009454D01*
X00822Y0098D02*
X00863D01*
X0084Y008742D02*
Y011041D01*
X00822Y009693D02*
Y009736D01*
Y009693D02*
Y009736D01*
X007858Y010573D02*
X008326Y011041D01*
X008128Y0102D02*
X009254D01*
X00822Y01D02*
X00863D01*
X00822Y009736D02*
Y01011D01*
Y009319D02*
Y009362D01*
Y0092D02*
X00863D01*
X00822Y009319D02*
Y009362D01*
Y009D02*
X00863D01*
X008515Y0086D02*
X008764D01*
X00822Y0096D02*
X00863D01*
X00822Y0094D02*
X00863D01*
X00822Y009362D02*
Y009693D01*
X008025Y0088D02*
X00924D01*
X008025Y008742D02*
X008515D01*
X008025Y008945D02*
X00822D01*
X0082Y010635D02*
Y010915D01*
X008Y010662D02*
Y010715D01*
X0062Y010646D02*
Y011636D01*
X007686Y01011D02*
X007869Y010293D01*
X0082Y01011D02*
Y010231D01*
X006025Y010471D02*
X007403Y011849D01*
X006Y010439D02*
Y011584D01*
X005399Y0106D02*
X006154D01*
X005385Y0104D02*
X005983D01*
X005977Y00995D02*
Y010354D01*
X008Y01011D02*
Y010204D01*
X007776Y0102D02*
X008014D01*
X0078Y01011D02*
Y010224D01*
X00822Y008945D02*
Y009319D01*
X0082Y008742D02*
Y008945D01*
X008025Y008742D02*
Y008945D01*
X007686Y01011D02*
X00822D01*
X005385Y01D02*
X005977D01*
X005385Y0102D02*
X005977D01*
X005837Y009811D02*
X005977Y00995D01*
X002885Y009811D02*
X005837D01*
X008515Y0082D02*
X008764D01*
X0078Y007398D02*
Y007512D01*
X008138Y007109D02*
Y007512D01*
X008Y007198D02*
Y007512D01*
X007717D02*
X008138D01*
X007798Y0074D02*
X008138D01*
X007682Y007516D02*
X008089Y007109D01*
X008138D01*
X007998Y0072D02*
X008138D01*
X008074Y006384D02*
X008188D01*
Y006262D02*
Y006384D01*
X008Y006146D02*
Y00631D01*
X007585Y006409D02*
X007632D01*
X006121Y0064D02*
X007623D01*
X0076Y006377D02*
Y006409D01*
X0064Y00471D02*
X008074Y006384D01*
X006205Y004981D02*
X007632Y006409D01*
X006607Y007D02*
X006936D01*
X006753Y007183D02*
X007486Y00645D01*
X007Y005777D02*
Y006936D01*
X0068Y005577D02*
Y007136D01*
X006581Y006974D02*
X006713Y007106D01*
X0066Y005377D02*
Y006993D01*
X0062Y006377D02*
Y006933D01*
X006Y006414D02*
Y006933D01*
X0064Y00625D02*
Y006933D01*
X0072Y005977D02*
Y006736D01*
X0074Y006177D02*
Y006536D01*
X005529Y0068D02*
X007136D01*
X005529Y0066D02*
X007336D01*
X005529Y006933D02*
X006482D01*
X004616Y0064D02*
X005869D01*
X009401Y006D02*
X010394D01*
X009401Y0062D02*
X009484D01*
X0096Y00597D02*
Y006077D01*
X009401Y005811D02*
Y006227D01*
X009299Y005811D02*
X009401D01*
X008867Y006227D02*
X009401D01*
X0094Y005513D02*
Y005811D01*
X009299Y0058D02*
X009483D01*
X009401Y005494D02*
X009709D01*
X0096D02*
Y005577D01*
X009401Y005114D02*
X009555D01*
X009163Y005592D02*
X009251Y00568D01*
X009171Y0056D02*
X009568D01*
X008867Y005513D02*
X009401D01*
X008867Y005096D02*
X009401D01*
X0092Y005513D02*
Y005629D01*
X008732Y0062D02*
X008867D01*
X008732Y006D02*
X008867D01*
X008732Y005874D02*
Y006227D01*
X008867Y005874D02*
Y006227D01*
X008732Y005874D02*
X008867D01*
X0084Y006227D02*
Y006262D01*
X0086Y006227D02*
Y006262D01*
X0082Y006227D02*
Y006262D01*
X0084Y005513D02*
Y005544D01*
X0086Y005513D02*
Y005544D01*
X008226Y005513D02*
X008257Y005544D01*
X009Y005513D02*
Y005544D01*
X008257D02*
X009046D01*
X008732Y005494D02*
X008867D01*
X0088D02*
Y005544D01*
X008732Y005114D02*
X008867D01*
X0084Y00492D02*
Y005096D01*
X008197Y005484D02*
X008226Y005513D01*
X008732D01*
X008197Y005096D02*
Y005484D01*
Y005096D02*
X008732D01*
X0082Y00493D02*
Y005096D01*
X0096Y004231D02*
Y005077D01*
X009486Y004201D02*
X009573D01*
X009486Y003548D02*
Y003865D01*
X0088Y0046D02*
X00976D01*
X008853Y0044D02*
X009828D01*
X008645Y0048D02*
X00976D01*
X009486Y003865D02*
Y004201D01*
X009427Y004D02*
X009486D01*
X009478Y0024D02*
X012254D01*
X009492Y0022D02*
X012241D01*
X009486Y00333D02*
X01003D01*
X0096Y001764D02*
Y00333D01*
X009472Y002D02*
X01226D01*
X009492Y002112D02*
Y002309D01*
X009312Y0026D02*
X01242D01*
X009417Y0034D02*
X009486D01*
X009356Y0018D02*
X012455D01*
X0092Y004129D02*
Y005096D01*
X008835Y0042D02*
X009486D01*
X009Y004086D02*
Y005096D01*
X0094Y004031D02*
Y005096D01*
X008839Y003608D02*
Y003805D01*
X0088Y001907D02*
Y004104D01*
Y0046D02*
Y005114D01*
X0086Y004834D02*
Y005096D01*
X008737Y004D02*
X008904D01*
X008457Y0038D02*
X008839D01*
X0086Y001953D02*
Y003871D01*
X009486Y00333D02*
Y003548D01*
X0092Y002633D02*
Y003283D01*
X009Y00259D02*
Y003327D01*
X0094Y002535D02*
Y003381D01*
Y001793D02*
Y001885D01*
X008839Y002112D02*
Y002309D01*
X0082Y00206D02*
Y003775D01*
X008417Y002D02*
X008859D01*
X0084Y002005D02*
Y003784D01*
X008188Y006262D02*
X008761D01*
X008197Y006227D02*
X008732D01*
X008106Y006184D02*
X008197D01*
Y006227D01*
X00789Y0062D02*
X008197D01*
X00769Y006D02*
X007853D01*
X006446Y0062D02*
X007423D01*
X006391Y004538D02*
X007989Y006136D01*
X0078Y005947D02*
Y00611D01*
X0076Y005747D02*
Y00591D01*
X007914Y0052D02*
X008197D01*
X007714Y005D02*
X00976D01*
X008114Y0054D02*
X008197D01*
X008Y004866D02*
Y005286D01*
X007514Y0048D02*
X007901D01*
X0078Y004691D02*
Y005086D01*
X00749Y0058D02*
X007653D01*
X00729Y0056D02*
X007453D01*
X0074Y005547D02*
Y00571D01*
X007314Y0046D02*
X007746D01*
X007114Y0044D02*
X007693D01*
X00709Y0054D02*
X007253D01*
X006552Y006D02*
X007223D01*
X006576Y0058D02*
X007023D01*
X006529Y0056D02*
X006823D01*
X0072Y005347D02*
Y00551D01*
X007Y005147D02*
Y00531D01*
X0064Y005177D02*
Y005414D01*
X006385Y0054D02*
X006623D01*
X005864Y0052D02*
X006423D01*
X0062Y004984D02*
Y005287D01*
X006Y005114D02*
Y00525D01*
X00689Y0052D02*
X007053D01*
X00669Y005D02*
X006853D01*
X0068Y004947D02*
Y00511D01*
X00649Y0048D02*
X006653D01*
X0072Y004326D02*
Y004486D01*
X0066Y004747D02*
Y00491D01*
X006176Y005D02*
X006223D01*
X0059Y005179D02*
X006205Y004981D01*
X006403Y0046D02*
X006453D01*
X007924Y0038D02*
X008089D01*
X0076Y004135D02*
Y004886D01*
X008Y002121D02*
Y003838D01*
X007006Y004292D02*
X008197Y005484D01*
X0075Y0042D02*
X007711D01*
X007413Y004256D02*
X007743Y004042D01*
X007935Y0036D02*
X008839D01*
X007842Y0034D02*
X008914D01*
X0078Y002186D02*
Y003356D01*
X007758Y0022D02*
X008839D01*
X0076Y002256D02*
Y003252D01*
X006012Y003D02*
X010295D01*
X006371Y0028D02*
X014611D01*
X005684Y0032D02*
X010093D01*
X006772Y0026D02*
X009019D01*
X007226Y0024D02*
X008852D01*
X0074Y004265D02*
Y004686D01*
X006714Y004D02*
X006754D01*
X0066Y002683D02*
Y003886D01*
X006514Y0038D02*
X00675D01*
X005231Y004299D02*
X005845D01*
X006452Y003738D02*
X006775Y004062D01*
X0068Y002587D02*
Y003672D01*
X006939Y003526D02*
X007269Y003312D01*
X0064Y002785D02*
Y003703D01*
X0072Y002411D02*
Y003357D01*
X0074Y002331D02*
Y003255D01*
X007Y002496D02*
Y003487D01*
X005105Y0036D02*
X006853D01*
X005384Y0034D02*
X007133D01*
X005123Y00369D02*
X006335D01*
X0062Y002893D02*
Y00369D01*
X006Y003007D02*
Y00369D01*
X005385Y009989D02*
Y010523D01*
X005342D02*
X005385D01*
X0056Y009811D02*
Y011584D01*
X0058Y009811D02*
Y011584D01*
X0054Y009811D02*
Y010603D01*
X00313Y0106D02*
X004838D01*
X004851Y010523D02*
X004895D01*
X004851Y009989D02*
Y010523D01*
X0052Y009811D02*
Y009989D01*
X004851D02*
X005385D01*
X005Y009811D02*
Y009989D01*
Y009332D02*
Y009481D01*
X004822Y009154D02*
X005149Y009481D01*
X003239Y0102D02*
X004851D01*
X003156Y01D02*
X004851D01*
X003232Y0104D02*
X004851D01*
X002943Y009481D02*
X005149D01*
X003009Y0094D02*
X005068D01*
X003017Y0092D02*
X004868D01*
X004Y009811D02*
Y013693D01*
X0042Y009811D02*
Y013693D01*
X0038Y009811D02*
Y012622D01*
X0046Y009811D02*
Y013693D01*
X0048Y009811D02*
Y013693D01*
X0044Y009811D02*
Y013693D01*
X0032Y010491D02*
Y012197D01*
X003Y010708D02*
Y010917D01*
X0036Y009811D02*
Y012422D01*
X0034Y009811D02*
Y012226D01*
X0048Y009125D02*
Y009481D01*
X0032Y009811D02*
Y010076D01*
X0046Y009047D02*
Y009481D01*
X004348Y009047D02*
X004764D01*
X0044D02*
Y009481D01*
X003Y009417D02*
Y009481D01*
Y009811D02*
Y009859D01*
X0042Y008919D02*
Y009481D01*
X003937Y008919D02*
X004348D01*
X004D02*
Y009481D01*
X004781Y008592D02*
Y009055D01*
X004764Y008575D02*
Y009047D01*
X004348Y008919D02*
Y009047D01*
X003099Y009D02*
X004348D01*
X0038Y008841D02*
Y009481D01*
X003602Y008642D02*
X003838Y008878D01*
X0036Y00864D02*
Y009481D01*
X003471Y0082D02*
X003561D01*
Y007949D02*
Y008007D01*
Y007634D02*
Y007949D01*
Y008007D02*
Y008543D01*
X003192Y0088D02*
X003759D01*
X003285Y0086D02*
X003573D01*
X003378Y0084D02*
X003561D01*
X002973Y007675D02*
X003561Y007949D01*
X003241Y0078D02*
X003561D01*
X003302Y008562D02*
X003561Y008007D01*
X0034Y008352D02*
Y009481D01*
Y007731D02*
Y007874D01*
X0032Y008783D02*
Y009481D01*
X003209Y007654D02*
X003344Y007716D01*
X0032Y007649D02*
Y007781D01*
X003018Y009173D02*
X003302Y008563D01*
X0028Y007651D02*
Y008045D01*
X0032Y006482D02*
Y007294D01*
X00313Y007438D02*
X003187Y007318D01*
X002748Y0074D02*
X003148D01*
X0028Y007325D02*
Y007649D01*
X003Y00703D02*
Y007688D01*
X002822Y007294D02*
X002878Y007174D01*
X0024Y01062D02*
Y011025D01*
X0022Y009943D02*
Y013093D01*
X002332Y009811D02*
X002627D01*
X0024D02*
Y009947D01*
X001974Y0106D02*
X002382D01*
X001974Y0104D02*
X00228D01*
X001974Y0102D02*
X002273D01*
X001974Y010169D02*
X002332Y009811D01*
X002143Y01D02*
X002356D01*
X002264Y009481D02*
X002648D01*
X002471Y009082D02*
X002678D01*
X002393Y009462D02*
X002627D01*
X002389Y009D02*
X002646D01*
X0026Y008979D02*
Y009082D01*
X002005Y009153D02*
X002258Y009406D01*
X001407Y0094D02*
X002252D01*
X0022Y009348D02*
Y009493D01*
X001974Y010546D02*
Y011088D01*
X001412Y010478D02*
X001974D01*
X0016D02*
Y010546D01*
X002Y010143D02*
Y013093D01*
X001974Y010169D02*
Y010478D01*
X0018D02*
Y010546D01*
X001412D02*
Y011088D01*
Y010546D02*
X001974D01*
X001234Y0106D02*
X001412D01*
Y009936D02*
Y010478D01*
X001252Y0104D02*
X001412D01*
X0014Y009433D02*
Y013323D01*
X001741Y009936D02*
X002147Y009529D01*
X001451Y0092D02*
X002052D01*
X002Y009148D02*
Y009676D01*
X001499Y009D02*
X001949D01*
X001301Y01D02*
X001412D01*
Y009936D02*
X001741D01*
X001275Y0102D02*
X001412D01*
X001367Y0096D02*
X002076D01*
X001332Y0098D02*
X001876D01*
X002452Y0084D02*
X002635D01*
X0026Y00808D02*
Y008475D01*
X002688Y008285D02*
X002973Y007675D01*
X002432Y008212D02*
X00252Y008253D01*
X002329Y00894D02*
X002471Y009082D01*
X002407Y008889D02*
X002761Y009054D01*
X002329Y0088D02*
X002449D01*
X002407Y008889D02*
X002688Y008286D01*
X002358Y0086D02*
X002542D01*
X002329Y008663D02*
X00252Y008253D01*
X002637Y008D02*
X002821D01*
X002731Y0078D02*
X002914D01*
X002558Y00817D02*
X002801Y00765D01*
X002662Y007585D02*
X002801Y00765D01*
X002694Y0076D02*
X003145D01*
X002662Y007585D02*
X002774Y007345D01*
X002437Y0082D02*
X002728D01*
X002471Y008129D02*
X002558Y00817D01*
X002432Y008212D02*
X002471Y008129D01*
X002363Y007446D02*
X002475Y007205D01*
X0024Y007059D02*
Y007366D01*
X001949Y00862D02*
Y009018D01*
X002329Y008663D02*
Y00894D01*
X0018Y00855D02*
Y009876D01*
X0024Y008511D02*
Y009011D01*
X001758Y008531D02*
X002Y008011D01*
X0018Y008027D02*
Y00844D01*
X001552Y0088D02*
X001949D01*
X001609Y0086D02*
X001907D01*
X0016Y008631D02*
Y009936D01*
X001758Y008531D02*
X001949Y00862D01*
X001738Y0082D02*
X001912D01*
X001671Y0084D02*
X001819D01*
X002038Y007927D02*
X002126Y007968D01*
X002038Y007927D02*
X002281Y007407D01*
X002087Y008051D02*
X002126Y007968D01*
X002281Y007407D02*
X002363Y007446D01*
X002056Y0074D02*
X002384D01*
X0022Y007094D02*
Y00758D01*
X00181Y008D02*
X002111D01*
X001887Y0078D02*
X002098D01*
X002Y008011D02*
X002087Y008051D01*
X001969Y0076D02*
X002191D01*
X002Y007527D02*
Y008011D01*
X005013Y006454D02*
Y006933D01*
X004865D02*
X005013D01*
X0056Y006259D02*
Y006933D01*
X0058Y00638D02*
Y006933D01*
X005529Y006454D02*
Y006933D01*
X004566Y007174D02*
X004701Y007039D01*
X004348D02*
X004701D01*
X004764Y0068D02*
X005013D01*
X004764Y006504D02*
Y006976D01*
Y0066D02*
X005013D01*
X004628Y006504D02*
X004764D01*
X005013Y006454D02*
X005529D01*
X004633Y0056D02*
X005461D01*
X004628Y006457D02*
Y006504D01*
X004429Y0062D02*
X005544D01*
X004441Y006D02*
X005438D01*
X004453Y0058D02*
X005414D01*
X0044Y007039D02*
Y007174D01*
X004348D02*
X004566D01*
X004348D02*
Y007261D01*
X0046Y007039D02*
Y00714D01*
X004348Y006515D02*
Y006704D01*
Y007039D01*
X004313Y007225D02*
X004348Y007261D01*
X004313Y0072D02*
X004348D01*
X004313Y00707D02*
Y007225D01*
X004303Y007D02*
X004348D01*
X0042Y006787D02*
Y006866D01*
X00439Y006161D02*
X004587Y006358D01*
X0044Y006103D02*
Y006171D01*
X0046Y005635D02*
Y006372D01*
X004412Y005881D02*
X004471Y005817D01*
X0044Y005527D02*
Y005751D01*
X004348Y006515D02*
Y006704D01*
X004238Y0056D02*
X004478D01*
X0056Y005231D02*
Y005404D01*
X0058Y005226D02*
Y005283D01*
X004873Y0052D02*
X005516D01*
X0054Y00511D02*
Y006454D01*
Y004299D02*
Y004603D01*
X0052Y00433D02*
Y006454D01*
X004819Y0054D02*
X005605D01*
X004791Y005D02*
X005333D01*
X004444Y0048D02*
X005309D01*
X004612Y0046D02*
X005402D01*
X004186Y004559D02*
X005006Y003738D01*
X00548Y004533D02*
X00581Y004319D01*
X0056Y004299D02*
Y004455D01*
X0052Y00353D02*
Y00369D01*
X0056Y003255D02*
Y00369D01*
X0058Y003127D02*
Y00369D01*
X0054Y003389D02*
Y00369D01*
X005118Y004412D02*
X005231Y004299D01*
X00513Y0044D02*
X005685D01*
X005Y00368D02*
Y003745D01*
X004871Y005198D02*
X004944Y005266D01*
X0048Y00542D02*
Y006949D01*
X005Y00454D02*
Y006933D01*
X0048Y004496D02*
Y005006D01*
X004561Y005677D02*
X004944Y005266D01*
X0042Y005269D02*
Y005341D01*
Y005564D01*
X0044Y004955D02*
Y005054D01*
X004358Y005D02*
X004451D01*
X0042Y005169D02*
Y005269D01*
X004547Y004896D02*
X004632Y004975D01*
X0046Y004004D02*
Y004145D01*
Y004612D02*
Y004946D01*
X0048Y003837D02*
Y003945D01*
X004846Y0038D02*
X004945D01*
X004604Y004D02*
X004745D01*
X004427Y004784D02*
X004497Y00485D01*
X004427Y004784D02*
X004765Y004447D01*
X0042Y004365D02*
Y004545D01*
X004377Y0042D02*
X004545D01*
X0044Y00418D02*
Y004345D01*
X004111Y00682D02*
X004157Y006843D01*
X003392Y006995D02*
X003448Y006875D01*
X0034Y0064D02*
Y006978D01*
X003284Y007227D02*
X00334Y007107D01*
X002865Y0072D02*
X003297D01*
X003052Y0068D02*
X00349D01*
X003014Y007D02*
X00339D01*
X004174Y0068D02*
X004348D01*
X003705Y006589D02*
X003779Y006623D01*
X00373Y0066D02*
X003772D01*
X003145D02*
X003592D01*
X0035Y006763D02*
X003556Y006643D01*
X003262Y0064D02*
X003799D01*
X003262Y0064D02*
X003799D01*
X0036D02*
Y006594D01*
X002975Y007083D02*
X003031Y006963D01*
X003038Y00683D02*
X003094Y00671D01*
X002149Y0072D02*
X002474D01*
X002247Y007D02*
X002385D01*
X002411Y00682D02*
X002467Y0067D01*
X0024Y006709D02*
Y006845D01*
X003146Y006598D02*
X003202Y006478D01*
X003211Y006452D02*
X003262Y0064D01*
X002808Y006441D02*
X002864Y00632D01*
X002461Y0066D02*
X00254D01*
X002351Y0068D02*
X00242D01*
X002577Y0064D02*
X002827D01*
X0026Y006362D02*
Y006557D01*
X004075Y005448D02*
X004471Y005817D01*
X004Y005428D02*
Y005528D01*
X00384Y0056D02*
X003933D01*
X004164Y005307D02*
X004561Y005677D01*
X004024Y0054D02*
X004263D01*
X004Y005378D02*
Y005428D01*
X003204Y00612D02*
X003972D01*
X003692Y005859D02*
X003972Y00612D01*
X00283Y006D02*
X003843D01*
X003692Y005859D02*
X004075Y005448D01*
X003628Y005031D02*
X004025Y005401D01*
X003642Y005812D02*
X004025Y005401D01*
X004164Y005307D02*
X004547Y004896D01*
X004171Y0052D02*
X004264D01*
X004Y005154D02*
Y005378D01*
X004114Y005261D02*
X004497Y00485D01*
X004164Y0044D02*
X004345D01*
X004101Y00448D02*
X004186Y004559D01*
X003718Y004891D02*
X004114Y005261D01*
X003809Y0052D02*
X004049D01*
X003594Y005D02*
X003834D01*
X003718Y004891D02*
X004101Y00448D01*
X0038Y004771D02*
Y004803D01*
X0036Y005773D02*
Y00612D01*
X0038Y00596D02*
Y00612D01*
X0034Y005723D02*
Y00612D01*
X003544Y005721D02*
X003642Y005812D01*
X0032Y005482D02*
Y00612D01*
X003004Y006262D02*
X003105Y006161D01*
X0027Y0062D02*
X003066D01*
X003Y005753D02*
Y006261D01*
X0028Y006045D02*
Y006465D01*
X003653Y0058D02*
X003746D01*
X0038Y005643D02*
Y005742D01*
X0034Y005229D02*
Y005276D01*
X0038Y004968D02*
Y005191D01*
X0036Y004993D02*
Y005062D01*
X003424Y0052D02*
X003471D01*
X002967Y0058D02*
X003629D01*
X003111Y0056D02*
X003287D01*
X003245Y005442D02*
X003628Y005031D01*
X003245Y005442D02*
X00329Y005484D01*
D75*
X017269Y018555D02*
G03*
X017268Y018556I-000142J-000141D01*
G01*
X017264Y01856D02*
G03*
X015757Y019653I-006359J-007182D01*
G01*
X005154Y019055D02*
G03*
X003791Y017813I005752J-007677D01*
G01*
D02*
G03*
X00374Y01768I000149J-000134D01*
G01*
X015757Y019653D02*
G03*
X015342Y019883I-004853J-008278D01*
G01*
X015342Y019883D02*
G03*
X01525Y019906I-000092J-000178D01*
G01*
X002776Y009272D02*
X002795Y009291D01*
X002393Y009272D02*
X002776D01*
X005271Y00878D02*
Y008839D01*
X017008Y007677D02*
Y010315D01*
X005271Y008839D02*
X005429Y008997D01*
X010455Y004961D02*
X011181D01*
X009134Y005304D02*
X009709D01*
X008465D02*
X009134D01*
X009709D02*
X00974Y005274D01*
X01001D01*
X010248Y005168D02*
X010455Y004961D01*
X001693Y01315D02*
X001827Y013283D01*
X001693Y012294D02*
Y01315D01*
X001827Y013283D02*
X002756D01*
X017244Y013543D02*
Y015433D01*
Y012756D02*
Y013543D01*
X002139Y009018D02*
X002393Y009272D01*
X002139Y008392D02*
Y009018D01*
X017264Y01856D02*
X017268Y018556D01*
X017264Y01856D02*
X017264Y01856D01*
X016678Y015713D02*
X016851D01*
X011968Y005274D02*
Y005283D01*
X005154Y019055D02*
X005207Y019094D01*
X00374Y01563D02*
Y01768D01*
X005271Y00811D02*
Y00878D01*
Y007441D02*
Y00811D01*
X017008Y01252D02*
X017244Y012756D01*
X017234Y013533D02*
X017244Y013543D01*
X016772Y013533D02*
X017234D01*
X017008Y010315D02*
Y01252D01*
X016507Y010354D02*
X016968D01*
X017008Y010315D01*
X017366Y007319D02*
X01791D01*
X017008Y007677D02*
X017366Y007319D01*
X002756Y010283D02*
X003591D01*
X004055Y010748D02*
X005118D01*
X003591Y010283D02*
X004055Y010748D01*
X002419Y007789D02*
X002432Y007688D01*
X002179Y008304D02*
X002379Y007876D01*
X002419Y007789D01*
X002139Y008392D02*
X002179Y008304D01*
X009016Y019267D02*
Y019646D01*
X002642Y013397D02*
Y014626D01*
Y013397D02*
X002756Y013283D01*
X003095Y00821D02*
X003135Y008122D01*
X002855Y008726D02*
X002895Y008638D01*
X003095Y00821D01*
X002805Y008775D02*
X002855Y008726D01*
X015885Y018642D02*
X016211Y018316D01*
X015846Y018642D02*
X015885D01*
X016211Y018316D02*
X016329D01*
X015827Y018661D02*
X015846Y018642D01*
X017244Y015433D02*
X017598Y015787D01*
X016885Y01789D02*
X017327Y018332D01*
X017269Y018555D02*
X017327Y018497D01*
Y018332D02*
Y018414D01*
Y018414D02*
Y018497D01*
X016885Y017741D02*
Y01789D01*
X014589Y019906D02*
X01525D01*
X015512Y013406D02*
X015915Y013809D01*
X016061Y013994D02*
Y014015D01*
X015965Y013898D02*
X016061Y013994D01*
X016294Y014248D02*
X016772D01*
X016061Y014015D02*
X016294Y014248D01*
X015827Y013898D02*
X015965D01*
X016772Y015696D02*
X016782Y015686D01*
X008894Y012913D02*
X008959Y012979D01*
Y013526D01*
X007835Y008228D02*
X008071Y007992D01*
X005429Y018418D02*
X005622D01*
X005199Y018648D02*
X005199D01*
X005622Y018418D02*
X005719Y018321D01*
X005199Y018648D02*
X005429Y018418D01*
X002642Y014626D02*
X00266Y014644D01*
X011539Y009606D02*
X011654Y009491D01*
X010866Y009606D02*
X011539D01*
X01023Y008832D02*
X011536D01*
X011654Y008949D01*
Y009491D01*
X00939Y007992D02*
X01023Y008832D01*
X012253Y008348D02*
X01253Y008071D01*
X015039Y008071D02*
X017441Y005669D01*
X01253Y008071D02*
X015039D01*
X012194Y008348D02*
X012253D01*
X012176Y008366D02*
X012194Y008348D01*
X012176Y008366D02*
Y008425D01*
X017441Y005433D02*
Y005669D01*
X005719Y018321D02*
X005761Y018363D01*
X011339Y018064D02*
Y018071D01*
X015984Y015276D02*
X01624D01*
X016678Y015713D01*
X016772Y014248D02*
Y014886D01*
X008329Y019388D02*
X008346Y01937D01*
X007699Y019406D02*
X007717Y019388D01*
X008329D01*
X008756Y019906D02*
X009016Y019646D01*
X007699Y019906D02*
X008756D01*
X005207Y019094D02*
X005702D01*
X003761Y01561D02*
X00405D01*
X00374Y01563D02*
X003761Y01561D01*
X006611Y018363D02*
X006654Y018406D01*
X005761Y018363D02*
X006611D01*
X006654Y018406D02*
Y0185D01*
X007126Y018972D01*
Y019174D01*
X007322Y01937D02*
X007663D01*
X007126Y019174D02*
X007322Y01937D01*
X007663D02*
X007699Y019406D01*
X006654Y019468D02*
Y019563D01*
Y019374D02*
Y019468D01*
Y019563D02*
X006996Y019906D01*
X007699D01*
X005719Y019111D02*
X00639D01*
X006654Y019374D01*
X005702Y019094D02*
X005719Y019111D01*
X014785Y013406D02*
X015512D01*
X012729Y006811D02*
X012756D01*
X012691Y006774D02*
X012729Y006811D01*
X011959Y006774D02*
X012691D01*
X012737D02*
X013077D01*
X011959Y005274D02*
Y005292D01*
Y00407D02*
Y005274D01*
X011968Y005283D01*
X007835Y008228D02*
Y009154D01*
X008071Y007992D02*
X00939D01*
X010534Y007573D02*
Y007598D01*
X01001Y006774D02*
Y006782D01*
X01Y006792D02*
Y007192D01*
X010384Y007423D02*
X010534Y007573D01*
X010232Y007423D02*
X010384D01*
X01Y006792D02*
X01001Y006782D01*
X01Y007192D02*
X010232Y007423D01*
X011284Y005474D02*
X011359D01*
X010984Y005774D02*
X011284Y005474D01*
X010984Y005774D02*
Y006024D01*
X011359Y005474D02*
X011541Y005292D01*
X011941D02*
X011959Y005274D01*
X011541Y005292D02*
X011941D01*
X011456Y00843D02*
X011461Y008425D01*
X010577Y008435D02*
X010582Y00843D01*
X011456D01*
X01122Y00626D02*
X011234Y006274D01*
X010984Y006024D02*
X01122Y00626D01*
X011234Y006274D02*
X011959D01*
X013077Y006774D02*
X013415Y007112D01*
X011959Y006274D02*
X013367D01*
X01342Y005685D02*
Y006317D01*
X011967Y005765D02*
X012463D01*
X013245Y004983D02*
X013407D01*
X013425Y004965D01*
X012463Y005765D02*
X013245Y004983D01*
X011959Y005774D02*
X011967Y005765D01*
D76*
X003936Y006889D02*
D03*
D77*
X010984Y006024D02*
D03*
D78*
X007323Y009359D02*
X007448Y009484D01*
X007323Y008071D02*
Y009359D01*
Y008071D02*
X007717Y007677D01*
X002264Y009646D02*
X005906D01*
X007448Y009484D02*
X007792D01*
X006654Y012323D02*
X012657D01*
X006079Y011749D02*
X006654Y012323D01*
X006142Y009882D02*
Y010354D01*
X00752Y011732D01*
X008228D01*
X005906Y009646D02*
X006142Y009882D01*
X012657Y012323D02*
X012894Y012559D01*
X007792Y009484D02*
X007835Y009528D01*
X007717Y007677D02*
X009819D01*
X008006Y006549D02*
X008475D01*
X006203Y004747D02*
X008006Y006549D01*
X005858Y004747D02*
X006203D01*
X005855Y004749D02*
X005858Y004747D01*
X00622Y004134D02*
X008106Y006019D01*
X006335Y003855D02*
X008189Y005709D01*
X009046D01*
X005123Y003855D02*
X006335D01*
X005163Y004134D02*
X00622D01*
X008106Y006019D02*
X008465D01*
X004935Y004362D02*
X005163Y004134D01*
X004108Y004871D02*
X005123Y003855D01*
X004108Y004871D02*
Y004871D01*
X009046Y005709D02*
X009134Y005797D01*
Y006019D01*
X009671Y005774D02*
X01001D01*
X009659Y006274D02*
X01001D01*
X003635Y005341D02*
Y005422D01*
X009819Y007677D02*
X010577Y008435D01*
X001693Y010207D02*
X001703D01*
X002264Y009646D01*
X001693Y010817D02*
Y011579D01*
X013937Y012992D02*
Y013268D01*
X015039Y008071D02*
Y01189D01*
X013937Y012992D02*
X015039Y01189D01*
X008622Y016063D02*
X009501Y015184D01*
X009501D01*
X008622Y016063D02*
Y016063D01*
X009501Y015184D02*
X009764Y014921D01*
X005134Y011749D02*
X006079D01*
X005118Y011732D02*
X005134Y011749D01*
X002432Y007688D02*
X002639Y007245D01*
X003307Y012362D02*
X003701Y012756D01*
Y013858D01*
X002835Y012362D02*
X003307D01*
X002756Y012283D02*
X002835Y012362D01*
X005039Y013858D02*
X005433Y014252D01*
X003357Y014202D02*
Y014626D01*
X003701Y013858D02*
X005039D01*
X003357Y014202D02*
X003701Y013858D01*
X008346Y012992D02*
Y013504D01*
X012894Y012559D02*
Y012913D01*
X008071Y012717D02*
X008346Y012992D01*
X005118Y012717D02*
X008071D01*
X013311Y017406D02*
X014589D01*
X010236Y013976D02*
X010709Y013504D01*
X008346D02*
X008819Y013976D01*
X010236D01*
X012087Y014055D02*
Y017717D01*
X013268Y018898D01*
X012441Y016535D02*
X013311Y017406D01*
X012441Y014056D02*
Y016535D01*
X012795Y014032D02*
Y016102D01*
X013228Y016535D01*
X013641Y013564D02*
X013937Y013268D01*
X011869Y013564D02*
X013641D01*
X011654Y01378D02*
X011869Y013564D01*
X011654Y01378D02*
Y017749D01*
X013268Y018898D02*
X014368D01*
X011339Y018064D02*
X011654Y017749D01*
X013228Y016535D02*
X013898D01*
X013543Y016181D02*
X013898D01*
X01315Y014055D02*
Y015787D01*
X013543Y016181D01*
X009016Y009528D02*
X009488D01*
X009488Y009528D01*
X00923Y008527D02*
X009364Y008661D01*
X00937D01*
X009015Y008527D02*
X00923D01*
X008972Y008484D02*
X009015Y008527D01*
X008972Y008425D02*
Y008484D01*
X01374Y01437D02*
Y015079D01*
X014067Y015406D01*
X014368Y018898D02*
X014589Y018906D01*
X007695Y013902D02*
X007699Y013906D01*
X006854Y013902D02*
X007695D01*
X00685Y013898D02*
X006854Y013902D01*
X015039Y008071D02*
Y008071D01*
X005433Y014252D02*
Y014803D01*
X007248Y017406D02*
X007699D01*
X007047Y016417D02*
Y017205D01*
X007248Y017406D01*
X005433Y014803D02*
X007047Y016417D01*
Y015906D02*
X007699D01*
X005866Y013957D02*
Y014724D01*
X007047Y015906D01*
X010553Y016866D02*
X010829D01*
X005118Y013209D02*
X005866Y013957D01*
X014067Y015406D02*
X014589D01*
X011614Y010433D02*
X012825Y009222D01*
X012504Y00999D02*
X013299D01*
X012825Y009222D02*
X013299D01*
X011755Y010738D02*
X012504Y00999D01*
X011545Y010738D02*
X011755D01*
X011535Y010748D02*
X011545Y010738D01*
X00972Y010433D02*
X011614D01*
X008475Y016906D02*
X00849Y01689D01*
X008504D01*
X007699Y016906D02*
X008475D01*
X015792Y010118D02*
Y010354D01*
X008543Y018898D02*
X008976Y018465D01*
X007699Y018906D02*
X007707Y018898D01*
X008543D01*
X015777Y010369D02*
Y011038D01*
X015762Y011053D02*
X015777Y011038D01*
Y010369D02*
X015792Y010354D01*
X00685Y014409D02*
X006852Y014407D01*
X007697D01*
X007699Y014406D01*
X009016Y009154D02*
X009862D01*
X009925Y009217D02*
X011026D01*
X009862Y009154D02*
X009925Y009217D01*
X011026D02*
X011032Y009222D01*
X011531Y009995D02*
X011535Y01D01*
X011036Y009995D02*
X011531D01*
X011032Y00999D02*
X011036Y009995D01*
X009193Y009902D02*
X009236Y009945D01*
Y009949D01*
X009016Y009902D02*
X009193D01*
X009236Y009949D02*
X00972Y010433D01*
X011828Y008048D02*
X012103Y008323D01*
X010656Y008048D02*
X011828D01*
X010551Y007944D02*
X010656Y008048D01*
X010551Y007615D02*
Y007944D01*
X010534Y007598D02*
X010551Y007615D01*
D79*
X010268Y003765D02*
Y004299D01*
X01Y005264D02*
X01001Y005274D01*
X01Y004567D02*
X010268Y004299D01*
X01Y004567D02*
Y005264D01*
X010268Y003365D02*
Y003765D01*
X011941Y003083D02*
Y004053D01*
X009764Y003505D02*
X009776Y003517D01*
Y003758D02*
X009783Y003765D01*
X009776Y003517D02*
Y003758D01*
X009764Y00315D02*
Y003505D01*
Y00315D02*
X010197Y002717D01*
X010443Y003189D02*
X011281D01*
X011457Y003524D02*
X011464Y003532D01*
X011457Y003365D02*
Y003524D01*
X011464Y003532D02*
Y003765D01*
X011465Y003765D01*
X011281Y003189D02*
X011457Y003365D01*
X011434Y007573D02*
Y007598D01*
X01122Y00736D02*
X011434Y007573D01*
X01122Y00626D02*
Y00736D01*
X013367Y006274D02*
X013415Y006322D01*
X01342Y006317D01*
X011941Y004053D02*
X011959Y00407D01*
X010268Y003365D02*
X010443Y003189D01*
X011575Y002717D02*
X011941Y003083D01*
X010197Y002717D02*
X011575D01*
D80*
X015815Y003965D02*
X017283Y005433D01*
X017441D01*
X015709Y003965D02*
X015815D01*
D81*
X005995Y005832D02*
D03*
X008273Y004352D02*
D03*
X006186Y016809D02*
D03*
X004551Y01464D02*
D03*
D82*
X007341Y003784D02*
D03*
X005855Y004749D02*
D03*
D83*
X015669Y003898D02*
D03*
D84*
X014803Y003398D02*
D03*
D85*
X005118Y011732D02*
D03*
Y01124D02*
D03*
Y013209D02*
D03*
Y012717D02*
D03*
Y010748D02*
D03*
Y012224D02*
D03*
D86*
X002756Y010283D02*
D03*
Y011283D02*
D03*
Y012283D02*
D03*
D87*
Y013283D02*
D03*
D88*
X017441Y005433D02*
D03*
D89*
X01807Y00621D02*
D03*
D90*
X012567Y003706D02*
D03*
X009165D02*
D03*
X012567Y00221D02*
D03*
X009165Y00221D02*
D03*
D91*
X010829Y016315D02*
D03*
X010278D02*
D03*
X010829Y017417D02*
D03*
X010278D02*
D03*
X011104Y016591D02*
D03*
X010002D02*
D03*
X011104Y017142D02*
D03*
X010002D02*
D03*
X010829Y016866D02*
D03*
X010278D02*
D03*
X010553Y017142D02*
D03*
Y016591D02*
D03*
X013465Y01122D02*
D03*
Y010669D02*
D03*
X014016Y01122D02*
D03*
Y010669D02*
D03*
X014567Y01122D02*
D03*
X014567Y010669D02*
D03*
X01374Y011496D02*
D03*
X01374Y010945D02*
D03*
X01374Y010394D02*
D03*
X014291Y011496D02*
D03*
X014291Y010394D02*
D03*
Y010945D02*
D03*
X011535Y01D02*
D03*
X00685Y014409D02*
D03*
X011535Y010748D02*
D03*
X015827Y017126D02*
D03*
X015236D02*
D03*
X013898Y016181D02*
D03*
Y016535D02*
D03*
X014016Y007165D02*
D03*
X008976Y018465D02*
D03*
X015787Y010118D02*
D03*
X008622Y016063D02*
D03*
X008504Y01689D02*
D03*
X009764Y004055D02*
D03*
X00685Y013898D02*
D03*
X01374Y01437D02*
D03*
X01315Y014055D02*
D03*
X00937Y008661D02*
D03*
X009488Y009528D02*
D03*
X012795Y014055D02*
D03*
X012441D02*
D03*
X012087D02*
D03*
X010709Y013504D02*
D03*
X008959Y013526D02*
D03*
X009016Y019267D02*
D03*
X011496Y012047D02*
D03*
X010669Y011457D02*
D03*
X009764Y014921D02*
D03*
X009659Y006274D02*
D03*
X009671Y005774D02*
D03*
X004935Y004362D02*
D03*
X003469Y005546D02*
D03*
X004252Y005984D02*
D03*
X004685Y005157D02*
D03*
X008228Y011732D02*
D03*
X007874Y011102D02*
D03*
Y012047D02*
D03*
D92*
X00405Y01561D02*
D03*
X005116Y017024D02*
D03*
D93*
X005118Y010256D02*
D03*
D94*
X004055Y006535D02*
D03*
X006142Y007402D02*
D03*
X006102Y008307D02*
D03*
X002795Y009291D02*
D03*
X008071Y010433D02*
D03*
X005591Y009016D02*
D03*
X011181Y004961D02*
D03*
X009134Y010748D02*
D03*
X01791Y007319D02*
D03*
X015827Y018661D02*
D03*
X017598Y015787D02*
D03*
X005199Y018648D02*
D03*
X011339Y018071D02*
D03*
X008346Y01937D02*
D03*
X012756Y006811D02*
D03*
X00939Y007992D02*
D03*
M02*
